<?xml version="1.0" encoding="UTF-8"?>
<svg width="54px" height="54px" viewBox="0 0 54 54" version="1.1" xmlns="http://www.w3.org/2000/svg" xmlns:xlink="http://www.w3.org/1999/xlink">
    <title>Group 14</title>
    <defs>
        <polygon id="path-1" points="0 0.41387458 22.3438989 0.41387458 22.3438989 25.95846 0 25.95846"></polygon>
        <polygon id="path-3" points="0.445013536 0.619528 9.42846385 0.619528 9.42846385 9.62 0.445013536 9.62"></polygon>
    </defs>
    <g id="LP" stroke="none" stroke-width="1" fill="none" fill-rule="evenodd">
        <g id="lp" transform="translate(-693.000000, -7512.000000)">
            <g id="Group-14" transform="translate(693.000000, 7512.000000)">
                <circle id="Oval" fill="#00A6A6" cx="27" cy="27" r="27"></circle>
                <g id="Group-12" transform="translate(16.030000, 9.000000)">
                    <g id="Group-7" transform="translate(0.970000, 0.000000)">
                        <g id="Group-3" transform="translate(0.000000, 0.326414)">
                            <mask id="mask-2" fill="white">
                                <use xlink:href="#path-1"></use>
                            </mask>
                            <g id="Clip-2"></g>
                            <path d="M9.56592258,23.65262 L10.2188258,23.65188 C10.6306,23.64744 10.8554065,23.62672 10.9770839,23.60674 C10.9911806,23.48982 11.0008258,23.28114 10.9830194,22.91188 C10.894729,21.05448 11.9660839,20.20866 12.9090839,19.67882 L13.539729,19.32658 C14.8566645,18.59546 16.2181161,17.83992 17.2865032,16.8905 C19.1591484,15.2292 20.1310839,13.03066 20.0249871,10.69892 C19.9174065,8.35238 18.6828258,6.14348 16.6373097,4.63758 C14.8336645,3.3115 12.7510516,2.66252 10.480729,2.72172 L10.4540194,2.72172 C7.13830968,2.72616 4.29892258,3.81618 2.66443871,5.71502 C2.45447097,5.95922 2.36692258,6.10426 2.33130968,6.17604 C2.37582581,6.23746 2.4759871,6.35512 2.69485806,6.54086 C2.94489032,6.75176 3.20234194,6.95526 3.46053548,7.15802 C3.76324516,7.3963 4.0652129,7.63458 4.35679355,7.88544 C4.56156774,8.06008 4.65801935,8.08302 4.66618065,8.0845 C4.66618065,8.08302 4.78043871,8.05416 5.02453548,7.82772 C7.25479355,5.7609 10.8858258,5.2355 13.6606645,6.57934 C15.518471,7.4777 16.6706968,8.9503 16.8220516,10.619 C16.9711806,12.26328 16.1224065,13.8898 14.4923742,15.07972 C13.6280194,15.71168 12.6909548,16.2023 11.7843097,16.67664 C11.5276,16.81132 11.2701484,16.946 11.0156645,17.08364 C8.94269677,18.20178 7.92327742,19.70546 7.80827742,21.81742 C7.77637419,22.3961 7.72963226,23.23822 7.78601935,23.5801 C8.11989032,23.65262 8.93972903,23.65188 9.56592258,23.65262 M9.96730968,25.95846 L9.76401935,25.95846 L9.56666452,25.95772 C7.89285806,25.94958 6.80740645,25.95846 6.08030968,25.19182 C5.34950323,24.42296 5.40885806,23.3359 5.50011613,21.69162 C5.65889032,18.78268 7.14424516,16.54936 9.91537419,15.05604 C10.1780194,14.91396 10.4443742,14.77484 10.7099871,14.63498 C11.5795355,14.17988 12.4001161,13.74994 13.126471,13.21936 C14.1006323,12.50822 14.5955032,11.6587 14.5205677,10.82694 C14.4434065,9.9826 13.7623097,9.1908 12.6516323,8.65282 C10.7329871,7.7256 8.12953548,8.09708 6.59818065,9.51714 C5.05643871,10.94386 3.71056774,10.36888 2.85214839,9.63554 C2.58282581,9.40466 2.3046,9.18562 2.02711613,8.96658 C1.74814839,8.7468 1.46918065,8.52702 1.19911613,8.29762 C0.679019355,7.85732 0.0758258065,7.23942 0.00608387097,6.35882 C-0.0636580645,5.4686 0.453470968,4.74414 0.911245161,4.21208 C2.9819871,1.80708 6.45424516,0.42402 10.4384387,0.41662 C13.218471,0.36112 15.7870516,1.147 18.0098903,2.7824 C20.6177935,4.7027 22.1944065,7.54948 22.3338903,10.59384 C22.4711484,13.58862 21.1913097,16.51236 18.8230516,18.61322 C17.5639871,19.72988 16.0905032,20.54906 14.6652452,21.34086 L14.0435032,21.68792 C13.3572129,22.07272 13.2659548,22.27178 13.2911806,22.80384 C13.3305032,23.62968 13.3201161,24.56578 12.6954065,25.22586 C12.0729226,25.88372 11.1440194,25.9481 10.2462774,25.95698 C10.1542774,25.95846 10.0607935,25.95846 9.96730968,25.95846" id="Fill-1" fill="#FFFFFF" mask="url(#mask-2)"></path>
                        </g>
                        <g id="Group-6" transform="translate(4.451613, 26.966414)">
                            <mask id="mask-4" fill="white">
                                <use xlink:href="#path-3"></use>
                            </mask>
                            <g id="Clip-5"></g>
                            <path d="M4.93528065,2.924628 C4.29424839,2.924628 3.74966774,3.127388 3.36237742,3.512188 C2.96989355,3.901428 2.75992581,4.451988 2.75618421,5.105408 C2.75324839,5.774368 2.95728065,6.334548 3.34679677,6.726748 C3.72740968,7.109328 4.26828065,7.312828 4.91079677,7.315048 L4.91153871,7.315048 L4.92266774,7.315048 C5.57037742,7.315048 6.12015161,7.110068 6.51263548,6.723788 C6.90586129,6.336768 7.1150871,5.792128 7.11658279,5.149068 C7.12028065,3.825948 6.25073226,2.932028 4.95160323,2.924628 L4.93528065,2.924628 Z M4.92192581,9.620148 L4.90263548,9.620148 C3.65173226,9.615708 2.51582903,9.165048 1.70563548,8.350308 C0.88653871,7.525948 0.438409677,6.369328 0.445013536,5.094308 C0.451764516,3.835568 0.908796774,2.693748 1.7330871,1.876788 C2.55144194,1.065008 3.6880871,0.619528 4.93602258,0.619528 L4.96495806,0.619528 C7.55876452,0.633588 9.43586129,2.541308 9.42846385,5.156468 C9.42399032,6.409288 8.96547419,7.548148 8.13673226,8.364368 C7.31392581,9.173928 6.17282903,9.620148 4.92192581,9.620148 L4.92192581,9.620148 Z" id="Fill-4" fill="#FFFFFF" mask="url(#mask-4)"></path>
                        </g>
                    </g>
                </g>
            </g>
        </g>
    </g>
</svg>