<?xml version="1.0" encoding="UTF-8"?>
<svg width="54px" height="54px" viewBox="0 0 54 54" version="1.1" xmlns="http://www.w3.org/2000/svg" xmlns:xlink="http://www.w3.org/1999/xlink">
    <title>Group 5</title>
    <defs>
        <polygon id="path-1" points="0.000269944653 0.591428571 27.6410256 0.591428571 27.6410256 34.2856429 0.000269944653 34.2856429"></polygon>
    </defs>
    <g id="LP" stroke="none" stroke-width="1" fill="none" fill-rule="evenodd">
        <g id="lp" transform="translate(-693.000000, -4057.000000)">
            <g id="Group-5" transform="translate(693.000000, 4057.000000)">
                <circle id="Oval" fill="#00A6A6" cx="27" cy="27" r="27"></circle>
                <g id="Group-7" transform="translate(13.000000, 9.000000)">
                    <polygon id="Fill-1" fill="#FFFFFF" points="5.15271795 14.9119286 18.7312821 14.9119286 18.7312821 13.2969286 5.15271795 13.2969286"></polygon>
                    <polygon id="Fill-2" fill="#FFFFFF" points="5.14410256 20.0126429 18.7205128 20.0126429 18.7205128 18.3790714 5.14410256 18.3790714"></polygon>
                    <polygon id="Fill-3" fill="#FFFFFF" points="5.14194872 25.0640714 18.7205128 25.0640714 18.7205128 23.4447857 5.14194872 23.4447857"></polygon>
                    <g id="Group-6" transform="translate(0.000000, 0.122643)">
                        <mask id="mask-2" fill="white">
                            <use xlink:href="#path-1"></use>
                        </mask>
                        <g id="Clip-5"></g>
                        <path d="M25.6609231,31.1370714 C25.6609231,31.9613571 25.3105641,32.3127857 24.4913846,32.3135 L15.3475897,32.3156429 L6.56276923,32.3135 C5.78523077,32.3127857 5.40615385,31.6063571 5.40471795,30.8863571 C5.40471795,30.7656429 5.40471795,30.6463571 5.40471795,30.5256429 L21.4523077,30.5256429 L21.490359,30.5120714 C22.7991795,30.0663571 23.5192821,29.3542143 23.757641,28.2706429 C23.8236923,27.9720714 23.8373333,27.6699286 23.8373333,27.3085 C23.8380513,25.0399286 23.8366154,22.7713571 23.8358974,20.5027857 C23.8323077,15.7363571 23.8294359,10.8277857 23.8531282,5.96635714 L24.08,5.96635714 C24.9587692,5.96707143 25.6602051,6.2985 25.6609231,7.1485 C25.6652308,15.0256429 25.6645128,23.2606429 25.6609231,31.1370714 L25.6609231,31.1370714 Z M3.43825641,28.5535 L3.14246154,28.5535 C2.36420513,28.5527857 1.98584615,28.2035 1.98369231,27.4835 C1.97723077,23.0906429 1.97872777,18.6985 1.97938462,14.3063571 L1.98082051,11.2692143 C1.98082051,11.2399286 1.98297436,11.2106429 1.98584615,11.1777857 L4.88851282,11.1777857 L7.88020513,11.1777857 L8.65487179,11.1777857 C10.0117949,11.1770714 10.6450256,10.5427857 10.6478974,9.18064286 C10.6486154,8.9285 10.6478974,8.67635714 10.6486154,8.42421429 C10.6493333,7.43492857 10.6500513,6.44564286 10.6493333,5.45635714 L10.6493333,4.8735 L10.6493333,2.58135714 C10.7771282,2.57207143 10.8927179,2.5635 11.0075897,2.5635 L16.6858462,2.56135714 L20.6596923,2.56278571 C21.5384615,2.5635 21.8802051,2.89492857 21.881641,3.74492857 L21.881641,3.99492857 C21.881641,4.65135714 21.8809231,5.3085 21.881641,5.96564286 C21.8845128,13.1027857 21.8845128,20.2399286 21.881641,27.3770714 C21.8809231,28.2013571 21.5312821,28.5527857 20.7113846,28.5535 L11.9272821,28.5556429 L5.404,28.5542143 L3.43825641,28.5535 Z M8.8185641,3.43921429 C8.82,4.72635714 8.81928205,6.01421429 8.8185641,7.30207143 C8.8185641,7.73135714 8.81928205,8.16135714 8.8185641,8.59135714 C8.81712821,9.2685 8.7094359,9.37921429 8.04605128,9.38207143 C7.60810256,9.3835 7.16871795,9.3835 6.73005128,9.3835 C6.33661538,9.38421429 5.94461538,9.38564286 5.55046154,9.38564286 L2.84092308,9.38421429 L8.8185641,3.43921429 Z M27.6411549,7.61564286 C27.6525128,5.66992857 26.8986667,4.52207143 25.2653333,4.00635714 L25.2287179,3.99492857 L23.8509744,3.99492857 C23.8050256,2.18564286 23.0547692,1.0985 21.4853333,0.6035 L21.4487179,0.591357143 L9.47117949,0.591357143 L9.43958974,0.599928571 C8.46676923,0.859214286 7.79692308,1.47778571 7.08328205,2.19778571 L6.81692308,2.46707143 C5.04574359,4.25707143 3.21425641,6.10778571 1.36410256,7.87492857 C0.412820513,8.78421429 -0.00646153846,9.7985 0.00430769231,11.1635 C0.0531282051,17.2656429 0.0524102564,22.2670714 0.000717948718,26.9027857 C-0.0208205128,28.8470714 0.73374359,29.9942143 2.37641026,30.5142143 L2.41302564,30.5256429 L3.43035897,30.5256429 C3.46841026,32.3320714 4.22010256,33.7749286 5.7974359,34.2742143 L5.83405128,34.2856429 L25.2315897,34.2856429 L25.270359,34.2727857 C26.5791795,33.8270714 27.2992821,33.1149286 27.537641,32.0313571 C27.6036923,31.7327857 27.6173333,31.4299286 27.6173333,31.0685 C27.6180513,28.8006429 27.6166154,26.1749286 27.6151795,23.9063571 C27.6108718,18.5663571 27.6065641,13.0456429 27.6411549,7.61564286 L27.6411549,7.61564286 Z" id="Fill-4" fill="#FFFFFF" mask="url(#mask-2)"></path>
                    </g>
                </g>
            </g>
        </g>
    </g>
</svg>