<?xml version="1.0" encoding="UTF-8"?>
<svg width="64px" height="64px" viewBox="0 0 64 64" version="1.1" xmlns="http://www.w3.org/2000/svg" xmlns:xlink="http://www.w3.org/1999/xlink">
    <title>Group 63</title>
    <defs>
        <polygon id="path-1" points="0.000247524752 0.293627451 49.5841584 0.293627451 49.5841584 25.0365196 0.000247524752 25.0365196"></polygon>
    </defs>
    <g id="LP" stroke="none" stroke-width="1" fill="none" fill-rule="evenodd">
        <g id="lp" transform="translate(-352.000000, -9653.000000)">
            <g id="Group-63" transform="translate(352.000000, 9653.000000)">
                <g id="Group-50" transform="translate(6.000000, 7.344828)">
                    <g id="Group-12" transform="translate(0.000000, -0.307882)">
                        <path d="M13.2070297,28.792549 C15.5525743,28.792549 17.460495,30.6817647 17.460495,33.0038235 C17.460495,35.3258824 15.5525743,37.215098 13.2070297,37.215098 C10.8624752,37.215098 8.95455446,35.3258824 8.95455446,33.0038235 C8.95455446,30.6817647 10.8624752,28.792549 13.2070297,28.792549 M13.2070297,38.6366667 C16.3436634,38.6366667 18.8961386,36.1097059 18.8961386,33.0038235 C18.8961386,29.8979412 16.3436634,27.3709804 13.2070297,27.3709804 C10.070396,27.3709804 7.51891089,29.8979412 7.51891089,33.0038235 C7.51891089,36.1097059 10.070396,38.6366667 13.2070297,38.6366667" id="Fill-1" fill="#273043"></path>
                        <path d="M39.534604,28.792549 C41.8801485,28.792549 43.7880693,30.6817647 43.7880693,33.0038235 C43.7880693,35.3258824 41.8801485,37.215098 39.534604,37.215098 C37.1900495,37.215098 35.2821287,35.3258824 35.2821287,33.0038235 C35.2821287,30.6817647 37.1900495,28.792549 39.534604,28.792549 M39.534604,38.6366667 C42.6712376,38.6366667 45.2237129,36.1097059 45.2237129,33.0038235 C45.2237129,29.8979412 42.6712376,27.3709804 39.534604,27.3709804 C36.3979703,27.3709804 33.8464851,29.8979412 33.8464851,33.0038235 C33.8464851,36.1097059 36.3979703,38.6366667 39.534604,38.6366667" id="Fill-3" fill="#273043"></path>
                        <g id="Group-7" transform="translate(0.000000, 0.196569)">
                            <mask id="mask-2" fill="white">
                                <use xlink:href="#path-1"></use>
                            </mask>
                            <g id="Clip-6"></g>
                            <path d="M48.8660891,0.293382353 L15.4616337,0.293382353 C15.0655941,0.293382353 14.7443069,0.611519608 14.7443069,1.00416667 L14.7443069,5.72132353 L0.717574257,5.72132353 C0.321039604,5.72132353 0.000247524752,6.03995098 0.000247524752,6.43210784 L0.000247524752,20.007598 C0.000247524752,20.4002451 0.321039604,20.7183824 0.717574257,20.7183824 L11.4888614,20.7183824 C11.885396,20.7183824 12.2061881,20.4002451 12.2061881,20.007598 C12.2061881,19.614951 11.885396,19.2968137 11.4888614,19.2968137 L1.43589109,19.2968137 L1.43589109,7.14338235 L31.3759901,7.14338235 L31.3759901,19.2968137 L17.0175743,19.2968137 C16.7700495,19.2968137 16.5398515,19.4227941 16.4086634,19.6301471 L13.6789604,23.9482843 C13.4680693,24.2811275 13.5705446,24.7193627 13.9061881,24.9281863 C14.025,25.0012255 14.1566832,25.0365196 14.2868812,25.0365196 C14.5259901,25.0365196 14.7596535,24.9178922 14.8962871,24.7026961 L17.415099,20.7183824 L32.0933168,20.7183824 C32.4898515,20.7183824 32.8116337,20.4002451 32.8116337,20.007598 L32.8116337,15.7982843 L37.3185644,15.7982843 L38.8918317,19.5120098 C39.0066832,19.7845588 39.2725248,19.9482843 39.5537129,19.9482843 C39.6457921,19.9482843 39.7403465,19.9306373 39.8304455,19.892402 C40.1957921,19.7409314 40.3680693,19.3242647 40.215099,18.9625 L38.4586634,14.8125 C38.3462871,14.5482843 38.085396,14.3762255 37.7962871,14.3762255 L32.8116337,14.3762255 L32.8116337,6.43210784 C32.8116337,6.03995098 32.4898515,5.72132353 32.0933168,5.72132353 L16.1804455,5.72132353 L16.1804455,1.71495098 L48.1487624,1.71495098 L48.1487624,14.3169118 L42.0428218,14.3169118 C41.6462871,14.3169118 41.324505,14.6355392 41.324505,15.0281863 C41.324505,15.4203431 41.6462871,15.7389706 42.0428218,15.7389706 L48.8660891,15.7389706 C49.2626238,15.7389706 49.5844059,15.4203431 49.5844059,15.0281863 L49.5844059,1.00416667 C49.5844059,0.611519608 49.2626238,0.293382353 48.8660891,0.293382353" id="Fill-5" fill="#273043" mask="url(#mask-2)"></path>
                        </g>
                        <path d="M17.8578218,48.2845588 L8.55633663,48.2845588 L8.55633663,45.7365196 C8.55633663,43.1968137 10.6429703,41.1311275 13.2068317,41.1311275 C15.7721782,41.1311275 17.8578218,43.1968137 17.8578218,45.7365196 L17.8578218,48.2845588 Z M13.2068317,39.7095588 C9.85089109,39.7095588 7.12069307,42.4129902 7.12069307,45.7365196 L7.12069307,48.9953431 C7.12069307,49.3879902 7.44247525,49.7061275 7.8390099,49.7061275 L18.5761386,49.7061275 C18.9726733,49.7061275 19.2934653,49.3879902 19.2934653,48.9953431 L19.2934653,45.7365196 C19.2934653,42.4129902 16.5632673,39.7095588 13.2068317,39.7095588 L13.2068317,39.7095588 Z" id="Fill-8" fill="#273043"></path>
                        <path d="M44.1853465,48.2845588 L34.8838614,48.2845588 L34.8838614,45.7365196 C34.8838614,43.1968137 36.970495,41.1311275 39.5343564,41.1311275 C42.099703,41.1311275 44.1853465,43.1968137 44.1853465,45.7365196 L44.1853465,48.2845588 Z M39.5343564,39.7095588 C36.1784158,39.7095588 33.4482178,42.4129902 33.4482178,45.7365196 L33.4482178,48.9953431 C33.4482178,49.3879902 33.77,49.7061275 34.1665347,49.7061275 L44.9036634,49.7061275 C45.300198,49.7061275 45.6209901,49.3879902 45.6209901,48.9953431 L45.6209901,45.7365196 C45.6209901,42.4129902 42.8907921,39.7095588 39.5343564,39.7095588 L39.5343564,39.7095588 Z" id="Fill-10" fill="#273043"></path>
                    </g>
                </g>
                <rect id="Rectangle-Copy-41" x="0" y="0" width="64" height="64"></rect>
            </g>
        </g>
    </g>
</svg>