<?xml version="1.0" encoding="UTF-8"?>
<svg width="64px" height="64px" viewBox="0 0 64 64" version="1.1" xmlns="http://www.w3.org/2000/svg" xmlns:xlink="http://www.w3.org/1999/xlink">
    <title>Group 55</title>
    <defs>
        <polygon id="path-1" points="0 0.0305696877 46.6506168 0.0305696877 46.6506168 50.1139916 0 50.1139916"></polygon>
        <polygon id="path-3" points="0 50.5850655 46.6507158 50.5850655 46.6507158 0.501392993 0 0.501392993"></polygon>
    </defs>
    <g id="LP" stroke="none" stroke-width="1" fill="none" fill-rule="evenodd">
        <g id="lp" transform="translate(-352.000000, -9496.000000)">
            <g id="Group-55" transform="translate(352.000000, 9496.000000)">
                <g id="Group-49" transform="translate(11.000000, 8.413793)">
                    <g id="Group-10" transform="translate(0.000000, -0.374005)">
                        <g id="Group-3" transform="translate(0.000000, 0.470823)">
                            <mask id="mask-2" fill="white">
                                <use xlink:href="#path-1"></use>
                            </mask>
                            <g id="Clip-2"></g>
                            <path d="M37.04728,48.6606786 C32.5431958,48.6606786 28.8781853,44.9487167 28.8781853,40.3858149 C28.8781853,35.8234143 32.5431958,32.1119535 37.04728,32.1119535 C41.5513642,32.1119535 45.21588,35.8234143 45.21588,40.3858149 C45.21588,44.9487167 41.5513642,48.6606786 37.04728,48.6606786 L37.04728,48.6606786 Z M1.43513263,45.1406542 L1.43513263,1.48363214 L34.7620905,1.48363214 L34.7620905,30.9222414 C34.7620905,30.9307609 34.7645642,30.9392803 34.7645642,30.9472986 C30.5691958,31.9891736 27.4434484,35.8204075 27.4434484,40.3858149 C27.4434484,42.1132529 27.8946484,43.7329452 28.6768274,45.1406542 L1.43513263,45.1406542 Z M37.04728,30.6581394 C36.7603326,30.6581394 36.4778379,30.6766816 36.1968274,30.7017388 L36.1968274,0.756975628 C36.1968274,0.355560548 35.8757432,0.0303191165 35.4794589,0.0303191165 L0.717269474,0.0303191165 C0.32148,0.0303191165 -9.89473684e-05,0.355560548 -9.89473684e-05,0.756975628 L-9.89473684e-05,45.8673107 C-9.89473684e-05,46.2687258 0.32148,46.5939673 0.717269474,46.5939673 L29.49908,46.5939673 C29.5495432,46.5939673 29.5985221,46.5884547 29.6460168,46.5784318 C31.4092589,48.7363511 34.0719326,50.1139916 37.04728,50.1139916 C42.3424484,50.1139916 46.6506168,45.7500434 46.6506168,40.3858149 C46.6506168,35.0220876 42.3424484,30.6581394 37.04728,30.6581394 L37.04728,30.6581394 Z" id="Fill-1" fill="#273043" mask="url(#mask-2)"></path>
                        </g>
                        <mask id="mask-4" fill="white">
                            <use xlink:href="#path-3"></use>
                        </mask>
                        <g id="Clip-5"></g>
                        <path d="M5.66275789,15.3357098 L29.8410421,15.3357098 L29.8410421,6.73309901 L5.66275789,6.73309901 L5.66275789,15.3357098 Z M31.2762737,16.0623663 L31.2762737,6.0064425 C31.2762737,5.60502742 30.9546947,5.27978599 30.5589053,5.27978599 L4.94538947,5.27978599 C4.54910526,5.27978599 4.22802105,5.60502742 4.22802105,6.0064425 L4.22802105,16.0623663 C4.22802105,16.4637814 4.54910526,16.7890228 4.94538947,16.7890228 L30.5589053,16.7890228 C30.9546947,16.7890228 31.2762737,16.4637814 31.2762737,16.0623663 L31.2762737,16.0623663 Z" id="Fill-4" fill="#273043" mask="url(#mask-4)"></path>
                        <path d="M29.2315263,22.0066672 L6.27276842,22.0066672 C5.87648421,22.0066672 5.5554,22.3319086 5.5554,22.7333237 C5.5554,23.1347388 5.87648421,23.4599802 6.27276842,23.4599802 L29.2315263,23.4599802 C29.6278105,23.4599802 29.9488947,23.1347388 29.9488947,22.7333237 C29.9488947,22.3319086 29.6278105,22.0066672 29.2315263,22.0066672" id="Fill-6" fill="#273043" mask="url(#mask-4)"></path>
                        <path d="M29.2315263,29.335374 L6.27276842,29.335374 C5.87648421,29.335374 5.5554,29.6606154 5.5554,30.0620305 C5.5554,30.4634455 5.87648421,30.788687 6.27276842,30.788687 L29.2315263,30.788687 C29.6278105,30.788687 29.9488947,30.4634455 29.9488947,30.0620305 C29.9488947,29.6606154 29.6278105,29.335374 29.2315263,29.335374" id="Fill-7" fill="#273043" mask="url(#mask-4)"></path>
                        <path d="M25.2832789,36.6645819 L6.27252105,36.6645819 C5.87623684,36.6645819 5.55515263,36.9898233 5.55515263,37.3912384 C5.55515263,37.7926535 5.87623684,38.1178949 6.27252105,38.1178949 L25.2832789,38.1178949 C25.6795632,38.1178949 26.0006474,37.7926535 26.0006474,37.3912384 C26.0006474,36.9898233 25.6795632,36.6645819 25.2832789,36.6645819" id="Fill-8" fill="#273043" mask="url(#mask-4)"></path>
                        <path d="M41.15978,37.9634428 L36.1500747,44.1004329 L33.0302642,40.5112509 C32.7690432,40.2095631 32.3158642,40.1799957 32.0180326,40.4461024 C31.7206958,40.7107056 31.6920011,41.1702532 31.9542116,41.4714398 L35.6286221,45.7000795 C35.7651695,45.8569371 35.9610853,45.9466416 36.1668958,45.9466416 L36.1782747,45.9466416 C36.3880432,45.9431336 36.5859379,45.8464131 36.7195168,45.6825395 L42.2650221,38.889554 C42.5178326,38.579848 42.4747905,38.1218038 42.1695379,37.8667223 C41.8637905,37.6106385 41.4116011,37.6547391 41.15978,37.9634428" id="Fill-9" fill="#273043" mask="url(#mask-4)"></path>
                    </g>
                </g>
                <rect id="Rectangle-Copy-37" x="0" y="0" width="64" height="64"></rect>
            </g>
        </g>
    </g>
</svg>