<?xml version="1.0" encoding="UTF-8"?>
<svg width="54px" height="54px" viewBox="0 0 54 54" version="1.1" xmlns="http://www.w3.org/2000/svg" xmlns:xlink="http://www.w3.org/1999/xlink">
    <title>Group 11</title>
    <defs>
        <polygon id="path-1" points="0.000194787155 0.0242708123 6.01298116 0.0242708123 6.01298116 33.392094 0.000194787155 33.392094"></polygon>
        <polygon id="path-3" points="0.191329268 0.120140491 21.5731707 0.120140491 21.5731707 17.9365988 0.191329268 17.9365988"></polygon>
    </defs>
    <g id="LP" stroke="none" stroke-width="1" fill="none" fill-rule="evenodd">
        <g id="lp" transform="translate(-693.000000, -8962.000000)">
            <g id="Group-11" transform="translate(693.000000, 8962.000000)">
                <circle id="Oval" fill="#00A6A6" cx="27" cy="27" r="27"></circle>
                <g id="Group-10" transform="translate(14.270833, 11.000000)">
                    <g id="Group-7" transform="translate(0.729167, 0.000000)">
                        <g id="Group-3" transform="translate(0.000000, 0.686385)">
                            <mask id="mask-2" fill="white">
                                <use xlink:href="#path-1"></use>
                            </mask>
                            <g id="Clip-2"></g>
                            <path d="M2.76674146,31.2608259 L3.24771707,31.2608259 C3.68554634,31.0270812 3.91400976,30.6739776 3.88996098,29.7802062 C3.83832683,27.9308526 3.84822927,26.0573429 3.85883902,24.2449338 C3.86308293,23.4968088 3.86732683,22.7493942 3.86732683,22.0012692 L3.8659122,3.1468141 C3.8659122,2.79655235 3.73576585,2.49389209 3.50942439,2.3155641 C3.3771561,2.211125 3.15293659,2.10242308 2.83110732,2.1827062 C2.62457073,2.23386004 2.14076585,2.35321902 2.14005854,3.30311752 L2.14147317,10.239437 C2.14359512,16.7153718 2.14642439,23.1920171 2.12237561,29.6679519 C2.11813171,30.6292179 2.34376585,31.0114509 2.76674146,31.2608259 L2.76674146,31.2608259 Z M3.7004,33.3922361 L2.2794,33.3922361 L2.0679122,33.2941912 C-0.0101853659,32.3343462 -0.00240487805,30.3208739 0.000424390244,29.6594263 C0.0244731707,23.1870438 0.0216439024,16.7132404 0.0195219512,10.2401474 L0.0181073171,3.30240705 C0.0188146341,1.66051068 0.881741463,0.46763141 2.32608293,0.112396368 C3.20527805,-0.105717949 4.11771707,0.0853985043 4.81866829,0.637433761 C5.5606439,1.22286111 5.9871561,2.13652564 5.98786341,3.14539316 L5.98927805,22.0012692 C5.98927805,22.7529466 5.98503415,23.5053344 5.98079024,24.2577222 C5.97018049,26.0516592 5.96027805,27.9066966 6.01049756,29.7205267 C6.06000976,31.5045171 5.36966829,32.6775032 3.89986341,33.3069797 L3.7004,33.3922361 Z" id="Fill-1" fill="#FFFFFF" mask="url(#mask-2)"></path>
                        </g>
                        <g id="Group-6" transform="translate(7.073171, 1.396855)">
                            <mask id="mask-4" fill="white">
                                <use xlink:href="#path-3"></use>
                            </mask>
                            <g id="Clip-5"></g>
                            <path d="M2.32813415,15.069852 C2.5000122,15.1430304 2.81971951,15.2460486 3.08779268,15.332726 C4.85184146,15.9018125 6.35489024,15.8840507 8.35518293,15.6595422 C12.2418902,15.2226031 15.0980366,13.5473146 17.0884268,10.5398948 C17.8388902,9.40598451 18.5865244,8.18468643 19.1064024,6.83905609 C19.0816463,6.84616079 19.0554756,6.85326549 19.0300122,6.85965972 C16.4030366,7.59428579 14.0002805,7.69588301 11.6816951,7.16871421 C10.1298415,6.81561058 8.87081707,6.00212233 7.65352439,5.21563194 L7.30269512,4.98970246 C5.71264634,3.97088835 4.20959756,3.17445139 2.31328049,2.69062126 L2.31328049,14.3046757 C2.31328049,14.5881533 2.31328049,14.8950764 2.32813415,15.069852 M6.15047561,17.9365988 C4.91762195,17.9365988 3.73640244,17.7802954 2.43847561,17.3618285 C0.506792683,16.7387463 0.191329268,16.3110433 0.191329268,14.3132014 L0.191329268,0.120140491 L1.42842683,0.328308226 C3.8799878,0.741091346 5.91281707,1.57092041 8.44359756,3.19221314 L8.8015,3.42240545 C9.91340244,4.14140118 10.9637683,4.81990011 12.1506463,5.08987874 C14.1162805,5.53747489 16.180939,5.44298237 18.4620366,4.80640118 C18.993939,4.6586234 19.4070122,4.561289 19.8038171,4.4923734 C20.5564024,4.36093643 20.9956463,4.64370353 21.229061,4.90302511 C21.4631829,5.16305716 21.6994268,5.62841506 21.4957195,6.36801442 C20.9284512,8.42198344 19.8915244,10.153399 18.8553049,11.7192751 C16.5296463,15.2346811 13.0758171,17.2737302 8.59071951,17.7774535 C7.7285,17.8740775 6.92923171,17.9358884 6.15047561,17.9365988" id="Fill-4" fill="#FFFFFF" mask="url(#mask-4)"></path>
                        </g>
                    </g>
                </g>
            </g>
        </g>
    </g>
</svg>