<?xml version="1.0" encoding="UTF-8"?>
<svg width="54px" height="54px" viewBox="0 0 54 54" version="1.1" xmlns="http://www.w3.org/2000/svg" xmlns:xlink="http://www.w3.org/1999/xlink">
    <title>Group 19</title>
    <g id="LP" stroke="none" stroke-width="1" fill="none" fill-rule="evenodd">
        <g id="lp" transform="translate(-693.000000, -5606.000000)">
            <g id="Group-19" transform="translate(693.000000, 5606.000000)">
                <circle id="Oval-Copy-11" fill="#00A6A6" cx="27" cy="27" r="27"></circle>
                <path d="M12,41.8692953 C12.1070404,40.6021483 12.1688524,39.3907828 12.3196135,38.1892169 C12.5336943,36.4893855 13.5091186,35.3345555 15.0702498,34.6787447 C16.7670659,33.9671523 18.4782044,33.2887274 20.1795434,32.5876883 C22.4002544,31.6710608 23.1276767,29.2799898 21.8092709,27.2628063 C20.1983885,24.7986161 18.913904,22.2085405 18.5158947,19.2385468 C17.9867232,15.2901136 20.1064243,11.0936785 23.4013081,9.66597087 C28.3447645,7.52516327 33.6387405,10.758235 34.4694341,16.3228272 C35.0370496,20.1265297 33.6696465,23.3558324 31.7753333,26.461511 C31.1692737,27.4542729 30.579044,28.3912531 30.6860843,29.635786 C30.8006628,30.9722831 31.3449103,31.9469536 32.6226107,32.4625566 C34.3616399,33.1643495 36.0901159,33.891018 37.8306528,34.5890419 C39.6073723,35.301388 40.6378245,36.5858726 40.8315525,38.4952619 C40.9431157,39.5965717 40.9898516,40.7046658 41.069755,41.8692953 L12,41.8692953 Z" id="Stroke-1" stroke="#FFFFFF" stroke-width="2.5" stroke-linejoin="round"></path>
            </g>
        </g>
    </g>
</svg>