<?xml version="1.0" encoding="UTF-8"?>
<svg width="54px" height="54px" viewBox="0 0 54 54" version="1.1" xmlns="http://www.w3.org/2000/svg" xmlns:xlink="http://www.w3.org/1999/xlink">
    <title>Group 7</title>
    <g id="LP" stroke="none" stroke-width="1" fill="none" fill-rule="evenodd">
        <g id="001" transform="translate(-693.000000, -830.000000)">
            <g id="Group-7" transform="translate(693.000000, 830.000000)">
                <circle id="Oval" fill="#00A6A6" cx="27" cy="27" r="27"></circle>
                <g id="Group-4" transform="translate(10.000000, 15.000000)" fill="#FFFFFF">
                    <path d="M1.53508772,22.4296615 L33.2420175,22.4296615 L33.2420175,1.53858462 L1.53508772,1.53858462 L1.53508772,22.4296615 Z M34.0095614,23.9681231 L0.76754386,23.9681231 C0.343859649,23.9681231 0,23.6235077 0,23.1988923 L0,0.769353846 C0,0.344123077 0.343859649,0.000123076923 0.76754386,0.000123076923 L34.0095614,0.000123076923 C34.4332456,0.000123076923 34.7771053,0.344123077 34.7771053,0.769353846 L34.7771053,23.1988923 C34.7771053,23.6235077 34.4332456,23.9681231 34.0095614,23.9681231 L34.0095614,23.9681231 Z" id="Fill-1"></path>
                    <path d="M17.5968333,4.73193846 L19.2111316,9.71224615 C19.2406053,9.80270769 19.3247281,9.86424615 19.4199035,9.86424615 L24.6447281,9.86424615 C24.8571842,9.86424615 24.9456053,10.1362462 24.7736754,10.2611692 L20.5466579,13.3387077 C20.4699035,13.3947077 20.4373596,13.4937846 20.4668333,13.5848615 L22.0817456,18.5651692 C22.1474474,18.7676308 21.9159561,18.9356308 21.7440263,18.8107077 L17.5176228,15.7325538 C17.4408684,15.6765538 17.3364825,15.6765538 17.2597281,15.7325538 L13.0327105,18.8107077 C12.8607807,18.9356308 12.6299035,18.7676308 12.6956053,18.5651692 L14.3099035,13.5848615 C14.3393772,13.4937846 14.3074474,13.3947077 14.230693,13.3387077 L10.0030614,10.2611692 C9.83174561,10.1362462 9.92016667,9.86424615 10.1320088,9.86424615 L15.3574474,9.86424615 C15.4520088,9.86424615 15.5361316,9.80270769 15.5656053,9.71224615 L17.1799035,4.73193846 C17.2456053,4.53009231 17.5317456,4.53009231 17.5968333,4.73193846" id="Fill-3"></path>
                </g>
            </g>
        </g>
    </g>
</svg>