<?xml version="1.0" encoding="UTF-8"?>
<svg width="64px" height="64px" viewBox="0 0 64 64" version="1.1" xmlns="http://www.w3.org/2000/svg" xmlns:xlink="http://www.w3.org/1999/xlink">
    <title>Group 51</title>
    <g id="LP" stroke="none" stroke-width="1" fill="none" fill-rule="evenodd">
        <g id="lp" transform="translate(-352.000000, -9182.000000)">
            <g id="Group-51" transform="translate(352.000000, 9182.000000)">
                <g id="Fill-27" transform="translate(10.000000, 8.620690)" fill="#273043">
                    <path d="M36.0828671,49.5574268 L25.3600512,41.2455203 L25.6789086,35.9987696 L26.7275729,37.8185534 C26.85977,38.047733 27.1023788,38.1764637 27.3524145,38.1764637 C27.4727287,38.1764637 27.5940331,38.1472067 27.7064254,38.0843042 C28.0510289,37.8916958 28.1718383,37.4596678 27.9762658,37.1202869 L19.3487982,22.1490055 L22.1387999,20.5540128 L30.421664,33.0511294 C30.6385266,33.3783199 31.0831444,33.4704794 31.41537,33.2564158 C31.7471005,33.0433275 31.8411733,32.6049605 31.6238155,32.27777 L30.2246062,30.1668793 L33.0393639,29.3467088 L34.1355598,31.4907574 C34.2618154,31.7374913 34.5148218,31.8798752 34.7772354,31.8798752 C34.8861619,31.8798752 34.9965736,31.8554944 35.1000537,31.8042947 C35.4535695,31.6282652 35.5966592,31.2035515 35.4179208,30.8549059 L34.4385733,28.9390616 L37.0711268,28.1720413 L38.1049376,30.1932106 C38.2311932,30.4399444 38.4841996,30.5823284 38.7466132,30.5823284 C38.8555396,30.5823284 38.9654563,30.5579476 39.0689364,30.5067479 C39.4229473,30.3307184 39.5655419,29.9060047 39.3872986,29.5568714 L38.4698411,27.7643941 L41.0672411,27.0071261 L47.3914101,42.9531524 L36.0828671,49.5574268 Z M17.7495603,22.2382393 L24.3841695,33.7518339 C24.3807037,33.7737767 24.3752574,33.7942566 24.373772,33.8166869 L24.2688065,35.5418732 L4.85960373,35.5418732 L4.85960373,8.35531727 L24.5044837,8.35531727 L24.5044837,21.5360719 L22.9686212,19.2184319 C22.7601756,18.9039194 22.3378382,18.8049333 22.0066028,18.9936408 L18.0129642,21.2776353 C17.6723215,21.4721941 17.5549781,21.9008088 17.7495603,22.2382393 L17.7495603,22.2382393 Z M2.59096345,42.6191353 C1.95423901,42.6191353 1.43584827,42.1086011 1.43584827,41.4815266 L1.43584827,2.88962682 C1.43584827,2.26255234 1.95423901,1.75201813 2.59096345,1.75201813 L27.1003984,1.75201813 C27.7376179,1.75201813 28.2555135,2.26255234 28.2555135,2.88962682 L28.2555135,27.1963212 L25.9408271,23.7035261 L25.9408271,7.64827372 C25.9408271,7.25769311 25.618999,6.94123017 25.2224078,6.94123017 L4.14167959,6.94123017 C3.74508839,6.94123017 3.42375545,7.25769311 3.42375545,7.64827372 L3.42375545,36.2489167 C3.42375545,36.6394973 3.74508839,36.9559603 4.14167959,36.9559603 L24.1826557,36.9559603 L23.903903,41.5298006 C23.8900397,41.7614183 23.9915393,41.9847466 24.1767142,42.1281057 L24.8099728,42.6191353 L2.59096345,42.6191353 Z M48.9505433,42.9980131 L42.1649224,25.8875592 C42.0297546,25.5452526 41.6504926,25.3628841 41.2925208,25.4667464 L29.6918569,28.8469022 L29.6918569,2.88962682 C29.6918569,1.48236635 28.529315,0.337931034 27.1003984,0.337931034 L2.59096345,0.337931034 C1.16254198,0.337931034 0,1.48236635 0,2.88962682 L0,41.4815266 C0,42.8882995 1.16254198,44.0332224 2.59096345,44.0332224 L26.6052783,44.0332224 C26.6141904,44.0332224 26.6231026,44.0307843 26.6315196,44.0307843 L35.5818056,50.9685882 C35.711527,51.0690371 35.867985,51.1197492 36.0259283,51.1197492 C36.1521839,51.1197492 36.2789347,51.0870789 36.3918221,51.0207631 L48.6480249,43.8630443 C48.9505433,43.6865272 49.0787794,43.3203274 48.9505433,42.9980131 L48.9505433,42.9980131 Z" id="Fill-1"></path>
                </g>
                <rect id="Rectangle" x="0" y="0" width="64" height="64"></rect>
            </g>
        </g>
    </g>
</svg>