<?xml version="1.0" encoding="utf-8"?>
<!-- Generator: Adobe Illustrator 25.1.0, SVG Export Plug-In . SVG Version: 6.00 Build 0)  -->
<svg version="1.1" id="レイヤー_1" xmlns="http://www.w3.org/2000/svg" xmlns:xlink="http://www.w3.org/1999/xlink" x="0px"
	 y="0px" viewBox="0 0 1767 300" style="enable-background:new 0 0 1767 300;" xml:space="preserve">
<style type="text/css">
	.st0{fill:#00325C;}
	.st1{fill:#44C6C5;}
</style>
<g>
	<path class="st0" d="M227,134.2c0-26.7-8.1-52.2-23.3-74c-14.9-21.2-35.6-37.3-59.8-46.5c-2-0.7-4.2,0.2-5.1,2.1l-2.8,6
		c-0.5,1-0.5,2.2-0.1,3.3c0.4,1.1,1.3,1.9,2.3,2.3c1.1,0.4,2.3,0.9,3.6,1.4l-2.6,6.9c-0.6,1.6,0.1,3.4,1.7,4.1l4.4,2
		c1.5,0.7,3.2,0.2,4-1.2l4.1-6.2c15.2,8.4,28,19.9,38.1,34.2c13.6,19.3,20.8,42,20.8,65.7c0,30.3-11.9,58.7-33.5,79.9
		c-21.5,21.1-50.2,32.7-80.7,32.7c-14.8,0-29.3-2.8-43-8.5l2.6-6.9c0.6-1.6-0.1-3.4-1.7-4.1l-4.4-2c-1.5-0.7-3.2-0.2-4.1,1.2
		l-4.1,6.3c-1.1-0.6-2.1-1.2-3-1.7c-1-0.6-2.2-0.7-3.2-0.4c-1.1,0.3-2,1.1-2.5,2.1l-2.8,6c-0.9,1.9-0.2,4.2,1.6,5.3
		c16.6,9.6,37.9,15.9,58.7,17.1l-0.1,9L68.9,269c-2.7,0-5.2,1.2-6.9,3.4l-5.3,6.7c-0.9,1.1-1,2.6-0.4,3.9s1.9,2.1,3.3,2.1h79.2
		c1.4,0,2.7-0.8,3.3-2.1c0.6-1.3,0.5-2.7-0.4-3.9l-5.3-6.7c-1.7-2.1-4.2-3.4-7-3.4l0,0l-23,1.2V261C174.2,255.7,227,200.3,227,134.2
		z"/>
	<g>
		<path class="st0" d="M431.4,98L384,226.2c-1.6,4.3-5.5,7-9.7,7h-0.2c-4.3,0-8.2-3-9.7-7L342,166.4l-22.8,59.8
			c-1.6,4.3-5.5,7-9.7,7h-0.2c-4.3,0-8.2-3-9.7-7l-46-127.4c-2.1-5.5,0.6-11.7,6-13.6c5.3-2.1,11.1,0.6,13.1,6.2l37,101.6l22.8-59.8
			c1.6-4.3,5.5-7,9.7-6.8c4.3-0.2,8.2,2.5,9.7,6.8l22.6,59.8l38-102.5c2.1-5.5,7.8-8.3,13.1-6.2C430.8,86.3,433.5,92.5,431.4,98z"/>
	</g>
	<g>
		<path class="st0" d="M535.6,179.8c0,5.7-4.5,10.4-10.3,10.4h-70.8c4.3,12.8,15.8,21.9,29.6,21.9c4.7,0,13.1-0.4,23-7
			c4.7-3.2,11.1-0.2,13.6,4.9c2.5,5.3-0.2,10.8-4.9,14c-13.6,9.4-24,9.1-31.6,9.1c-28.5,0-51.5-24-51.5-53.4
			c0-29.6,23-53.4,51.5-53.4C508.9,126.5,535.6,145.2,535.6,179.8z M454.5,169.2h59.4c-4.3-14.9-17.5-21.7-29.8-21.7
			C470.3,147.5,458.8,156.7,454.5,169.2z"/>
	</g>
	<g>
		<path class="st1" d="M661.5,215.6c3.5,4.7,2.7,11.3-1.8,14.7c-1.8,1.5-3.9,2.3-6.2,2.3c-3.1,0-6-1.5-8-4L605.6,176l-41.7,53.2
			c-2.1,2.5-4.9,4-8,4c-2.3,0-4.3-0.9-6.2-2.3c-4.5-3.4-5.3-10-1.8-14.7l44.8-57.4l-44.4-57c-3.5-4.7-2.7-11.3,1.8-14.9
			c4.3-3.6,10.7-2.8,14.2,1.9l41.3,52.7l40.5-52.7c3.5-4.7,9.9-5.5,14.2-1.9c4.5,3.6,5.3,10.2,1.8,14.9l-43.5,57L661.5,215.6z"/>
	</g>
	<g>
		<path class="st1" d="M701.8,223.2v52.9c0,5.7-4.5,10.4-10.1,10.4c-5.8,0-10.3-4.7-10.3-10.4v-95.3v-0.2
			c0-29.3,23.2-53.4,51.5-53.4c28.5,0,51.5,24,51.5,53.4c0,29.6-23,53.4-51.5,53.4C721.3,234.1,710.5,230,701.8,223.2z M701.8,180.7
			v0.2c0,17.6,14,32.1,31.2,32.1s31.2-14.5,31.2-32.3c0-17.7-14-32.3-31.2-32.3S701.8,162.8,701.8,180.7z"/>
	</g>
	<g>
		<path class="st1" d="M904.6,180.7v41.7c0,6.2-4.3,10.6-10.3,10.6c-4.1,0-9.9-4.5-9.9-10.6C875.6,230,865.8,233,854,233
			c-29,0-52-22.3-52-52.3s23-53.8,52-53.8C883,126.9,904.6,150.7,904.6,180.7z M884.4,180.7c0-17.9-13.1-33-30.4-33
			c-17.3,0-31.8,15.1-31.8,33s14.6,31.5,31.8,31.5C871.3,212.2,884.4,198.5,884.4,180.7z"/>
	</g>
	<g>
		<path class="st1" d="M990.9,125.1h-24.7V81.2c0-5.6-4.7-10.1-10.5-10.1c-5.7,0-10.2,4.5-10.2,10.1v43.9h-24
			c-5.7,0-10.2,4.5-10.2,10.1c0,5.6,4.7,10.3,10.2,10.3h24v77.1c0,5.6,4.7,10.3,10.2,10.3c5.8,0,10.5-4.6,10.5-10.3v-77.1h24.7
			c5.8,0,10.5-4.6,10.5-10.3C1001.4,129.6,996.7,125.1,990.9,125.1z"/>
	</g>
	<path class="st1" d="M1053.1,169.7L1053.1,169.7c-15.1-5.2-18.7-8.9-18.8-14.8c-0.1-5,4.6-10,15.8-10.2c7-0.2,16.7,2.9,17.2,3.1
		c2.6,0.9,5.4,0.8,7.9-0.3s4.3-3,5.2-5.4c1.8-4.9-1.2-10.3-6.6-12.1c-0.1,0-13.4-3.8-23.5-3.9c-21.1-0.2-36.2,12.5-35.8,29.9
		c0.3,14.1,10.3,25.3,29.7,31.3c15.5,5.3,16.9,10.3,17,15.4c0.2,8-6.1,12.3-16.9,12.3c-7.7,0-15.2-2.8-19.6-4.3
		c-1.3-0.4-2.6-0.6-3.8-0.6c-0.8,0-1.6,0.1-2.4,0.4c-2.6,0.8-4.6,2.5-5.8,4.8c-1.1,2.2-1.2,4.7-0.2,7.1c1,2.4,2.9,4.4,5.4,5.5
		l0.4,0.2c6.7,3.7,15.8,6.1,25.5,5.8c12.1-0.3,22.1-3.8,29-10.1c6.3-5.8,9.7-13,9.5-21.8C1081.7,191.5,1078.1,178.6,1053.1,169.7z"
		/>
	<path class="st1" d="M181,92.9c-24.2-42-78.1-56.4-120.1-32.2c-41.9,24.2-56.4,78-32.2,120c0.7,1.2,1.4,2.3,2.1,3.5
		c0.1,0.1,0.1,0.3,0,0.5l-11.5,19.2c-0.2,0.3,0,0.8,0.4,0.9l34,3.7c0.1,0,0.2,0.1,0.3,0.1c15.2,10.8,33,16.2,50.8,16.2
		c15.1,0,30.3-3.9,44-11.8C190.8,188.7,205.3,134.8,181,92.9z M74.1,142.9c0,2-1.7,3.7-3.7,3.7h-6.8c-2,0-3.7-1.7-3.7-3.7v-7.1
		c0-2,1.7-3.7,3.7-3.7h6.8c2,0,3.7,1.7,3.7,3.7V142.9z M111,142.9c0,2-1.7,3.7-3.7,3.7h-6.8c-2,0-3.7-1.7-3.7-3.7v-7.1
		c0-2,1.7-3.7,3.7-3.7h6.8c2,0,3.7,1.7,3.7,3.7V142.9z M149.1,142.9c0,2-1.7,3.7-3.7,3.7h-6.8c-2,0-3.7-1.7-3.7-3.7v-7.1
		c0-2,1.7-3.7,3.7-3.7h6.8c2,0,3.7,1.7,3.7,3.7V142.9z"/>
</g>
<g>
	<path class="st0" d="M1237,189.4c0,24-19.4,43.4-43.2,43.4s-43.2-19.4-43.2-43.4c0-5.8,4.8-10.8,10.8-10.8s10.8,5,10.8,10.8
		c0,12.1,9.7,21.8,21.6,21.8s21.6-9.7,21.6-21.8c0-11.9-9.7-21.6-21.6-21.6c-23.8,0-43.2-19.2-43.2-43.2c0-23.8,19.4-43.2,43.2-43.2
		s43.2,19.4,43.2,43.2c0,6-4.8,10.8-10.8,10.8c-5.8,0-10.8-4.8-10.8-10.8c0-11.9-9.7-21.6-21.6-21.6s-21.6,9.7-21.6,21.6
		s9.7,21.6,21.6,21.6C1217.6,146.2,1237,165.6,1237,189.4z"/>
	<path class="st0" d="M1245.6,178.6c0-30,24.2-54.2,54-54.2c19.4,0,37.4,10.4,47.1,27c3,5.2,1.1,11.7-3.9,14.7
		c-5.2,2.8-11.7,1.1-14.7-3.9c-5.8-10.2-16.6-16.4-28.5-16.4c-17.9,0-32.8,14.7-32.8,32.8c0,17.9,14.9,32.8,32.8,32.8
		c11.2,0,21.6-5.6,27.6-15.1c3.2-5,9.9-6.3,14.9-3.2c5,3.2,6.3,9.9,3,14.9c-9.9,15.6-27,24.8-45.6,24.8
		C1269.8,232.8,1245.6,208.4,1245.6,178.6z"/>
	<path class="st0" d="M1456.7,171.7v50.1c0,6-5,10.8-10.8,10.8s-10.6-4.8-10.6-10.8v-50.1c0-14.5-11.9-26.1-26.4-26.1
		s-26.1,11.7-26.1,26.1v50.1c0,6-4.8,10.8-10.8,10.8c-5.8,0-10.6-4.8-10.6-10.8V81.2c0-5.8,4.8-10.6,10.6-10.6
		c6,0,10.8,4.8,10.8,10.6V132c7.6-5,16.4-7.8,26.1-7.8C1435.3,124.2,1456.7,145.6,1456.7,171.7z"/>
	<path class="st0" d="M1468.7,178.4c0-30,24.4-54.2,54.2-54.2c30,0,54.2,24.2,54.2,54.2c0,29.8-24.2,54.2-54.2,54.2
		C1493.2,232.6,1468.7,208.2,1468.7,178.4z M1490.1,178.4c0,17.9,14.7,32.8,32.8,32.8s32.8-14.9,32.8-32.8
		c0-18.1-14.7-32.8-32.8-32.8S1490.1,160.2,1490.1,178.4z"/>
	<path class="st0" d="M1588.4,178.4c0-30,24.4-54.2,54.2-54.2c30,0,54.2,24.2,54.2,54.2c0,29.8-24.2,54.2-54.2,54.2
		C1612.8,232.6,1588.4,208.2,1588.4,178.4z M1609.8,178.4c0,17.9,14.7,32.8,32.8,32.8s32.8-14.9,32.8-32.8
		c0-18.1-14.7-32.8-32.8-32.8S1609.8,160.2,1609.8,178.4z"/>
	<path class="st0" d="M1709.1,222V81.4c0-5.8,4.8-10.6,10.8-10.6c5.8,0,10.6,4.8,10.6,10.6V222c0,6-4.8,10.8-10.6,10.8
		C1713.9,232.8,1709.1,228.1,1709.1,222z"/>
</g>
</svg>
