<?xml version="1.0" encoding="UTF-8"?>
<svg width="320px" height="26px" viewBox="0 0 320 26" version="1.1" xmlns="http://www.w3.org/2000/svg" xmlns:xlink="http://www.w3.org/1999/xlink">
    <title>Group 40</title>
    <g id="LP" stroke="none" stroke-width="1" fill="none" fill-rule="evenodd">
        <g id="lp" transform="translate(-118.000000, -24.000000)" fill="#FFFFFF">
            <g id="Group-40" transform="translate(118.000000, 24.000000)">
                <polygon id="Fill-1" points="0 0.529295868 0 19.8192132 11.1402314 19.8192132 11.1402314 17.0730314 3.54697521 17.0730314 3.54697521 0.529295868"></polygon>
                <path d="M16.1267835,11.2765884 L20.6247669,11.2765884 C20.6247669,9.95586116 20.4354116,9.00802645 20.0498248,8.43784463 C19.6668826,7.87083636 19.1696926,7.58521653 18.5614281,7.58521653 C17.8955107,7.58521653 17.353362,7.89939835 16.9254612,8.52300165 C16.4986182,9.15136529 16.2336264,10.0711669 16.1267835,11.2765884 L16.1267835,11.2765884 Z M23.9786843,19.3474645 C22.3675769,19.876919 20.8400397,20.1461421 19.4003041,20.1461421 C18.0351471,20.1461421 16.8371306,19.855762 15.8141884,19.2771174 C14.7875438,18.6979438 13.9994446,17.7955967 13.4456595,16.5616132 C12.894519,15.3308033 12.6141884,13.9947372 12.6141884,12.5502413 C12.6141884,11.2104727 12.852205,9.97067107 13.3208331,8.8398281 C13.790519,7.69734876 14.4707174,6.80134876 15.3677752,6.14812562 C16.2627174,5.4890843 17.367643,5.16273719 18.6788496,5.16273719 C20.2878413,5.16273719 21.5768331,5.74402645 22.5378909,6.91665455 C23.4963041,8.08822479 23.9786843,10.262638 23.9786843,13.4525884 L16.1891967,13.4525884 C16.265362,14.422638 16.457362,15.1885223 16.7662545,15.745481 C17.0793785,16.3093157 17.4967008,16.7546711 18.021924,17.0810182 C18.5439736,17.4121256 19.2532628,17.5750347 20.1355107,17.5750347 C21.2721719,17.5750347 22.551643,17.2629686 23.9786843,16.6388364 L23.9786843,19.3474645 Z" id="Fill-2"></path>
                <polygon id="Fill-4" points="30.682076 19.8189488 25.8127868 5.48506446 29.3957289 5.48506446 32.9453488 15.8377256 36.4674645 5.48506446 38.9290843 5.48506446 34.0476298 19.8189488"></polygon>
                <path d="M43.9049521,11.2765884 L48.4076959,11.2765884 C48.4076959,9.95586116 48.2119934,9.00802645 47.8264066,8.43784463 C47.4471669,7.87083636 46.9462744,7.58521653 46.3369521,7.58521653 C45.6768529,7.58521653 45.1310017,7.89939835 44.7068033,8.52300165 C44.2794314,9.15136529 44.012324,10.0711669 43.9049521,11.2765884 L43.9049521,11.2765884 Z M51.7547372,19.3474645 C50.1478612,19.876919 48.619795,20.1461421 47.1811174,20.1461421 C45.8143736,20.1461421 44.6190017,19.855762 43.592886,19.2771174 C42.5651835,18.6979438 41.7760264,17.7955967 41.2227702,16.5616132 C40.669514,15.3308033 40.392886,13.9947372 40.392886,12.5502413 C40.392886,11.2104727 40.6303736,9.97067107 41.0984727,8.8398281 C41.566043,7.69734876 42.2494149,6.80134876 43.1464727,6.14812562 C44.040357,5.4890843 45.1452826,5.16273719 46.4591339,5.16273719 C48.0686545,5.16273719 49.3518281,5.74402645 50.3176463,6.91665455 C51.2787041,8.08822479 51.7547372,10.262638 51.7547372,13.4525884 L43.9678942,13.4525884 C44.0456463,14.422638 44.2355306,15.1885223 44.5481256,15.745481 C44.8559603,16.3093157 45.2716959,16.7546711 45.7979769,17.0810182 C46.3253157,17.4121256 47.0293157,17.5750347 47.9142083,17.5750347 C49.0508694,17.5750347 50.3292826,17.2629686 51.7547372,16.6388364 L51.7547372,19.3474645 Z" id="Fill-6"></path>
                <path d="M55.3143008,19.8189488 L55.3143008,5.48506446 L58.7279868,5.48506446 L58.7279868,8.20321322 C59.1357884,7.27018843 59.693805,6.53445289 60.3956893,5.9875438 C61.1033917,5.43693223 61.8893752,5.16294876 62.7562843,5.16294876 C62.9657388,5.16294876 63.1757223,5.1719405 63.3904661,5.19838678 L63.3904661,8.66866777 C62.914962,8.47772562 62.4659041,8.38199008 62.0464661,8.38199008 C61.3657388,8.38199008 60.753243,8.57769256 60.2005157,8.96803967 C59.6493752,9.35362645 59.1569455,9.94866777 58.7279868,10.7367669 L58.7279868,19.8189488 L55.3143008,19.8189488 Z" id="Fill-8"></path>
                <path d="M72.2445223,16.2347372 L72.2445223,13.2674645 L71.4352661,13.2674645 C70.3091835,13.2674645 69.4740099,13.4970182 68.9207537,13.9529521 C68.3738446,14.4094149 68.0966876,14.9790678 68.0966876,15.6619107 C68.0966876,16.2188694 68.264357,16.6753322 68.5965223,17.0381752 C68.9276298,17.3978446 69.3211504,17.5750347 69.7691504,17.5750347 C70.1727207,17.5750347 70.5815802,17.4634314 70.9962579,17.2365223 C71.4104066,17.0096132 71.8298446,16.6753322 72.2445223,16.2347372 L72.2445223,16.2347372 Z M72.2164893,18.298076 C71.7245884,18.8322909 71.3014479,19.215762 70.9407207,19.4437289 C70.5815802,19.6806876 70.2033983,19.855762 69.8135802,19.969481 C69.4216463,20.0869025 69.0053818,20.1461421 68.5721917,20.1461421 C67.4445223,20.1461421 66.5384727,19.7457455 65.8603901,18.9507702 C65.1801917,18.1515636 64.8427372,17.1735802 64.8427372,16.0104727 C64.8427372,14.6035306 65.3499769,13.4266711 66.3713322,12.4772496 C67.3921587,11.5336463 69.0439934,11.0629025 71.3331835,11.0629025 L72.2445223,11.0629025 L72.2445223,9.7792 C72.2445223,8.91599339 72.0313653,8.33364628 71.6002909,8.03374545 C71.1718612,7.73754711 70.6233653,7.5846876 69.9622083,7.5846876 C68.6547041,7.5846876 67.3196959,8.00624132 65.9598281,8.8419438 L65.9598281,6.15923306 C67.5005884,5.4954314 69.0350017,5.16273719 70.5620099,5.16273719 C71.4992661,5.16273719 72.3360264,5.3034314 73.0712331,5.58905124 C73.8101421,5.88207603 74.3993653,6.3274314 74.8399603,6.93199339 C75.2810843,7.53972893 75.5048198,8.44366281 75.5048198,9.64749752 L75.5048198,15.9961917 C75.5048198,16.7726545 75.6069025,17.2502744 75.8184727,17.4221752 C76.0279273,17.5972496 76.2379107,17.6834645 76.4468364,17.6834645 C76.570605,17.6834645 76.7208198,17.6718281 76.9085884,17.6448529 L76.9694149,19.784886 C76.250605,20.026605 75.610076,20.1461421 75.048357,20.1461421 C74.4194645,20.1461421 73.8762579,20.026605 73.4213818,19.7912331 C72.9638612,19.5532165 72.6126545,19.0597289 72.367762,18.298076 L72.2164893,18.298076 Z" id="Fill-10"></path>
                <path d="M87.7564298,14.4883835 L87.7564298,9.17585455 C87.2729917,8.54537521 86.8255207,8.12170579 86.4150744,7.91013554 C86.0009256,7.69168926 85.6037025,7.58484628 85.2202314,7.58484628 C84.3829421,7.58484628 83.7106777,8.03390413 83.210843,8.92249917 C82.7073058,9.82061488 82.457124,11.0233917 82.457124,12.5445818 C82.457124,13.8483835 82.6575868,14.8723835 83.0622149,15.6239868 C83.4679008,16.3676562 84.0454876,16.7416066 84.8013223,16.7416066 C85.3413554,16.7416066 85.8602314,16.5554248 86.3516033,16.1820033 C86.8429752,15.8027636 87.3084298,15.2384 87.7564298,14.4883835 M79.9685289,24.233838 L80.2557355,21.4464 C81.6420496,22.1704992 82.9643636,22.5359868 84.2147438,22.5359868 C85.3921322,22.5359868 86.2764959,22.2493091 86.8678347,21.6891769 C87.456,21.1253421 87.7564298,20.1272595 87.7564298,18.6864661 L87.7564298,16.7416066 C87.3893554,17.6450116 86.8636033,18.3913256 86.1638347,18.9620364 C85.4672397,19.5327471 84.6405289,19.8188959 83.6789421,19.8188959 C82.7073058,19.8188959 81.8483306,19.5401521 81.1115372,18.985838 C80.3768595,18.4267636 79.8056198,17.5884165 79.4120992,16.4702678 C79.0164628,15.3558215 78.8197025,14.1059702 78.8197025,12.7286479 C78.8197025,10.5796231 79.2936198,8.78286281 80.2446281,7.33466446 C81.1972231,5.89122645 82.5184793,5.16289587 84.2041653,5.16289587 C84.654281,5.16289587 85.066843,5.21578843 85.4413223,5.3162843 C85.8110413,5.42259835 86.1680661,5.58233388 86.5123967,5.79866446 C86.8519669,6.01869752 87.2687603,6.39211901 87.7564298,6.91681322 L88.1086942,5.4855405 L91.1690579,5.4855405 L91.1690579,16.4025653 C91.1690579,19.2862678 90.9215207,21.225838 90.4322645,22.2276231 C89.9387769,23.2278215 89.190876,23.9773091 88.1785124,24.482962 C87.1719669,24.9939041 86.0120331,25.2472595 84.6997686,25.2472595 C83.2362314,25.2472595 81.6573884,24.9124496 79.9685289,24.233838" id="Fill-12"></path>
                <path d="M97.8046942,11.2765884 L102.30638,11.2765884 C102.30638,9.95586116 102.112264,9.00802645 101.727207,8.43784463 C101.345851,7.87083636 100.844959,7.58521653 100.234579,7.58521653 C99.5750083,7.58521653 99.0307438,7.89939835 98.602843,8.52300165 C98.1791736,9.15136529 97.913124,10.0711669 97.8046942,11.2765884 L97.8046942,11.2765884 Z M105.658182,19.3474645 C104.043901,19.876919 102.522711,20.1461421 101.08086,20.1461421 C99.7130579,20.1461421 98.5187438,19.855762 97.4958017,19.2771174 C96.4643967,18.6979438 95.6747107,17.7955967 95.1235702,16.5616132 C94.5724298,15.3308033 94.2947438,13.9947372 94.2947438,12.5502413 C94.2947438,11.2104727 94.5306446,9.97067107 94.997686,8.8398281 C95.4694876,7.69734876 96.1507438,6.80134876 97.045686,6.14812562 C97.9432727,5.4890843 99.043438,5.16273719 100.360463,5.16273719 C101.967339,5.16273719 103.254744,5.74402645 104.215802,6.91665455 C105.17686,8.08822479 105.658182,10.262638 105.658182,13.4525884 L97.8713388,13.4525884 C97.9432727,14.422638 98.1400331,15.1885223 98.446281,15.745481 C98.7572893,16.3093157 99.1735537,16.7546711 99.7008926,17.0810182 C100.225587,17.4121256 100.930645,17.5750347 101.815008,17.5750347 C102.950083,17.5750347 104.232727,17.2629686 105.658182,16.6388364 L105.658182,19.3474645 Z" id="Fill-14"></path>
                <path d="M108.86363,19.3473587 L108.86363,16.5207802 C110.548258,17.3242182 111.992225,17.716681 113.183894,17.716681 C113.823894,17.716681 114.328489,17.5680529 114.709845,17.2633917 C115.089613,16.9576727 115.278969,16.5747306 115.278969,16.1034579 C115.278969,15.6935405 115.137745,15.3523835 114.853712,15.0757554 C114.572853,14.8017719 114.139134,14.5373091 113.556787,14.2739041 L112.404258,13.7566149 C111.222638,13.2197554 110.34515,12.6210116 109.776555,11.9667306 C109.212192,11.3267306 108.925514,10.4883835 108.925514,9.45274711 C108.925514,8.20924298 109.356588,7.18259835 110.210274,6.37545785 C111.067663,5.5672595 112.370936,5.16316033 114.130142,5.16316033 C115.155729,5.16316033 116.381779,5.32818512 117.796655,5.66987107 L117.796655,8.38220165 C116.431498,7.85539174 115.296423,7.58511074 114.396721,7.58511074 C113.691663,7.58511074 113.162208,7.72210248 112.809944,7.99820165 C112.453448,8.27271405 112.277845,8.62392066 112.277845,9.05975537 C112.277845,9.39668099 112.394737,9.6981686 112.622175,9.9605157 C112.844853,10.2244496 113.252655,10.4799207 113.843464,10.7322182 L114.834142,11.160119 C116.46482,11.8651769 117.534307,12.5448463 118.038902,13.2060033 C118.537679,13.8782678 118.78839,14.6780033 118.78839,15.6062678 C118.78839,16.8148628 118.329812,17.8748298 117.415299,18.7824661 C116.500258,19.6916893 115.164721,20.1460364 113.417679,20.1460364 C111.93034,20.1460364 110.412853,19.8768132 108.86363,19.3473587" id="Fill-16"></path>
                <path d="M143.187464,16.6288397 C142.773845,17.3677488 142.26396,17.9876496 141.656754,18.4896 C141.050076,18.9904926 140.359299,19.364443 139.58601,19.6103934 C138.811663,19.8568727 137.993944,19.9795835 137.132324,19.9795835 C136.094043,19.9795835 135.157845,19.8039802 134.322142,19.4522446 C133.48644,19.1005091 132.734836,18.5906248 132.066803,17.9215339 C131.591828,17.4470876 131.22634,16.9414347 130.971398,16.4045752 C130.716456,15.8687736 130.536093,15.2927736 130.430307,14.6771041 C130.32558,14.0614347 130.263167,13.4013355 130.246241,12.6978645 C130.228787,11.9943934 130.219795,11.2380298 130.219795,10.4287736 C130.219795,9.62004628 130.228787,8.86368264 130.246241,8.15968264 C130.263167,7.45621157 130.32558,6.79664132 130.430307,6.1809719 C130.536093,5.5658314 130.716456,4.98930248 130.971398,4.45244298 C131.22634,3.91664132 131.591828,3.41098843 132.066803,2.9354843 C132.734836,2.26745124 133.48644,1.75756694 134.322142,1.4058314 C135.157845,1.05409587 136.094043,0.877963636 137.132324,0.877963636 C138.011398,0.877963636 138.833878,1.00067438 139.599233,1.24715372 C140.36406,1.49416198 141.050076,1.86705455 141.656754,2.36847603 C142.26396,2.8693686 142.773845,3.48979835 143.187464,4.22870744 C143.600555,4.9670876 143.886175,5.82923636 144.044853,6.81409587 L140.32439,6.81409587 C140.130803,6.05826116 139.78806,5.42460826 139.29563,4.91472397 C138.8032,4.40483967 138.090737,4.1493686 137.15877,4.1493686 C136.648357,4.1493686 136.195597,4.23769917 135.79996,4.41330248 C135.403795,4.58890579 135.074274,4.82692231 134.81034,5.12576529 C134.634208,5.31935207 134.484522,5.53462479 134.361812,5.7721124 C134.239101,6.0096 134.141779,6.32219504 134.07196,6.70883967 C134.001084,7.09601322 133.952952,7.58844298 133.926506,8.18612893 C133.90006,8.7843438 133.886836,9.5317157 133.886836,10.4287736 C133.886836,11.3263603 133.90006,12.0737322 133.926506,12.6719471 C133.952952,13.2691041 134.001084,13.7620628 134.07196,14.1492364 C134.141779,14.535881 134.239101,14.8479471 134.361812,15.0854347 C134.484522,15.3229223 134.634208,15.538724 134.81034,15.7317818 C135.074274,16.0311537 135.403795,16.2686413 135.79996,16.4442446 C136.195597,16.6203769 136.648357,16.7081785 137.15877,16.7081785 C138.090737,16.7081785 138.8032,16.4532364 139.29563,15.9428231 C139.78806,15.4329388 140.130803,14.7998149 140.32439,14.0434512 L144.044853,14.0434512 C143.886175,15.0288397 143.600555,15.8904595 143.187464,16.6288397" id="Fill-18"></path>
                <path d="M154.703974,14.0172694 L152.001693,14.0172694 C151.389197,14.0172694 150.917395,14.1537322 150.58523,14.4256 C150.252536,14.6985256 150.086982,15.0814678 150.086982,15.5733686 C150.086982,16.0488727 150.248304,16.430757 150.572007,16.7211372 C150.89518,17.0115174 151.389726,17.1569719 152.054056,17.1569719 C152.526387,17.1569719 152.92837,17.1215339 153.260536,17.0506579 C153.592701,16.9813686 153.907412,16.7962446 154.205726,16.4968727 C154.537891,16.1805752 154.703974,15.5998149 154.703974,14.7556496 L154.703974,14.0172694 Z M154.782783,19.8216992 L154.782783,18.6342612 C154.32685,19.0917818 153.84923,19.4260628 153.349395,19.6365752 C152.850089,19.8476165 152.205329,19.9534017 151.416701,19.9534017 C149.891808,19.9534017 148.726056,19.5493025 147.919445,18.7400463 C147.550783,18.3528727 147.270453,17.8953521 147.077395,17.3680132 C146.884866,16.8401455 146.788602,16.2689058 146.788602,15.6527074 C146.788602,15.107914 146.884866,14.5932694 147.077395,14.1093025 C147.270453,13.6258645 147.559246,13.2037818 147.945362,12.8425256 C148.330949,12.4828562 148.818089,12.1967074 149.405197,11.9851372 C149.992304,11.7746248 150.680436,11.6688397 151.469064,11.6688397 L154.703974,11.6688397 L154.703974,10.9828231 C154.703974,10.2269884 154.505626,9.67690579 154.10999,9.33416198 C153.714354,8.99088926 153.059015,8.81951736 152.144502,8.81951736 C151.810221,8.81951736 151.519841,8.84173223 151.273891,8.88563306 C151.027412,8.92953388 150.803147,8.99512066 150.601098,9.08345124 C150.398519,9.17125289 150.209164,9.28602975 150.03356,9.42619504 C149.857957,9.56741818 149.681825,9.74302149 149.505693,9.95353388 L147.316469,7.81667438 C147.984502,7.07829421 148.692205,6.57687273 149.440106,6.31293884 C150.187478,6.04953388 151.133197,5.91730248 152.276205,5.91730248 C154.21366,5.91730248 155.678255,6.32193058 156.671048,7.13065785 C157.663841,7.93991405 158.159974,9.15379835 158.159974,10.7717818 L158.159974,19.8216992 L154.782783,19.8216992 Z" id="Fill-20"></path>
                <path d="M169.554724,9.82204298 C169.29079,9.55810909 169.027385,9.3560595 168.763451,9.21536529 C168.499517,9.07467107 168.156245,9.00379504 167.734691,9.00379504 C167.470757,9.00379504 167.206823,9.05298512 166.943418,9.14977851 C166.678955,9.24604298 166.441468,9.39996033 166.230426,9.61100165 C166.019385,9.82204298 165.848013,10.0859769 165.715782,10.4028033 C165.584079,10.7191008 165.517964,11.0972826 165.517964,11.5368198 L165.517964,19.8213818 L162.08841,19.8213818 L162.08841,6.07566281 L165.439154,6.07566281 L165.439154,7.39480331 C165.772906,6.99017521 166.247881,6.64267107 166.86355,6.35229091 C167.47922,6.06243967 168.156245,5.91698512 168.895154,5.91698512 C169.563716,5.91698512 170.152939,6.01430744 170.663352,6.20736529 C171.173236,6.40095207 171.665666,6.73523306 172.140641,7.21020826 L169.554724,9.82204298 Z" id="Fill-22"></path>
                <path d="M181.543352,10.8907372 C181.499451,10.6707041 181.424873,10.4379769 181.319088,10.1914975 C181.125501,9.78686942 180.839881,9.44835702 180.461699,9.1754314 C180.082988,8.90303471 179.604311,8.7665719 179.02355,8.7665719 C178.443319,8.7665719 177.963583,8.90303471 177.585931,9.1754314 C177.207749,9.44835702 176.9216,9.78686942 176.728013,10.1914975 C176.622757,10.4379769 176.54765,10.6707041 176.504278,10.8907372 C176.459848,11.1107702 176.42917,11.3699438 176.411716,11.6687868 L181.635914,11.6687868 C181.61846,11.3699438 181.587253,11.1107702 181.543352,10.8907372 L181.543352,10.8907372 Z M176.411716,14.0172165 C176.411716,14.9137455 176.670889,15.6484231 177.190294,16.2201917 C177.708641,16.7914314 178.451782,17.0775802 179.419716,17.0775802 C180.17555,17.0775802 180.773765,16.971795 181.213831,16.7612826 C181.65284,16.5497124 182.092906,16.2249521 182.532972,15.784886 L184.617468,17.8164893 C184.265203,18.1687537 183.913468,18.4760595 183.561732,18.7399934 C183.209468,19.0033983 182.827583,19.2276628 182.413964,19.4122579 C182.000344,19.5973818 181.547583,19.738605 181.055154,19.8343405 C180.562724,19.9311339 180.008939,19.979795 179.393269,19.979795 C178.584013,19.979795 177.796972,19.8740099 177.032145,19.6629686 C176.266261,19.4524562 175.589236,19.0785058 175.000542,18.5416463 C174.41079,18.0053157 173.935815,17.284919 173.575617,16.3783405 C173.214889,15.4728198 173.034526,14.3245223 173.034526,12.9350347 C173.034526,11.809481 173.179451,10.8113983 173.469831,9.94025785 C173.760212,9.07017521 174.169071,8.33549752 174.696939,7.73781157 C175.224807,7.13959669 175.85317,6.68683636 176.583088,6.37900165 C177.313005,6.07116694 178.126493,5.91724959 179.02355,5.91724959 C179.973501,5.91724959 180.822426,6.08439008 181.569798,6.41867107 C182.31717,6.75295207 182.945534,7.2099438 183.455947,7.79070413 C183.96636,8.37040661 184.353005,9.06118347 184.617468,9.86144793 C184.880873,10.6617124 185.013104,11.5370843 185.013104,12.4870347 L185.013104,14.0172165 L176.411716,14.0172165 Z" id="Fill-24"></path>
                <path d="M195.975193,10.8907372 C195.930764,10.6707041 195.856185,10.4379769 195.750929,10.1914975 C195.556813,9.78686942 195.271193,9.44835702 194.893012,9.1754314 C194.51483,8.90303471 194.035623,8.7665719 193.454863,8.7665719 C192.87516,8.7665719 192.395425,8.90303471 192.017772,9.1754314 C191.639061,9.44835702 191.353441,9.78686942 191.159855,10.1914975 C191.054069,10.4379769 190.979491,10.6707041 190.93559,10.8907372 C190.891689,11.1107702 190.860483,11.3699438 190.843557,11.6687868 L196.067226,11.6687868 C196.049772,11.3699438 196.018565,11.1107702 195.975193,10.8907372 L195.975193,10.8907372 Z M190.843557,14.0172165 C190.843557,14.9137455 191.102731,15.6484231 191.621607,16.2201917 C192.139954,16.7914314 192.883623,17.0775802 193.851028,17.0775802 C194.606863,17.0775802 195.205078,16.971795 195.645144,16.7612826 C196.084681,16.5497124 196.524218,16.2249521 196.964284,15.784886 L199.049309,17.8164893 C198.697045,18.1687537 198.34478,18.4760595 197.993045,18.7399934 C197.641309,19.0033983 197.258896,19.2276628 196.845805,19.4122579 C196.432185,19.5973818 195.979425,19.738605 195.486995,19.8343405 C194.994565,19.9311339 194.44078,19.979795 193.825111,19.979795 C193.015326,19.979795 192.228284,19.8740099 191.463458,19.6629686 C190.698102,19.4524562 190.021078,19.0785058 189.431855,18.5416463 C188.842102,18.0053157 188.367127,17.284919 188.007458,16.3783405 C187.646202,15.4728198 187.466367,14.3245223 187.466367,12.9350347 C187.466367,11.809481 187.611293,10.8113983 187.901144,9.94025785 C188.192053,9.07017521 188.600912,8.33549752 189.12878,7.73781157 C189.656119,7.13959669 190.284483,6.68683636 191.014929,6.37900165 C191.744317,6.07116694 192.558334,5.91724959 193.454863,5.91724959 C194.405342,5.91724959 195.253739,6.08439008 196.00164,6.41867107 C196.749012,6.75295207 197.377375,7.2099438 197.887788,7.79070413 C198.397673,8.37040661 198.784846,9.06118347 199.049309,9.86144793 C199.312714,10.6617124 199.444417,11.5370843 199.444417,12.4870347 L199.444417,14.0172165 L190.843557,14.0172165 Z" id="Fill-26"></path>
                <path d="M210.285117,9.82204298 C210.021183,9.55810909 209.757779,9.3560595 209.493845,9.21536529 C209.229911,9.07467107 208.886638,9.00379504 208.465084,9.00379504 C208.20115,9.00379504 207.937217,9.05298512 207.673283,9.14977851 C207.409349,9.24604298 207.171861,9.39996033 206.96082,9.61100165 C206.74925,9.82204298 206.577878,10.0859769 206.446175,10.4028033 C206.313944,10.7191008 206.248357,11.0972826 206.248357,11.5368198 L206.248357,19.8213818 L202.818803,19.8213818 L202.818803,6.07566281 L206.169547,6.07566281 L206.169547,7.39480331 C206.503299,6.99017521 206.978274,6.64267107 207.593944,6.35229091 C208.209613,6.06243967 208.886638,5.91698512 209.625547,5.91698512 C210.294109,5.91698512 210.883332,6.01430744 211.393217,6.20736529 C211.903101,6.40095207 212.39606,6.73523306 212.871035,7.21020826 L210.285117,9.82204298 Z" id="Fill-28"></path>
                <polygon id="Fill-30" points="226.891002 20.2274909 220.270969 2.31595372 224.25325 2.31595372 229.384886 16.1727471 234.346208 2.31595372 237.033679 2.31595372 230.630506 20.2274909"></polygon>
                <path d="M239.134149,20.2272793 L242.716562,20.2272793 L242.716562,6.93908099 L239.134149,6.93908099 L239.134149,20.2272793 Z M239.134149,4.70013884 L242.716562,4.70013884 L242.716562,1.71065124 L239.134149,1.71065124 L239.134149,4.70013884 Z" id="Fill-32"></path>
                <path d="M249.290261,12.2765752 L254.058526,12.2765752 C254.058526,10.0090711 253.328608,8.87558347 251.868245,8.87558347 C250.38355,8.87558347 249.524046,10.0090711 249.290261,12.2765752 L249.290261,12.2765752 Z M257.580641,19.779914 C255.87803,20.2797488 254.263749,20.5299306 252.739385,20.5299306 C250.520542,20.5299306 248.770327,19.9005091 247.486625,18.6416661 C246.20398,17.3828231 245.562922,15.6648727 245.562922,13.486757 C245.562922,11.4287074 246.149501,9.77317025 247.323716,8.5190876 C248.497402,7.26341818 250.04874,6.6361124 251.976674,6.6361124 C253.921534,6.6361124 255.341699,7.24966612 256.23717,8.4757157 C257.132641,9.70229421 257.580641,11.6429223 257.580641,14.2976 L249.338922,14.2976 C249.58117,16.8306248 250.972245,18.0974017 253.513732,18.0974017 C254.71598,18.0974017 256.071617,17.8191868 257.580641,17.262757 L257.580641,19.779914 Z" id="Fill-34"></path>
                <path d="M267.55676,20.1546579 C266.700959,20.4048397 266.026579,20.5296661 265.535736,20.5296661 C262.429355,20.5296661 260.875901,19.0777653 260.875901,16.1729058 L260.875901,9.17786446 L259.387504,9.17786446 L259.387504,6.93945124 L260.875901,6.93945124 L260.875901,4.69998017 L264.458843,4.28847603 L264.458843,6.93945124 L267.302347,6.93945124 L267.302347,9.17786446 L264.458843,9.17786446 L264.458843,15.7005752 C264.458843,17.330724 265.123174,18.1457983 266.455008,18.1457983 C266.761256,18.1457983 267.128331,18.0892033 267.55676,17.9765421 L267.55676,20.1546579 Z" id="Fill-35"></path>
                <path d="M270.014942,20.2274909 L270.014942,6.93929256 L273.596826,6.93929256 L273.596826,9.44375537 C274.76681,7.57241653 276.276364,6.63621818 278.123901,6.63621818 C279.309223,6.63621818 280.24595,7.01175537 280.931967,7.7617719 C281.617455,8.51231736 281.960198,9.53684628 281.960198,10.8358876 L281.960198,20.2274909 L278.377785,20.2274909 L278.377785,11.7191934 C278.377785,10.2112264 277.877421,9.45697851 276.877223,9.45697851 C275.739504,9.45697851 274.646744,10.2593587 273.596826,11.864119 L273.596826,20.2274909 L270.014942,20.2274909 Z" id="Fill-36"></path>
                <path d="M292.341369,16.8752661 L292.341369,14.1761587 L291.493501,14.1761587 C289.177864,14.1761587 288.020575,14.9029025 288.020575,16.3548033 C288.020575,16.8467041 288.187716,17.2608529 288.522526,17.5951339 C288.856807,17.9299438 289.270426,18.0976132 289.763385,18.0976132 C290.602261,18.0976132 291.461236,17.6898116 292.341369,16.8752661 L292.341369,16.8752661 Z M292.341369,18.7994975 C291.146526,19.9530843 289.867583,20.5296132 288.504542,20.5296132 C287.343021,20.5296132 286.398889,20.1752331 285.672145,19.464886 C284.945931,18.7550678 284.583088,17.8352661 284.583088,16.705481 C284.583088,15.2371835 285.169137,14.1058116 286.343881,13.3113653 C287.518096,12.5163901 289.197964,12.118638 291.384013,12.118638 L292.341369,12.118638 L292.341369,10.9089851 C292.341369,9.52901818 291.554327,8.83929917 289.980774,8.83929917 C288.584939,8.83929917 287.173236,9.23493554 285.744608,10.0251504 L285.744608,7.55612562 C287.366823,6.94310083 288.972641,6.63632397 290.562063,6.63632397 C294.038691,6.63632397 295.777798,8.01999339 295.777798,10.7873322 L295.777798,16.6689851 C295.777798,17.7099107 296.112079,18.2309025 296.782228,18.2309025 C296.902823,18.2309025 297.060443,18.2145058 297.253501,18.1827702 L297.339187,20.1911008 C296.581236,20.4164231 295.911088,20.5296132 295.329798,20.5296132 C293.861501,20.5296132 292.917369,19.9530843 292.49846,18.7994975 L292.341369,18.7994975 Z" id="Fill-37"></path>
                <path d="M299.791286,20.2274909 L299.791286,6.93929256 L303.228245,6.93929256 L303.228245,9.44375537 C304.276575,7.57241653 305.770261,6.63621818 307.706658,6.63621818 C308.706327,6.63621818 309.529864,6.88269752 310.175683,7.37406942 C310.820972,7.86649917 311.216079,8.55727603 311.361005,9.44375537 C312.603451,7.57241653 314.104542,6.63621818 315.86322,6.63621818 C318.292046,6.63621818 319.50646,7.97598678 319.50646,10.6539372 L319.50646,20.2274909 L316.068443,20.2274909 L316.068443,11.8281521 C316.068443,10.2551273 315.544278,9.46861488 314.495947,9.46861488 C313.422228,9.46861488 312.3776,10.242962 311.361005,11.7921851 L311.361005,20.2274909 L307.924046,20.2274909 L307.924046,11.8281521 C307.924046,10.2471934 307.396179,9.45697851 306.339385,9.45697851 C305.281534,9.45697851 304.24484,10.2344992 303.228245,11.7921851 L303.228245,20.2274909 L299.791286,20.2274909 Z" id="Fill-38"></path>
            </g>
        </g>
    </g>
</svg>