<?xml version="1.0" encoding="UTF-8"?>
<svg width="921px" height="277px" viewBox="0 0 921 277" version="1.1" xmlns="http://www.w3.org/2000/svg" xmlns:xlink="http://www.w3.org/1999/xlink">
    <title>Group 80</title>
    <g id="LP" stroke="none" stroke-width="1" fill="none" fill-rule="evenodd">
        <g id="lp" transform="translate(-284.000000, -150.000000)">
            <g id="Group-80" transform="translate(284.842993, 150.000000)">
                <g id="Group-77" transform="translate(0.161936, 0.000000)">
                    <path d="M454.315249,61.9916687 C454.315249,96.2280143 426.538712,123.982864 392.273499,123.982864 C358.009233,123.982864 330.231749,96.2280143 330.231749,61.9916687 C330.231749,27.7543765 358.009233,0.000473309171 392.273499,0.000473309171 C426.538712,0.000473309171 454.315249,27.7543765 454.315249,61.9916687" id="Fill-1" fill="#00A6A6"></path>
                    <path d="M616.689139,183.617358 C616.244813,217.851811 588.110162,245.244106 553.847791,244.800142 C519.586368,244.356178 492.170787,216.244453 492.61606,182.010947 C493.060386,147.776495 521.195037,120.383253 555.45646,120.828164 C589.718831,121.272128 617.133465,149.383853 616.689139,183.617358" id="Fill-3" fill="#00A6A6"></path>
                    <path d="M80.4495438,115.936892 C71.8661875,100.630074 59.4714799,86.0890692 44.4146056,76.7875974 C28.0503326,66.6786601 12.4742883,84.871718 3.66545315,96.906077 C1.57740488,99.7572915 11.9664871,100.989789 14.1691696,97.9795422 C18.3291605,92.2960457 23.1447455,87.1227765 28.5884503,82.6443251 C32.0530567,79.7940573 33.1577138,78.5416812 36.8894843,80.9849031 C39.5317559,82.7153215 42.0423402,84.7297253 44.4676594,86.7498088 C54.8823212,95.4217795 63.4268345,105.937763 70.0462507,117.742093 C71.8188179,120.904745 82.4182208,119.449793 80.4495438,115.936892" id="Fill-5" fill="#FFFFFF"></path>
                    <path d="M66.9381472,69.8336444 C65.9670722,67.3601307 64.8084138,64.9774923 63.5161734,62.6573307 C61.7426587,59.4729066 51.129045,60.6372472 53.0560369,64.0971372 C54.2715387,66.2819324 55.3733536,68.5178449 56.3065331,70.8389531 C57.2567656,73.2007658 57.5343509,75.913774 59.6280835,77.4927334 C61.6469723,79.0148957 66.5194007,79.3963829 68.0778578,76.9408549 C69.4155729,74.8336825 67.7794298,71.9767883 66.9381472,69.8336444" id="Fill-7" fill="#FFFFFF"></path>
                    <path d="M84.1003124,70.7313226 C82.7834398,66.7952835 81.2941422,62.9094152 79.8815833,59.0055612 C78.5107095,55.2190878 67.9709922,57.0526875 69.0955445,60.1594889 C70.5933686,64.2999975 72.0315071,68.4698513 73.6297545,72.5724952 C74.8073607,75.594101 85.1272835,73.8049923 84.1003124,70.7313226" id="Fill-9" fill="#FFFFFF"></path>
                    <path d="M153.720522,91.1870823 C146.170768,86.3924604 136.567072,83.6728259 128.289723,80.2829856 C126.561683,79.5758617 124.119311,79.205734 122.126002,79.7481463 C121.485566,72.1184024 121.167243,64.4375412 121.349142,56.6090075 C121.435354,52.9134095 110.592472,52.9209824 110.50247,56.7642529 C110.051512,76.1065055 111.103115,96.5771272 116.18018,115.341943 C117.148413,118.919213 127.409598,118.737463 126.832637,115.18859 C125.185125,105.050308 123.656037,95.072004 122.622434,85.0397428 C130.569144,88.4210635 138.739438,92.5596789 147.030051,94.6507588 C148.74767,95.08431 151.406994,95.2244095 152.992926,94.1802895 C153.948843,93.5517349 155.216451,92.1384337 153.720522,91.1870823" id="Fill-11" fill="#FFFFFF"></path>
                    <path d="M223.047514,62.7857868 C217.119692,62.6863919 211.042183,63.5127897 205.038571,64.4906465 C205.180679,59.119534 204.948569,53.7417952 204.346976,48.4208535 C203.901703,44.481028 193.122295,44.4119248 193.513568,47.8708682 C194.215584,54.0816312 194.372851,60.2299173 194.044106,66.3081537 C185.222008,67.7006293 176.43212,69.2691759 167.673497,71.0156867 C165.759768,71.3971739 164.12931,72.8152082 165.540921,74.6194627 C167.002744,76.4880874 170.899361,76.3669202 172.902144,75.9674473 C179.772619,74.5976905 186.662988,73.3244889 193.574201,72.1771874 C192.197643,84.9196169 188.628823,97.3222105 183.105538,109.267587 C181.360445,113.039861 191.801633,114.367967 193.409355,111.224247 C199.86203,98.6039317 203.582432,84.6687631 204.702247,70.5404843 C211.601144,69.7472181 218.725519,69.2578165 225.297566,67.4923732 C230.260943,66.158588 226.304641,62.8406907 223.047514,62.7857868" id="Fill-13" fill="#FFFFFF"></path>
                    <path d="M301.213657,80.8723502 C300.044577,75.1188039 298.020952,69.6019122 295.349311,64.3813121 C293.710326,61.177009 283.074922,62.5145807 284.941281,66.1619012 C286.831325,69.8556059 288.374624,73.6619583 289.484018,77.6245027 C282.267746,79.563177 275.113054,81.7574384 267.936572,83.8390521 C264.321331,84.8879052 260.705142,85.937705 257.088953,86.9865581 C255.582602,87.4238958 254.075304,87.8612334 252.568954,88.2985711 C252.460004,88.3298095 252.350107,88.3619945 252.241157,88.3932329 C252.234525,82.3926193 256.475044,75.0695798 258.635094,70.3327016 C261.813589,63.3561244 267.634355,52.6205258 270.815691,45.6448952 C272.48594,41.9862153 261.831589,41.2213477 260.314817,44.5458713 C256.390726,53.1458989 249.679413,65.4547773 245.921116,74.1286411 C244.014019,78.5285232 237.908089,91.5814435 244.230024,94.5102807 C247.315674,95.940621 250.599329,94.9693906 253.673611,94.1079679 C258.205926,92.8413925 262.714557,91.4848884 267.233609,90.173822 C275.058105,87.9038313 282.922392,85.7303955 290.726994,83.378049 C291.38164,88.2114822 290.808469,93.2986092 291.870494,97.9360925 C292.581037,101.041947 300.492693,101.182993 301.562297,98.2749818 C303.49971,93.008944 302.307893,86.2557687 301.213657,80.8723502" id="Fill-15" fill="#FFFFFF"></path>
                    <path d="M372.340122,76.0800948 C371.201359,76.7559803 370.258706,77.4119869 369.328368,78.1787477 C369.02994,77.3258446 368.790251,76.5496175 368.621615,76.0611625 C367.574749,73.0149447 367.029999,69.8371469 366.739151,66.6356836 C366.197243,60.667255 366.662412,54.6590684 367.282953,48.7161984 C367.65433,45.1616465 356.843659,44.8066647 356.435334,48.7161984 C355.306044,59.531313 354.769821,71.1179215 359.669724,81.1672218 C364.580048,91.2354545 375.996101,86.8336792 380.351255,78.4097226 C382.083084,75.0586937 373.776366,75.229085 372.340122,76.0800948" id="Fill-17" fill="#FFFFFF"></path>
                    <path d="M413.33787,38.0840652 C403.921757,36.2419459 392.461177,40.1865045 383.8854,43.7486293 C381.672296,44.6687424 382.239783,46.5316873 383.8854,47.581487 C386.00187,48.9313648 389.384053,48.4836143 391.555472,47.581487 C394.313325,46.4351322 397.134653,45.4724213 400.031773,44.7378455 C401.412121,44.3885433 408.011641,42.4432426 408.817871,43.553626 C409.450727,44.4235682 406.723191,47.1924269 406.264654,47.881565 C405.0681,49.6810865 404.637985,50.513164 405.233893,52.5796319 C406.135809,55.7110453 413.305659,54.4870678 414.735271,52.5796319 C416.357203,50.4147157 419.607699,46.6462281 419.783914,43.8451844 C420.005603,40.314298 416.220779,38.6482497 413.33787,38.0840652" id="Fill-19" fill="#FFFFFF"></path>
                    <path d="M424.775997,70.782156 C416.137692,73.9381815 406.577577,82.4833053 397.975273,74.5023661 C395.476057,72.1831511 385.042447,73.9277687 388.608425,77.2371464 C394.077709,82.3119674 401.772413,83.8767275 409.051213,83.2046285 C416.496753,82.5173836 425.954551,79.2790022 431.532785,74.1568504 C434.851493,71.1115792 426.396035,70.1895729 424.775997,70.782156" id="Fill-21" fill="#FFFFFF"></path>
                    <path d="M245.365756,237.073559 C238.722655,222.61491 222.806497,206.171203 209.759038,197.175489 C203.107411,192.589123 197.115167,190.452606 190.236166,195.883355 C183.52959,201.176845 177.708823,207.612903 172.618495,214.447487 C170.444234,217.366858 180.832369,219.013028 183.058737,216.02266 C187.185569,210.48305 191.814518,205.400656 197.030849,200.867301 C197.208958,200.713002 198.332563,199.886604 199.318797,199.111324 C199.663647,199.338512 200.017023,199.554341 200.357136,199.789102 C202.880984,201.512894 205.308198,203.381519 207.640673,205.354272 C217.340055,213.554826 229.052642,227.225888 234.98141,238.36664 C236.612817,241.43179 247.088111,240.822168 245.365756,237.073559" id="Fill-23" fill="#FFFFFF"></path>
                    <path d="M231.139174,189.458846 C230.153888,186.870791 229.167655,184.282737 228.182369,181.694682 C226.92234,178.384358 216.202618,179.073496 217.704232,182.999122 C218.694255,185.587177 219.684278,188.175231 220.673353,190.762339 C221.663376,193.350394 222.281075,196.055829 224.320806,197.99545 C226.198534,199.779825 232.575418,200.068544 233.267013,196.902106 C233.782393,194.54124 231.980457,191.668253 231.139174,189.458846" id="Fill-25" fill="#FFFFFF"></path>
                    <path d="M247.160587,186.954567 L244.499367,178.66219 C243.435448,175.349026 232.711937,175.888598 234.02123,179.967577 L236.516656,187.741207 C237.355097,190.355767 237.796581,193.002511 239.763363,194.980944 C241.203396,196.428323 247.751758,197.20171 248.530513,194.521834 C249.293162,191.899701 247.979132,189.505703 247.160587,186.954567" id="Fill-27" fill="#FFFFFF"></path>
                    <path d="M316.571802,205.627182 C311.827271,203.016408 305.694813,202.028139 300.436797,200.857172 C295.508473,199.760041 290.531831,198.933643 285.530558,198.253971 C285.135496,190.144292 284.829489,182.033666 284.339688,174.011076 C284.11042,170.260574 273.281748,170.895755 273.512912,174.677495 C274.194085,185.845698 274.875259,197.013901 275.55738,208.183051 C275.888966,213.609067 276.219606,219.033191 276.551192,224.45826 C276.810777,228.725616 276.468769,233.101832 279.749582,236.197274 C281.286249,237.647494 289.365594,237.665479 288.836003,234.393966 C287.222597,224.437435 286.404052,214.276433 285.833723,204.081354 C289.282223,204.630392 292.712724,205.283559 296.122382,206.061679 C301.039337,207.185315 305.889028,209.043527 310.850511,209.851939 C313.053194,210.210708 321.611918,208.400773 316.571802,205.627182" id="Fill-29" fill="#FFFFFF"></path>
                    <path d="M393.069875,181.387599 C392.541231,179.270014 388.079023,178.961416 386.53004,179.08069 C381.148863,179.493416 375.77716,179.99891 370.413983,180.576347 C370.683042,176.416906 370.035027,168.50791 369.833233,164.314391 C369.644702,160.408643 358.834031,160.047982 359.006456,163.633772 C359.241409,168.50223 359.825001,177.071019 359.425203,181.872268 C349.589396,183.138843 339.788643,184.671418 330.031471,186.476619 C328.112058,186.832548 326.467388,188.235436 327.856262,190.054837 C329.29819,191.942394 333.191017,191.861931 335.20138,191.490857 C343.041034,190.039691 350.908164,188.787315 358.79803,187.71101 C356.793352,202.307864 353.803388,214.655554 346.070789,227.456674 C344.011162,230.865447 354.522458,232.68958 356.419133,229.549647 C364.742905,215.771617 368.019928,202.157352 369.874918,186.316641 C376.262223,185.586798 382.66374,184.969603 389.080414,184.477361 C390.810349,184.343888 393.628835,183.628245 393.069875,181.387599" id="Fill-31" fill="#FFFFFF"></path>
                    <path d="M466.608206,203.57586 C465.214595,199.223308 463.549083,194.978672 461.699777,190.802192 C460.24648,187.519319 449.556128,188.343824 451.222588,192.106632 C452.52146,195.042095 453.73033,198.009744 454.816987,201.026616 C454.365081,201.059748 453.938756,201.133584 453.557905,201.260431 C446.897751,203.471732 440.169385,205.448271 433.351964,207.118105 C430.094836,207.917051 426.821603,208.658254 423.532263,209.318993 C421.574008,209.712786 419.608173,210.073448 417.639496,210.414231 C416.736633,210.571369 415.834717,210.721882 414.930907,210.864821 C413.787407,211.157326 413.730563,211.067397 414.758482,210.597875 C414.203311,208.289072 416.805792,204.139098 417.719076,202.037605 C419.016054,199.05765 420.401138,196.11556 421.879067,193.221748 C425.108721,186.899284 433.468493,173.546286 437.478796,167.689558 C439.592424,164.602636 429.139867,163.044502 427.038555,166.113439 C421.689589,173.923987 412.280109,189.412556 408.357913,198.031516 C406.069018,203.060899 400.416887,211.954379 407.614211,215.413322 C414.280997,218.617625 423.996485,215.117977 430.739062,213.69805 C439.493895,211.854984 448.119884,209.497904 456.631239,206.752711 C457.480101,210.03937 458.139484,213.456662 459.686573,216.394019 C460.982603,218.853333 469.103633,219.318123 469.371744,215.864859 C469.678698,211.902315 467.809497,207.330148 466.608206,203.57586" id="Fill-33" fill="#FFFFFF"></path>
                    <path d="M568.919919,202.839107 C563.915803,204.363162 558.449361,207.321344 553.074816,205.586193 C548.216598,204.0167 547.48616,198.47141 548.127543,194.0791 C549.577051,184.15854 557.352283,175.246129 564.978775,169.318404 C566.502179,168.134185 565.349205,166.775788 564.173493,166.024173 C562.350714,164.859832 559.594756,165.064302 557.607131,165.514892 C543.466383,168.721088 529.929123,173.876372 516.423126,179.06668 C514.176864,179.929996 514.763298,181.841219 516.372915,182.898591 C518.494122,184.29012 521.836515,183.846156 524.042987,182.997986 C531.605056,180.091868 539.181337,177.239707 546.876988,174.757673 C539.961986,182.644897 534.421648,193.010368 538.065311,202.343079 C543.043847,215.094974 566.933241,213.396741 575.615126,206.293317 C579.141313,203.408971 570.419638,202.382837 568.919919,202.839107" id="Fill-35" fill="#FFFFFF"></path>
                    <path d="M573.424665,157.535467 C572.608962,153.49246 570.674391,149.480692 569.249516,145.611863 C568.031172,142.300592 557.312398,142.953758 558.771379,146.916303 C560.118568,150.575929 561.173013,154.675733 563.024214,158.104385 C564.003816,159.915266 567.044939,160.185052 568.804242,160.072404 C569.911742,160.000461 573.806463,159.426811 573.424665,157.535467" id="Fill-37" fill="#FFFFFF"></path>
                    <path d="M589.210177,156.756116 C588.73364,154.434062 588.348999,152.097808 588.024044,149.750194 C587.482137,145.834034 576.696098,146.133165 577.177373,149.609148 C577.52317,152.1139 577.940022,154.606346 578.459192,157.07986 C578.983099,159.575146 579.255947,161.923706 580.956513,163.861434 C582.372861,165.474471 589.104069,166.038656 589.923562,163.391911 C590.618947,161.147479 589.677241,159.028947 589.210177,156.756116" id="Fill-39" fill="#FFFFFF"></path>
                    <path d="M487.515595,55.3237838 C486.908318,52.2614734 486.481045,49.1811773 486.19967,46.079109 C486.24325,46.3839201 486.393885,46.7086102 486.69326,47.0541259 C487.951395,48.5043452 491.279577,48.3528863 492.891088,47.8672711 C493.017091,49.7482017 493.138357,51.642385 493.25678,53.5469811 C491.330736,54.1187386 489.417007,54.7132149 487.515595,55.3237838 M488.57383,38.5998775 C489.794069,38.2288031 491.020939,37.9097927 492.250652,37.6125546 C492.346338,39.3051082 492.457183,40.9967152 492.565185,42.6892688 C491.104309,43.1133538 489.681329,43.5450117 488.319929,43.9548975 C487.198219,44.2937868 486.172195,44.9933378 486.187354,45.9200772 C485.973244,43.5128267 485.837767,41.0942168 485.822608,38.655728 C486.808842,38.8242261 487.803602,38.8336922 488.57383,38.5998775 M511.959213,33.7077539 C511.965844,33.9775401 511.989529,34.2776182 512.054899,34.6411196 C511.423937,35.9389333 511.539519,38.2676145 511.476991,39.9223033 C508.284286,39.5919335 504.887891,39.8929582 501.496234,40.5073135 C501.400547,38.9416067 501.298229,37.3777932 501.214859,35.8120865 C504.810205,35.1806921 508.405552,34.5720165 511.959213,33.7077539 M510.519179,49.410259 C507.749957,49.8769418 504.992104,50.4591121 502.249409,51.1189051 C502.101616,49.5257464 501.968034,47.9335344 501.85719,46.3441622 C501.840137,46.0923617 501.827821,45.8415078 501.810767,45.5916006 C502.418992,45.4675936 503.027217,45.3407467 503.640178,45.2328322 C506.067392,44.8059074 508.629136,44.7131388 511.060139,44.2142709 C510.879188,45.9456358 510.699183,47.6779474 510.519179,49.410259 M521.404694,61.7077779 C515.489189,62.6951008 509.619159,63.8745873 503.796498,65.2433974 C503.446911,62.2416706 503.090692,59.2408905 502.765737,56.2420036 C505.519801,55.5377195 508.281443,54.8608874 511.051613,54.1887884 C513.269453,55.6276483 518.973691,55.2821326 519.242749,52.6959713 C519.868974,46.6773718 520.535937,40.6635055 521.121424,34.6411196 C521.483327,30.9209095 520.523621,29.21321 516.538897,28.8004844 C511.660785,28.2959369 506.107183,29.6354018 501.320967,30.4939846 C501.202543,30.5148102 501.086014,30.5403689 500.968538,30.5621412 C500.869062,28.3726129 500.77527,26.1830847 500.696636,23.9916632 C505.725384,23.1037352 510.702026,22.0463626 515.362239,20.4371114 C520.170244,18.778636 514.718961,16.5768018 512.251009,16.7528728 C508.368603,17.0273921 504.44167,17.6483737 500.515685,18.414188 C500.40484,14.4800421 500.31768,10.5440031 500.271258,6.607964 C500.233363,3.45193845 491.166837,3.45856478 491.20568,6.607964 C491.258734,11.1867569 491.371474,15.7646032 491.512635,20.3405563 C488.331298,21.0552531 485.169857,21.7690034 482.054837,22.3757857 C476.100489,23.5382331 480.193215,27.5765069 484.464998,26.7444294 C486.824947,26.2834263 489.240793,25.8792202 491.679375,25.4835338 C491.767483,27.8197878 491.879275,30.1560419 491.992962,32.492296 C489.311847,33.1558754 486.645891,33.8847715 483.997935,34.6884505 C482.538006,35.1324145 481.929782,35.6729336 481.880517,36.2143993 C479.430566,36.0582073 476.745662,36.8315944 476.755136,38.5516 C476.793031,45.7752445 477.688315,52.8455369 479.454251,59.8505127 C480.301218,63.2119544 488.462038,62.5739337 488.478144,59.8505127 L488.520776,59.8505127 C488.506565,59.7956088 488.493302,59.7397583 488.480986,59.6848545 C489.408481,59.8164344 490.332186,59.7993953 491.057887,59.5636873 C491.901065,59.2901146 492.747084,59.0487269 493.593104,58.7912468 C493.788266,61.7513223 494.009008,64.7170776 494.278067,67.6771531 C487.502332,69.5344183 480.793861,71.6425374 474.169708,74.0431615 C468.615158,76.0566187 475.567108,79.106623 478.745603,77.9545885 C484.047199,76.0329533 489.39806,74.2892823 494.79629,72.7169492 C495.309775,77.1859344 495.971054,81.6113751 496.920339,85.9147021 C497.55888,88.8047279 505.709279,89.0006779 505.601276,85.9147021 C505.417482,80.66665 504.926734,75.4062919 504.350721,70.1430939 C510.774975,68.5385758 517.260809,67.1697657 523.814855,66.0745283 C529.816573,65.0739527 525.672687,60.9959209 521.404694,61.7077779" id="Fill-41" fill="#FFFFFF"></path>
                    <path d="M553.107595,28.6372874 C545.92164,28.3495154 537.978719,30.9186376 531.126245,32.8904436 C529.572525,33.3381941 528.219652,34.5138941 529.499576,35.9896721 C530.770026,37.4531441 534.078313,37.2685535 535.70214,36.8018706 C539.036007,35.841053 542.394506,34.9616446 545.795637,34.2649335 C548.886971,33.6306992 552.170626,33.4565214 555.134063,32.3764299 C559.143419,30.9148512 555.713866,28.7414154 553.107595,28.6372874" id="Fill-43" fill="#FFFFFF"></path>
                    <path d="M560.581179,61.2762146 C559.16104,58.5925516 550.273572,59.5211842 551.838661,62.4793665 C552.86279,64.4123611 553.663334,66.3642882 554.288612,68.3493468 C550.138095,69.3612818 546.083265,70.7263055 542.086225,72.2532009 C539.988703,73.0521468 537.908233,73.8908506 535.851449,74.7891914 C536.77326,71.4391091 539.050786,67.3487712 539.915754,65.6514846 C542.075803,61.4077945 544.755023,57.5029939 547.89657,53.9247765 C549.203021,52.4357459 547.926886,51.3584942 546.023579,50.8690925 C550.70274,49.7729085 555.332636,48.5176925 559.625262,46.7314237 C563.569248,45.0890409 557.250154,43.1920178 555.718224,43.3775549 C546.439483,44.5021375 537.09253,47.7386257 528.034532,50.0190292 C526.306492,50.4544737 525.335417,51.6093481 526.407862,53.1182577 C527.513467,54.6735516 531.108813,54.3091036 532.609479,53.9304562 C534.8529,53.3662717 537.152216,52.8503647 539.471427,52.3391908 C535.686603,56.7494857 532.430423,61.4986699 530.025946,66.8196116 C528.661704,69.8402707 524.300866,77.8496085 527.594942,80.6847305 C531.078497,83.684564 536.312828,80.7169155 539.586062,79.1956998 C544.770182,76.7837163 550.093568,75.0362588 555.460534,73.2689224 C555.804437,75.3600023 555.982546,77.5021996 556.005283,79.7182331 C556.038442,82.8326075 564.888962,82.8752053 565.010228,79.7182331 C565.258445,73.2840682 563.580616,66.942672 560.581179,61.2762146" id="Fill-45" fill="#FFFFFF"></path>
                    <path d="M723.398163,62.2606976 C722.175082,59.8401945 720.952001,57.4206381 719.729868,54.9991883 C718.4111,52.3893616 709.806902,53.2479444 711.280093,56.1635289 C712.502227,58.584032 713.725308,61.0045351 714.948389,63.4240916 C716.132627,65.7698118 717.076227,68.3275746 718.947323,70.1999857 C720.166615,71.4211233 726.53213,71.9095784 726.362547,69.1965702 C726.210965,66.7618679 724.483872,64.4104679 723.398163,62.2606976" id="Fill-47" fill="#FFFFFF"></path>
                    <path d="M649.583194,173.185151 C649.578457,173.187044 649.574667,173.188938 649.570878,173.189884 C649.494139,173.14066 649.423085,173.086703 649.339714,173.042212 C648.664225,170.867829 648.197162,168.664102 647.928103,166.425349 C649.450559,167.281092 652.026513,167.702338 653.645603,167.073783 C653.659814,167.06905 653.673078,167.064317 653.687289,167.058637 C653.78487,168.598785 653.883398,170.137987 653.984769,171.678135 C652.500208,172.177949 651.028911,172.686283 649.583194,173.185151 M647.723467,159.398602 C647.789784,158.262659 646.610283,157.529977 645.069826,157.202447 C646.326066,157.230846 647.620201,157.022589 648.394219,156.831373 C649.932781,156.448939 651.473237,156.078811 653.015589,155.71531 C653.120749,157.626532 653.234436,159.538701 653.347175,161.449923 C651.823772,161.945005 650.313632,162.478898 648.823387,163.058228 C648.367692,163.234299 648.001999,163.417943 647.702624,163.602534 C647.638201,162.213844 647.640096,160.814743 647.723467,159.398602 M669.287018,152.339669 C670.507256,151.892865 670.671155,152.044324 669.777766,152.794045 C669.143962,153.207718 668.9848,153.777582 669.300281,154.504585 C669.101329,155.560064 669.274701,156.816227 669.433863,158.029791 C669.248175,158.043044 669.072907,158.05819 668.92322,158.073336 C666.822855,158.295791 664.736702,158.624268 662.665707,159.02942 C662.557704,157.158903 662.448754,155.288385 662.348331,153.417867 C664.913864,152.686131 667.903828,151.923156 669.287018,152.339669 M669.633762,167.628501 C667.507819,167.923846 665.380927,168.372543 663.264457,168.900756 C663.164034,167.328423 663.058874,165.754197 662.96224,164.181864 C665.174396,163.644185 667.4055,163.180342 669.680185,162.82252 C669.695343,164.424198 669.672605,166.026823 669.633762,167.628501 M682.063523,179.99323 C676.165071,180.488312 670.183249,181.63372 664.238375,183.090565 C664.029949,180.25923 663.825312,177.426948 663.632992,174.593719 C666.253474,173.936766 668.874903,173.285493 671.42812,172.499799 C674.149972,173.437898 678.878397,172.776212 678.976926,170.402093 C679.210931,164.731849 679.286722,158.96789 678.651971,153.318472 C678.246488,149.714696 677.43268,147.657694 673.505747,147.151253 C669.881979,146.682677 665.832832,147.716385 662.102957,148.609992 C661.976954,146.109973 661.856635,143.609954 661.742948,141.109935 C665.491772,140.512619 669.235858,139.906783 672.940155,139.077546 C677.629737,138.027746 675.855275,134.857521 671.746443,134.88024 C668.357628,134.899172 664.930917,135.230489 661.506101,135.738823 C661.346939,131.940043 661.199146,128.139371 661.069354,124.337751 C660.957562,121.036893 651.507343,121.189299 651.618188,124.457972 C651.766928,128.81147 651.941248,133.164021 652.128831,137.514679 C648.982548,138.216123 645.868476,138.980044 642.825459,139.729766 C641.015943,140.175623 640.048658,141.441252 641.172262,142.9814 C642.358395,144.60769 646.073113,144.134381 647.647675,143.745321 C649.210869,143.360994 650.783537,143.03157 652.3581,142.722973 C652.481261,145.368771 652.612948,148.014569 652.75032,150.659421 C649.683617,151.346666 646.622599,152.05947 643.572002,152.813924 C641.763434,153.261675 640.793306,154.52541 641.917859,156.065558 C642.288288,156.571999 642.916408,156.858824 643.637372,157.024483 C641.12963,156.904262 638.379356,157.706995 638.273248,159.517875 C637.900924,165.828033 638.995159,171.868405 641.417637,177.697681 C642.477766,180.249764 649.187185,180.018789 650.494583,177.517823 C651.883457,177.696734 653.413493,177.531076 654.359936,177.213959 C654.554151,180.005536 654.753103,182.796167 654.963423,185.586798 C650.39416,186.903544 645.886477,188.301699 641.49627,189.625072 C639.730334,190.158018 638.677784,191.283547 639.842126,192.877652 C640.990364,194.449986 644.787504,194.103523 646.318487,193.641573 C649.331188,192.73282 652.355258,191.860038 655.386907,191.021334 C655.74502,195.556582 656.116397,200.090884 656.516196,204.623293 C656.828835,208.171218 666.552849,207.382685 665.967362,204.503072 C665.500298,199.200116 665.069236,193.896214 664.658068,188.589471 C665.054078,188.49197 665.448192,188.388788 665.844201,188.291287 C672.31393,186.71422 679.063138,185.827239 685.421075,183.870579 C690.611826,182.272687 684.612003,179.780241 682.063523,179.99323" id="Fill-49" fill="#FFFFFF"></path>
                    <path d="M716.747957,145.109208 C715.802461,143.582313 712.546281,143.543502 711.096773,143.799089 C704.058611,145.042945 697.084871,147.086694 690.236186,149.101098 C688.553621,149.596179 687.118324,150.905352 688.51762,152.477685 C689.919758,154.051912 693.48384,153.789699 695.243144,153.271898 C701.728978,151.363516 708.325657,149.924656 714.832333,148.113775 C716.320684,147.699156 717.688715,146.627584 716.747957,145.109208" id="Fill-51" fill="#FFFFFF"></path>
                    <path d="M723.596168,179.712558 C721.940129,176.857557 712.355381,178.044616 714.148791,181.137218 C714.983442,182.575132 715.743249,184.044283 716.430107,185.54562 C712.632019,186.740252 708.865196,188.049426 705.089845,189.306535 C702.534733,190.156598 699.698247,191.401401 696.875024,192.387777 C697.413141,189.20146 699.578876,184.932211 700.269523,183.243444 C701.7664,179.580978 703.575915,176.087956 705.565435,172.672557 C706.31861,171.37853 704.984685,170.448951 703.088957,170.031492 C708.600874,168.43076 714.129844,166.897239 719.62755,165.191432 C725.029569,163.516865 719.054378,160.361786 715.960202,160.958155 C705.080371,163.052075 694.373913,166.653011 683.93083,170.300332 C677.893111,172.409397 685.504445,175.670498 688.937788,174.471132 C691.167944,173.692065 693.410417,172.965062 695.657627,172.263618 C692.86472,177.156688 690.495297,182.245709 688.753046,187.614928 C687.627547,191.085231 685.078119,196.197916 689.547907,198.151737 C693.834848,200.026041 699.675509,196.945745 703.617601,195.633732 C708.537398,193.996082 713.499829,192.437002 718.4111,190.753914 C718.433838,190.82775 718.463207,190.898747 718.484049,190.97353 C719.436177,194.204338 719.437124,197.689787 720.702838,200.789015 C721.812232,203.50297 728.777445,202.808152 729.45104,200.084731 C730.992444,193.851249 726.648659,184.974809 723.596168,179.712558" id="Fill-53" fill="#FFFFFF"></path>
                    <path d="M757.367317,187.163485 C757.065099,185.570327 756.869937,183.318322 756.777092,182.791055 C756.415189,180.714175 756.083603,178.630668 755.777596,176.544321 C755.570117,175.123447 755.390113,173.698786 755.210109,172.274126 C756.748671,172.524979 758.501343,172.381093 759.630632,171.708994 C761.536781,170.573999 763.496932,169.673765 765.482662,168.827488 C765.482662,169.000719 765.486452,169.174897 765.485504,169.349075 C765.466556,174.698415 764.968229,179.975812 764.475586,185.255103 C762.118479,185.607245 759.733898,186.315315 757.367317,187.163485 M757.977436,160.092094 C759.625895,159.233511 761.275302,158.374928 762.923761,157.515399 C763.630514,157.147164 764.33632,156.77893 765.04402,156.411642 L765.044968,156.410695 C765.20034,158.626729 765.315921,160.843709 765.38887,163.065422 C761.676048,163.901286 758.015332,165.656317 754.667254,167.562806 C754.579147,166.718423 754.476829,165.874986 754.396301,165.029655 C754.260824,163.592689 754.156611,162.152882 754.049556,160.714969 C755.428956,160.851282 756.888885,160.659118 757.977436,160.092094 M772.720724,142.854174 C772.260292,139.562782 763.193767,139.817422 763.60304,142.735847 C763.995259,145.54541 764.325899,148.360653 764.601589,151.179682 C762.955972,151.227013 761.300881,151.746707 759.720634,152.565532 C757.724483,153.599239 755.729279,154.633893 753.733127,155.6676 C753.476385,150.721519 753.357961,145.768812 753.393014,140.810425 C753.403436,139.28637 751.296439,138.474171 749.106073,138.388029 C753.06048,137.040991 757.030993,135.74507 761.034665,134.551385 C765.242025,133.298062 769.894659,132.595671 773.792223,130.557602 C777.474729,128.63218 771.613225,127.167762 770.072768,127.281356 C760.885924,127.956295 751.111698,132.098696 742.459183,135.09853 C737.828339,136.703048 741.743903,139.132071 745.060716,139.310035 C744.581337,139.668803 744.279119,140.12602 744.27533,140.692098 C744.210907,150.18952 744.653339,159.667062 745.725784,169.106741 C746.241165,173.646722 746.88918,178.171558 747.676461,182.672728 C748.05068,184.816819 748.079102,188.1811 749.410185,190.208757 C749.065335,190.33655 748.717643,190.470023 748.376583,190.589297 C746.944128,191.093845 745.290932,192.166363 746.700649,193.685686 C747.982468,195.066802 751.29265,195.158624 752.926898,194.58308 C755.887493,193.540853 758.849035,192.498626 761.80963,191.4564 C762.51733,191.206492 763.251558,190.979304 763.989575,190.746436 C763.848414,192.477801 763.718621,194.211059 763.630514,195.95189 C763.473247,199.042599 771.660594,198.96119 772.361663,196.064538 C776.442073,179.192012 775.102463,159.879105 772.720724,142.854174" id="Fill-55" fill="#FFFFFF"></path>
                    <path d="M790.736962,189.214807 C790.411059,187.650047 790.111684,186.078661 789.861573,184.501595 C791.4674,184.832911 793.335653,184.652107 794.65821,183.997994 C796.098243,183.287083 797.55533,182.639596 799.057891,182.091504 C798.874097,183.93741 798.656197,185.777636 798.494194,187.621649 C795.898344,187.777841 793.249441,188.577733 790.736962,189.214807 M792.860063,174.619846 C794.826846,173.591818 797.201006,172.90268 799.146946,171.826375 C799.171578,171.98162 799.19621,172.136866 799.220842,172.291165 C798.89494,173.35611 799.361056,175.1225 799.374319,176.22815 C799.377161,176.387182 799.368635,176.545268 799.368635,176.704299 C795.875607,177.181395 792.344683,178.70829 789.274191,180.194481 C789.098924,178.641081 788.950184,177.083893 788.845971,175.518187 C788.82797,175.25692 788.736073,175.024998 788.612913,174.80633 C790.191265,175.115874 791.912673,175.113981 792.860063,174.619846 M807.021654,168.643844 C802.003327,163.085301 791.43803,168.712947 786.45381,171.315201 C785.211781,171.962688 784.947459,172.606389 785.263888,173.17152 C782.658564,172.854403 779.608915,173.612644 779.727339,175.399859 C780.186823,182.304494 781.376745,189.03211 783.210893,195.70009 C783.892067,198.181176 789.253348,197.488252 790.81749,196.803847 C792.36742,196.126068 793.311969,195.129279 792.876169,193.691366 C793.342285,193.641195 793.793243,193.569252 794.197778,193.475537 L798.80399,192.416271 C798.843781,192.406804 798.887361,192.398285 798.928098,192.389765 C800.779299,193.9337 806.060053,193.709351 806.731752,191.799075 C808.099784,187.908474 808.339474,183.602307 808.465477,179.49777 C808.558321,176.452499 809.296338,171.161849 807.021654,168.643844" id="Fill-57" fill="#FFFFFF"></path>
                    <path d="M804.042017,155.787347 C805.28973,151.088334 804.345181,145.313015 803.006519,141.172507 C802.62851,140.00154 800.8171,139.411796 798.927056,139.365412 C800.090452,139.248032 801.259531,139.151476 802.439032,139.100359 C803.449898,139.056815 805.561631,138.913875 806.526074,137.994709 C806.869029,143.704711 807.954739,149.27556 809.706463,154.593661 C807.815472,154.978935 805.928271,155.377461 804.042017,155.787347 M842.530696,185.421234 C842.370587,185.580266 842.216162,185.739298 842.059843,185.89833 C838.545972,183.41535 835.337161,180.572655 832.449515,177.449761 C835.530429,172.857716 838.312914,168.064987 840.922027,163.70297 C842.59796,160.900979 833.739861,159.712027 832.145403,162.378651 C830.478943,165.163602 828.751851,167.907848 826.96602,170.61423 C824.210062,166.643166 821.901271,162.365398 820.103125,157.869908 C823.287304,157.190236 826.464851,156.485005 829.626292,155.723924 C834.772516,154.483854 829.154492,151.297536 826.314216,151.694169 C823.660575,152.064297 821.009777,152.500688 818.359926,152.964531 C816.590201,147.23465 815.616284,141.23593 815.525335,135.156747 C815.477965,131.96191 806.360281,131.892807 806.406703,135.03842 C806.410492,135.251409 806.421861,135.462505 806.427545,135.674547 C805.419522,134.798925 803.40537,134.50642 802.49777,134.545232 C800.003292,134.652199 797.53534,134.864242 795.086336,135.166213 C795.027598,133.938449 794.673274,132.662408 794.618325,131.429911 C794.520744,129.297179 794.705485,127.196633 795.081599,125.097981 C795.594137,122.243926 786.556981,121.675009 785.963914,124.979653 C785.37369,128.268205 784.676411,133.500165 786.551296,136.648618 C783.460909,137.358581 780.404628,138.254082 777.377716,139.354053 C771.794745,141.383602 778.72301,144.513123 781.928979,143.345942 C786.593929,141.650549 791.350776,140.402906 796.218467,139.698622 C794.773697,140.137853 793.787464,140.998329 794.198631,142.269637 C795.137495,145.171022 795.550557,148.169909 795.35729,151.217074 C795.208549,153.567527 794.311371,155.784507 793.957047,158.058285 C793.341243,158.201224 792.725439,158.34227 792.108688,158.485209 C791.943842,158.306299 791.746785,158.14916 791.52699,158.02326 C791.482463,157.939011 791.416146,157.833936 791.310985,157.691943 C791.107297,157.210115 790.953819,156.712193 790.849606,156.199126 C790.554968,155.174885 790.305804,154.134552 790.033903,153.103684 C789.452206,150.892384 788.868613,148.68203 788.285968,146.471676 C787.55553,143.699031 778.545848,144.031294 779.47808,147.56786 C780.25494,150.516576 781.0318,153.463399 781.808661,156.411169 C782.306988,158.299672 782.921844,159.52649 784.060607,160.349101 C783.377539,160.507186 782.691628,160.667165 782.00856,160.823357 C780.25873,161.224723 779.280076,162.396636 780.333574,163.918799 C781.430652,165.507224 785.038314,165.165495 786.559823,164.81714 C794.858962,162.915383 803.236735,161.311812 811.593665,159.630618 C814.275727,165.990946 817.942127,171.905418 822.42802,177.174295 C819.349949,181.301551 815.471333,185.231911 813.064962,189.708469 C811.447767,192.715875 819.231526,192.494367 820.557872,191.38777 C823.340357,189.064768 825.892627,186.269404 828.270577,183.239279 C831.72192,186.403824 835.51527,189.238946 839.61747,191.668915 C841.487619,192.777406 845.065912,192.713036 846.783531,191.301628 C848.352409,190.011387 849.419171,189.015544 850.078554,187.112841 C851.179422,183.939777 843.966939,183.995627 842.530696,185.421234" id="Fill-59" fill="#FFFFFF"></path>
                    <path d="M835.35213,134.349755 C834.528848,132.245422 833.705565,130.142983 832.881336,128.039597 C831.793732,125.260326 822.788787,125.855749 824.073448,129.135781 C824.89673,131.240114 825.720012,133.3435 826.543295,135.445939 C827.369419,137.557844 827.937853,139.692469 829.5001,141.364197 C830.908869,142.87216 836.938061,143.169398 837.229857,140.420418 C837.443968,138.408854 836.077831,136.202287 835.35213,134.349755" id="Fill-61" fill="#FFFFFF"></path>
                    <path d="M885.442645,188.24973 C884.963266,188.417281 884.600415,188.617018 884.321883,188.832847 C881.891827,187.943972 881.00128,184.548452 881.28076,182.221664 C881.546029,180.02551 883.645446,175.795072 886.437405,175.953158 C889.054097,176.101777 890.658029,180.373865 890.537711,182.468732 C890.34918,185.733618 888.231763,187.276606 885.442645,188.24973 M899.350335,182.583273 C899.662027,175.938958 892.899555,171.767211 886.975523,171.582621 C880.876224,171.391404 874.262492,174.392184 872.73151,180.767659 C871.121893,187.47161 876.41591,192.42337 882.684792,193.243142 C884.085983,193.427732 887.051314,193.466544 887.974072,191.997392 C893.39504,191.957634 899.07275,188.513837 899.350335,182.583273" id="Fill-63" fill="#FFFFFF"></path>
                    <path d="M596.325742,42.2476713 C598.82022,41.5282414 601.313752,40.8088114 603.807283,40.0912747 C603.948444,41.821693 604.064973,43.5540046 604.171081,45.2863162 C601.524072,44.7988077 598.766219,45.5684084 596.203528,46.2726925 C594.601491,46.71287 593.028823,47.2552823 591.478893,47.8592248 C591.381312,46.6466067 591.298889,45.4349353 591.246782,44.2213705 C591.215518,43.5057271 591.197518,42.7910302 591.183307,42.0763334 C592.751238,42.7512723 594.865813,42.6679698 596.325742,42.2476713 M604.62867,63.0410898 C604.193818,62.9814529 603.777914,62.9558942 603.421695,62.9795596 C600.596577,63.1707765 597.719353,63.6800572 594.847813,64.3597292 C594.516226,63.8031176 593.784841,63.3686198 593.060087,63.1906555 C593.851158,63.3856589 592.252911,54.6483716 592.177119,54.1267849 C592.124066,53.7604436 592.081433,53.3931557 592.032169,53.027761 C593.012718,52.9567646 593.975266,52.727683 594.782443,52.3632349 C596.857228,51.4232429 598.971803,50.6621617 601.174485,50.0780982 C602.205246,49.8054721 603.337377,49.6634794 604.379507,49.3548818 C604.586985,53.9128491 604.658039,58.4764962 604.62867,63.0410898 M613.142867,12.9668727 C601.980714,14.3385227 590.96067,16.493026 580.095998,19.392518 C578.380274,19.8506813 577.387409,20.9686376 578.469329,22.4917465 C579.384508,23.7782008 582.043833,23.7564286 583.768083,23.4838025 C583.552078,23.7469624 583.390074,24.0404141 583.337968,24.3830899 C582.144256,32.2788335 581.771932,40.2285344 582.43321,48.1933811 C582.761954,52.1606586 583.337968,56.1108969 584.150829,60.0062314 C584.616945,62.2402507 584.759053,64.6086898 586.508883,66.2037417 C586.652886,66.3334284 586.821522,66.4508091 586.999631,66.56251 C584.863266,67.2270361 582.759112,67.9104946 580.716539,68.5579815 C579.186503,69.0426501 577.790997,70.1577665 579.090817,71.6553167 C580.337583,73.09323 583.696081,72.9739561 585.292434,72.4684619 C591.567,70.48151 598.30105,69.4336035 604.557616,67.425826 C604.459088,71.7073807 604.279083,75.9908287 603.963602,80.27617 C603.739071,83.3025088 612.789491,83.5211777 613.02918,80.27617 C614.361211,62.2014393 613.80604,44.1248155 611.36651,26.1674655 C610.923132,22.9063653 601.903028,23.2338953 602.300932,26.1674655 C602.736732,29.3727152 603.090109,32.5845913 603.405589,35.7983605 C602.137981,35.6109301 600.771844,35.7349371 599.738242,36.0340685 C597.075127,36.801776 594.412013,37.5694834 591.749846,38.3362443 C591.566053,38.3902015 591.372785,38.4621445 591.18236,38.5482868 C591.266677,33.8076222 591.693003,29.0858899 592.403546,24.3830899 C592.589234,23.1581658 591.059199,22.3857252 589.206103,22.1500173 C597.891778,20.0248591 606.659875,18.4269673 615.553028,17.3355164 C621.610642,16.5905277 617.387176,12.4462326 613.142867,12.9668727" id="Fill-65" fill="#FFFFFF"></path>
                    <path d="M631.439343,74.8154127 C631.013964,73.341528 630.319527,71.8600703 630.025836,70.3871321 C629.876149,69.6393036 629.75583,68.8895819 629.662986,68.1389136 L629.671512,68.1417534 C631.747245,68.7646283 634.065509,68.5043082 635.874077,67.3295549 C636.688832,66.7994486 637.592643,66.3696839 638.533401,66.0591931 C638.119392,68.3424365 637.543379,70.7260215 637.562326,72.942055 C636.608304,73.2525459 635.670388,73.6274067 634.707839,73.9274847 C633.628762,74.2625876 632.536421,74.549413 631.439343,74.8154127 M647.39908,51.7766155 C645.836833,49.7271868 642.246224,49.7641049 639.994277,50.2762254 C635.658072,51.2626018 631.334182,53.3309628 627.147665,54.8446056 C621.590273,56.8533297 628.544118,59.9042806 631.722612,58.7550859 C633.984981,57.9381543 636.245454,57.1202761 638.506875,56.3023978 C638.812882,56.1916435 639.117941,56.0818357 639.424896,55.9710814 C639.516793,57.6144108 639.336788,59.5246867 639.153942,61.1557101 C635.694073,61.4813468 632.449261,62.5008547 629.421401,64.2142339 C629.411927,63.239217 629.426138,62.2632535 629.484877,61.2844502 C629.671512,58.2353925 620.616356,58.0508019 620.419299,61.2844502 C620.221294,64.5370308 620.391824,67.7545865 621.07963,70.945637 C621.703012,73.8356628 622.268604,77.1280014 624.748872,78.9190033 C625.820371,79.6923904 629.162764,80.3767955 630.769538,79.4093516 C631.971776,79.5201059 633.240332,79.3582342 634.227512,79.145245 C636.157347,78.7315728 638.063496,78.2345982 639.941223,77.6211895 C640.808086,77.337204 641.719475,77.076884 642.576863,76.7266352 C643.738364,76.5221656 644.782388,76.0479098 645.26082,75.3710777 C647.665297,71.9689314 647.719298,66.8410998 648.012042,62.7782139 C648.22331,59.863576 649.299545,54.268115 647.39908,51.7766155" id="Fill-67" fill="#FFFFFF"></path>
                    <path d="M681.01912,18.3270991 C680.472476,16.2606312 679.925832,14.19511 679.380135,12.1295888 C678.515168,8.86659537 669.61633,9.49609657 670.312662,12.1295888 C670.901939,14.3541419 671.490268,16.578695 672.078598,18.8041947 C672.630926,20.8848618 672.887669,23.3280838 674.156225,25.0717548 C675.551731,26.9914968 681.727768,27.5329625 682.243149,24.525556 C682.577577,22.5812019 681.518395,20.2156027 681.01912,18.3270991" id="Fill-69" fill="#FFFFFF"></path>
                    <path d="M682.855636,67.0890192 C678.767647,64.5984663 674.299754,63.1993644 670.731883,59.8294031 C673.849744,56.2814775 676.796128,52.5678938 679.666721,48.7075842 C682.139409,45.382114 675.150511,43.5163292 673.220677,46.1110101 C671.105154,48.9574914 668.952684,51.7386561 666.718737,54.4365184 C665.66145,52.4107551 664.875116,50.2325863 664.204363,47.9730084 C663.551611,45.7702275 663.004967,43.5428345 662.519903,41.3021889 C665.84998,40.7455773 669.162057,40.1283821 672.403079,39.2887317 C676.60286,38.2001206 672.95825,35.3337602 670.324505,35.4549274 C667.415069,35.5902938 664.484791,35.8562936 661.546933,36.2141153 C660.428065,29.2905487 660.028267,22.2505481 660.206376,15.2436792 C660.285957,12.1378244 651.221326,12.046949 651.139851,15.2436792 C650.952267,22.6405549 651.380488,30.1907828 652.646201,37.5706194 C649.791714,38.0884196 646.93628,38.6696433 644.090319,39.3057708 C646.239001,35.6177457 645.947204,29.5300432 645.441298,25.6905592 C645.300137,24.6256136 644.236217,23.9487814 642.888081,23.6146252 C643.391145,23.5294295 643.891367,23.4451805 644.395379,23.3599848 C649.175911,22.5496795 647.431765,18.7953912 643.233879,19.0699105 C640.490236,19.249768 637.756068,19.5877107 635.035163,20.033568 C634.465781,15.7917712 634.083983,11.615291 634.264934,7.27599257 C634.394727,4.1966431 625.333886,4.06222329 625.200304,7.27599257 C624.997562,12.1245717 625.191777,17.1028376 626.280329,21.8520218 C623.788692,22.4711102 621.316003,23.1564619 618.872684,23.9005039 C617.333175,24.36908 615.955669,25.5107017 617.246962,26.9987857 C618.503202,28.4471118 621.840858,28.300386 623.448579,27.8119309 C627.824575,26.4790923 632.20815,25.5324739 636.638147,24.7108092 C636.425932,24.9947947 636.327403,25.3223247 636.374773,25.6905592 C636.689306,28.0684645 636.786887,30.4454231 636.532039,32.8337412 C636.287613,35.1397035 635.114743,37.5308614 635.338328,39.7923326 C635.399908,40.4171007 635.701178,40.8771573 636.145504,41.2056338 C635.249273,41.4318756 634.355884,41.6600106 633.462495,41.8909855 C633.201962,41.5378969 632.875113,41.2179399 632.510367,40.7966947 C631.658664,39.8122116 630.997385,38.6592305 630.487689,37.4636515 C629.481561,35.1046786 629.334715,32.5970866 629.741146,30.0866548 C630.203472,27.2354403 621.209896,26.7952628 620.67462,30.0866548 C619.890181,34.9257677 621.592641,41.0768937 625.785791,43.930948 C623.441,44.5670756 621.114209,45.2050963 618.81584,45.8317577 C617.104854,46.2984405 616.103462,47.4021975 617.189171,48.9300395 C618.281512,50.4664011 621.906228,50.1483373 623.391736,49.7431847 C631.799825,47.4495284 640.268547,45.3735944 648.809271,43.6337099 C650.421729,43.3061799 652.046503,43.0174613 653.676015,42.7410488 C654.364767,45.7323627 655.204155,48.6810789 656.212179,51.565425 C657.368942,54.8757493 659.183195,57.8415046 661.4503,60.4200929 C658.773922,63.2561615 655.941225,65.955917 652.863154,68.4663489 C649.31423,71.3611077 655.558479,74.2123222 658.141065,72.1051498 C660.986078,69.7840416 663.634034,67.3228339 666.156935,64.7574982 C669.631962,67.3389264 673.654582,69.2350029 677.866679,70.3198276 C679.713143,70.79503 686.922783,69.5653728 682.855636,67.0890192" id="Fill-71" fill="#FFFFFF"></path>
                    <path d="M0,148.383561 C15.5893077,146.589719 31.1767206,144.746653 46.7641336,143.141189 C62.3505991,141.442955 77.9418016,139.879142 93.5330041,138.311542 C124.713514,135.185808 155.903498,132.214373 187.097272,129.322454 C249.487662,123.543349 311.899841,118.077575 374.330021,112.828576 C436.760201,107.576738 499.214065,102.611724 561.694457,97.9543622 L585.124367,96.2135311 L608.562803,94.5503226 L632.000293,92.8899541 L655.448203,91.3346601 L678.898008,89.7982985 L702.358235,88.3868906 L714.087874,87.6816599 L725.828882,87.066358 L749.309951,85.8603662 L749.603642,91.8676062 L726.177522,93.237363 L714.464936,93.9340741 L702.752349,94.7226072 L679.330966,96.2996733 L655.912424,98.0007465 L632.49483,99.7216986 L609.082921,101.546779 L585.671959,103.375645 L562.265733,105.283081 C499.849764,110.381568 437.455585,115.787705 375.087933,121.482561 C312.720281,127.173631 250.371577,133.080529 188.060768,139.298865 C156.905837,142.410399 125.759433,145.60145 94.6386086,148.945852 C79.0777226,150.621367 63.517784,152.294042 47.9805827,154.099243 C32.4253811,155.814515 16.9232333,157.758869 1.41161158,159.654946 L0,148.383561 Z" id="Fill-73" fill="#FFFFFF"></path>
                    <path d="M168.645614,265.022844 C231.037898,259.187889 293.441551,253.727794 355.858468,248.392653 C418.275384,243.067925 480.704616,237.902229 543.145218,232.885151 C605.585819,227.870914 668.041578,223.030854 730.517233,218.428396 C792.99573,213.85339 855.48749,209.451614 918.055041,205.861091 L918.413155,211.864545 C855.943185,215.895245 793.504478,220.740038 731.083772,225.757115 C668.663066,230.801644 606.259413,236.084721 543.870919,241.54103 C481.483371,247.001124 419.107193,252.609838 356.748067,258.376637 C294.391784,264.152902 232.042132,270.055067 169.753113,276.328307 L168.645614,265.022844 Z" id="Fill-75" fill="#FFFFFF"></path>
                </g>
            </g>
        </g>
    </g>
</svg>