<?xml version="1.0" encoding="UTF-8"?>
<svg width="354px" height="124px" viewBox="0 0 354 124" version="1.1" xmlns="http://www.w3.org/2000/svg" xmlns:xlink="http://www.w3.org/1999/xlink">
    <title>Group 79</title>
    <defs>
        <polygon id="path-1" points="0.283560358 0.125552407 323.14217 0.125552407 323.14217 28.7832845 0.283560358 28.7832845"></polygon>
    </defs>
    <g id="LP" stroke="none" stroke-width="1" fill="none" fill-rule="evenodd">
        <g id="lp_カルーセル" transform="translate(-10.000000, -136.000000)">
            <g id="Group-79" transform="translate(10.196990, 136.713919)">
                <g id="Group-78" transform="translate(0.777046, 0.294421)">
                    <path d="M195.569739,26.548476 C195.569739,41.210581 183.612734,53.0969115 168.862538,53.0969115 C154.11275,53.0969115 142.155337,41.210581 142.155337,26.548476 C142.155337,11.8859657 154.11275,4.05400087e-05 168.862538,4.05400087e-05 C183.612734,4.05400087e-05 195.569739,11.8859657 195.569739,26.548476" id="Fill-1" fill="#00A6A6"></path>
                    <path d="M221.865691,81.6215103 C221.604275,96.2811828 209.43724,107.955084 194.689491,107.695222 C179.941742,107.436172 168.198029,95.34106 168.459444,80.6809821 C168.72086,66.0213095 180.887895,54.3474086 195.635644,54.6068647 C210.383393,54.8663207 222.127106,66.9614323 221.865691,81.6215103" id="Fill-3" fill="#00A6A6"></path>
                    <path d="M34.631231,49.6511324 C30.9363412,43.095813 25.6007736,36.8684623 19.1192192,32.885001 C12.0748671,28.5557335 5.36982487,36.3471177 1.5778729,41.5009691 C0.679027752,42.7220341 5.15123095,43.249865 6.09942285,41.9606928 C7.89018013,39.5266706 9.96315193,37.3111592 12.3065114,35.3932113 C13.7979255,34.1725517 14.2734488,33.6362074 15.8798694,34.682545 C17.0172919,35.4236163 18.0980267,36.2863077 19.1420574,37.1514315 C23.6252719,40.8653017 27.3034408,45.3688913 30.1529104,50.4242304 C30.91595,51.7786721 35.4786902,51.1555721 34.631231,49.6511324" id="Fill-5" fill="#FFFFFF"></path>
                    <path d="M28.8149607,29.9068914 C28.3969406,28.847581 27.8981712,27.827189 27.3418987,26.8335534 C26.5784512,25.4697875 22.0095936,25.9684296 22.8391086,27.4501669 C23.3623474,28.3858303 23.8366473,29.3433853 24.2383544,30.3374263 C24.6474023,31.3488995 24.7668949,32.5107762 25.668187,33.1869835 C26.537261,33.8388669 28.6347022,34.0022431 29.3055735,32.9506353 C29.8814217,32.0482147 29.1771088,30.8247172 28.8149607,29.9068914" id="Fill-7" fill="#FFFFFF"></path>
                    <path d="M36.2027826,30.2912918 C35.6359066,28.6056382 34.9948065,26.9414709 34.3867402,25.2696009 C33.7966182,23.6480006 29.2595709,24.4332605 29.7436586,25.7637836 C30.388429,27.5370036 31.0075066,29.322791 31.6955065,31.079795 C32.2024323,32.373832 36.6448643,31.6076259 36.2027826,30.2912918" id="Fill-9" fill="#FFFFFF"></path>
                    <path d="M66.1722943,39.0517444 C62.9223411,36.998393 58.7882244,35.8336785 55.2250619,34.3819408 C54.4811901,34.079107 53.4298186,33.9205955 52.5717559,34.1528898 C52.2960666,30.8853651 52.1590375,27.5959488 52.2373398,24.2432901 C52.2744519,22.6606081 47.6069007,22.6638513 47.5681574,24.3097757 C47.374033,32.5933156 47.8267181,41.3600925 50.0122495,49.3963384 C50.4290461,50.9283454 54.846193,50.8505086 54.5978279,49.3306636 C53.8886211,44.9888287 53.2303924,40.7155064 52.7854559,36.4190763 C56.2062876,37.8671654 59.7233659,39.6395746 63.2922379,40.5351033 C64.0316237,40.7207766 65.176387,40.7807758 65.8590851,40.3336195 C66.27058,40.0644338 66.8162492,39.4591715 66.1722943,39.0517444" id="Fill-11" fill="#FFFFFF"></path>
                    <path d="M96.0155844,26.8885662 C93.4638267,26.8459992 90.8476327,27.1999134 88.263249,27.6186917 C88.3244226,25.3184516 88.2245056,23.0153737 87.9655371,20.7366198 C87.7738596,19.0493447 83.1336327,19.0197505 83.3020642,20.5010824 C83.6042621,23.1609124 83.671961,25.7939859 83.5304459,28.3970599 C79.7327844,28.9934034 75.9489889,29.6651514 72.1786516,30.4131145 C71.3548462,30.5764908 70.6529803,31.1837801 71.2606388,31.9564726 C71.8899119,32.7567324 73.567294,32.7048412 74.4294349,32.5337624 C77.386978,31.9471484 80.3530854,31.4018853 83.328165,30.9105404 C82.735596,36.367631 81.1993212,41.6791829 78.8217045,46.7949266 C78.0704918,48.410446 82.5651254,48.9792223 83.2572035,47.6328886 C86.034896,42.2280946 87.6364227,36.2602 88.1184713,30.2096037 C91.0882491,29.8698784 94.1550892,29.6602866 96.9841675,28.9042154 C99.12076,28.3330067 97.417685,26.9120794 96.0155844,26.8885662" id="Fill-13" fill="#FFFFFF"></path>
                    <path d="M129.663877,34.6343024 C129.160621,32.1702807 128.289508,29.8076089 127.139443,27.5718275 C126.433907,26.1995482 121.855669,26.7723785 122.659084,28.334385 C123.472693,29.9162562 124.13704,31.5463699 124.614602,33.2433747 C121.508203,34.0736341 118.428313,35.0133515 115.339042,35.9048263 C113.782784,36.3540095 112.226118,36.8035982 110.669452,37.2527815 C110.021011,37.4400764 109.372162,37.6273712 108.723721,37.8146661 C108.676822,37.8280443 108.629514,37.8418279 108.582614,37.8552061 C108.579759,35.2853749 110.405182,32.1491998 111.335021,30.1205778 C112.703273,27.1327792 115.208946,22.5351368 116.578421,19.5477435 C117.297415,17.9808722 112.711021,17.6533089 112.058094,19.077074 C110.368885,22.7601338 107.479857,28.0315512 105.862017,31.7462322 C105.041066,33.6305318 102.412638,39.2205936 105.13405,40.4749014 C106.462335,41.087461 107.875854,40.6715205 109.199245,40.3026064 C111.150277,39.7601811 113.091114,39.1792428 115.036436,38.6177636 C118.404659,37.6456142 121.79001,36.7148156 125.149668,35.7073964 C125.431474,37.7773693 125.184741,39.9559893 125.641912,41.9420443 C125.94778,43.272162 129.353522,43.3325666 129.813956,42.0871776 C130.647957,39.8319369 130.134914,36.9398127 129.663877,34.6343024" id="Fill-15" fill="#FFFFFF"></path>
                    <path d="M160.281789,32.5819644 C159.791584,32.8714201 159.385798,33.1523624 158.985315,33.4807364 C158.85685,33.115471 158.75367,32.7830429 158.681078,32.5738564 C158.230432,31.269279 157.995933,29.9083509 157.87073,28.5372878 C157.637455,25.9812402 157.837697,23.4081659 158.104822,20.8630641 C158.264689,19.3407868 153.611004,19.1887618 153.435231,20.8630641 C152.949105,25.4947601 152.718276,30.4568572 154.827544,34.7605845 C156.941298,39.0724198 161.855583,37.1873094 163.730352,33.5796541 C164.475856,32.1445377 160.900051,32.2175098 160.281789,32.5819644" id="Fill-17" fill="#FFFFFF"></path>
                    <path d="M177.930148,16.3097725 C173.876781,15.5208639 168.943328,17.2101661 165.251701,18.7356866 C164.299023,19.1297355 164.54331,19.9275629 165.251701,20.3771516 C166.162781,20.9552521 167.618714,20.7634979 168.553448,20.3771516 C169.740625,19.8862121 170.955126,19.4739202 172.202253,19.1593297 C172.796454,19.0097371 175.637359,18.1766399 175.984418,18.6521742 C176.256844,19.0247369 175.082718,20.2105322 174.885331,20.5056634 C174.370248,21.276329 174.185096,21.6326757 174.441618,22.517664 C174.829867,23.8587275 177.916282,23.3345452 178.531689,22.517664 C179.229885,21.590514 180.629131,19.9766163 180.704986,18.7770374 C180.800417,17.2648951 179.171158,16.551391 177.930148,16.3097725" id="Fill-19" fill="#FFFFFF"></path>
                    <path d="M182.853935,30.3131023 C179.135392,31.6647062 175.020035,35.3242528 171.316989,31.9063247 C170.241148,30.9130944 165.749777,31.6602468 167.284828,33.0775255 C169.639199,35.2508754 172.951549,35.9210017 176.084865,35.6331677 C179.289957,35.3388472 183.361269,33.9519735 185.76254,31.7583536 C187.191149,30.4541815 183.551315,30.0593219 182.853935,30.3131023" id="Fill-21" fill="#FFFFFF"></path>
                    <path d="M61.9140359,103.760166 C59.0841418,97.5543012 52.2665401,90.4800697 46.6679257,86.6012017 C43.81397,84.6236601 41.2393741,83.6965101 38.2667415,86.0085068 C35.3691486,88.2617205 32.8500168,91.0058736 30.6449099,93.9219165 C29.7032431,95.1681163 34.1713681,95.8945933 35.1362808,94.6183938 C36.9237755,92.2545059 38.9266015,90.087237 41.1818708,88.1563164 C41.2585418,88.0906416 41.743853,87.7387543 42.1696217,87.4091641 C42.3180698,87.5068655 42.4693727,87.6005129 42.6157817,87.7014575 C43.6985557,88.4445559 44.7393237,89.2496805 45.7397172,90.099399 C49.8978955,93.63165 54.9116896,99.5095459 57.4414248,104.292861 C58.1367656,105.60879 62.6477121,105.369199 61.9140359,103.760166" id="Fill-23" fill="#FFFFFF"></path>
                    <path d="M55.8870834,83.3401229 C55.4682477,82.229732 55.0490041,81.1189358 54.6305762,80.0085449 C54.094287,78.5884284 49.4789374,78.8620735 50.1175906,80.5461055 C50.5380576,81.6564963 50.9589325,82.7668871 51.3793995,83.8768726 C51.8002743,84.9872634 52.0604664,86.1471131 52.934842,86.9814264 C53.7390719,87.750065 56.4837306,87.8866848 56.7879677,86.5318377 C57.0147181,85.5219861 56.2447455,84.2879483 55.8870834,83.3401229" id="Fill-25" fill="#FFFFFF"></path>
                    <path d="M62.7890233,82.2997041 L61.6601651,78.7435345 C61.2095191,77.3226072 56.5921304,77.5309829 57.1471795,79.281095 C57.4999477,80.3922967 57.8527158,81.5039037 58.205484,82.6151053 C58.5615148,83.736442 58.7458514,84.8711568 59.5884168,85.7220916 C60.2050474,86.3451915 63.0227067,86.6893762 63.3632401,85.5437156 C63.6972484,84.4215681 63.1364897,83.3942843 62.7890233,82.2997041" id="Fill-27" fill="#FFFFFF"></path>
                    <path d="M92.6299072,90.4373811 C90.5932317,89.3099635 87.9550152,88.8745638 85.6940363,88.3621381 C83.5749804,87.8821443 81.4343097,87.5180951 79.2830356,87.2172882 C79.1292857,83.7430095 79.0142792,80.2691361 78.819747,76.8317488 C78.7288021,75.2255536 74.0657371,75.4752801 74.1574976,77.0956642 C74.428293,81.8801961 74.6986806,86.6643225 74.9694761,91.4488543 L75.3638424,98.4205196 C75.467022,100.248874 75.3108252,102.122228 76.7165961,103.454372 C77.3756405,104.078689 80.8531598,104.103013 80.6317111,102.700328 C79.9579851,98.4338978 79.6264238,94.0799009 79.4013047,89.7129311 C80.8849701,89.9553604 82.3600712,90.2419783 83.8262002,90.5817035 C85.941178,91.072643 88.0243454,91.8793892 90.1584909,92.2353305 C91.1058671,92.3930311 94.7942317,91.6357438 92.6299072,90.4373811" id="Fill-29" fill="#FFFFFF"></path>
                    <path d="M125.609531,80.2121369 C125.386451,79.3040407 123.466005,79.1633668 122.798804,79.2107987 C120.481953,79.3766073 118.168365,79.5821451 115.858447,79.8184934 C115.983242,78.0379762 115.720195,74.6492369 115.641893,72.8533145 C115.568892,71.1802283 110.916023,71.0038793 110.982906,72.5399402 C111.073443,74.6253183 111.307534,78.2958107 111.125644,80.3515945 C106.889164,80.8737498 102.666957,81.5098225 98.4631022,82.2638667 C97.6360342,82.4122431 96.9251961,83.0093975 97.5193964,83.7918196 C98.136027,84.6030252 99.8121856,84.5766742 100.678405,84.421406 C104.056007,83.8157382 107.445436,83.2956099 110.843838,82.8504806 C109.950702,89.097696 108.638731,94.3796537 105.283559,99.8460685 C104.390423,101.301455 108.911565,102.104552 109.734147,100.763489 C113.345433,94.8803228 114.783422,89.0559398 115.614568,82.2760287 C118.365344,81.976438 121.122646,81.72509 123.885657,81.5272547 C124.63116,81.4737419 125.845661,81.1733405 125.609531,80.2121369" id="Fill-31" fill="#FFFFFF"></path>
                    <path d="M157.219924,89.86374 C156.629394,87.997278 155.920595,86.1758154 155.133494,84.3831362 C154.514417,82.9747763 149.910486,83.3059882 150.620101,84.9211021 C151.173518,86.1806802 151.688193,87.4540419 152.149035,88.7480789 C151.95491,88.7610517 151.771389,88.7918621 151.606628,88.845375 C148.735136,89.7790114 145.835096,90.6117031 142.897536,91.3130453 C141.492989,91.6483112 140.082732,91.9596584 138.66595,92.2361413 C137.821753,92.4007337 136.974294,92.5511371 136.126019,92.6930272 C135.73777,92.7582966 135.349113,92.8207282 134.959641,92.880322 C134.466581,93.0031582 134.442112,92.9646452 134.885825,92.7655938 C134.651733,91.7764176 135.780184,90.003603 136.177812,89.1056418 C136.742242,87.8318747 137.344598,86.5751345 137.986922,85.3386642 C139.389838,82.6374834 143.015805,76.9359366 144.754361,74.4358343 C145.670743,73.1186894 141.17407,72.4299146 140.26299,73.7401677 C137.944508,77.0737726 133.863001,83.6882805 132.156255,87.3713402 C131.160756,89.5199607 128.709731,93.3177487 131.80104,94.813675 C134.66356,96.1993325 138.853549,94.720433 141.758483,94.1261165 C145.531267,93.3542347 149.248995,92.3626261 152.918599,91.2043981 C153.277485,92.6131634 153.554398,94.0782793 154.214258,95.3394789 C154.76686,96.3951408 158.261916,96.6108136 158.384263,95.1323195 C158.524555,93.4361255 157.729297,91.4743945 157.219924,89.86374" id="Fill-33" fill="#FFFFFF"></path>
                    <path d="M201.262969,89.7560657 C199.105985,90.3990302 196.747129,91.6549597 194.437211,90.9005102 C192.34915,90.2186272 192.04532,87.8417665 192.330797,85.9623317 C192.97516,81.7165766 196.34012,77.9159508 199.635342,75.3927406 C200.29357,74.8884229 199.800103,74.3046468 199.295216,73.9803267 C198.513417,73.478036 197.326647,73.5599268 196.4694,73.7492487 C190.376095,75.09315 184.538087,77.2733916 178.713538,79.4686331 C177.744955,79.8338986 177.99332,80.6536176 178.684583,81.1096927 C179.594439,81.7100902 181.034059,81.5264439 181.985514,81.1676649 C185.247294,79.9384918 188.514376,78.7324265 191.832028,77.6856835 C188.839004,81.0488826 186.43284,85.4770678 187.982165,89.4807991 C190.099182,94.952484 200.386962,94.2738443 204.138539,91.2491542 C205.662172,90.020792 201.909779,89.5635007 201.262969,89.7560657" id="Fill-35" fill="#FFFFFF"></path>
                    <path d="M203.294914,70.3637526 C202.951933,68.6306672 202.127312,66.908933 201.522101,65.2488197 C201.004164,63.8282978 196.388814,64.0865376 197.009115,65.7863802 C197.581293,67.3564947 198.027045,69.1139041 198.817001,70.5859118 C199.234613,71.3638746 200.543322,71.4854946 201.300652,71.4404952 C201.777807,71.4121172 203.455597,71.1745527 203.294914,70.3637526" id="Fill-37" fill="#FFFFFF"></path>
                    <path d="M210.091716,70.0620944 C209.891475,69.0668371 209.730384,68.0650935 209.595394,67.0592959 C209.369867,65.3809395 204.726786,65.4875598 204.92662,66.9769997 C205.070174,68.0500937 205.244315,69.1183229 205.462909,70.1788496 C205.683134,71.248295 205.796509,72.254498 206.524476,73.0880006 C207.130503,73.7816401 210.026872,74.0370422 210.38535,72.9055706 C210.689179,71.9455832 210.28788,71.0362708 210.091716,70.0620944" id="Fill-39" fill="#FFFFFF"></path>
                    <path d="M209.86154,23.6928784 C209.600125,22.3814091 209.416196,21.0622372 209.295072,19.7337411 C209.313832,19.8642799 209.378676,20.0033322 209.507549,20.1513032 C210.04914,20.7723761 211.481827,20.7075121 212.175536,20.4995419 C212.229777,21.3050718 212.281979,22.1162774 212.332957,22.9319424 C211.50385,23.176804 210.680044,23.4313953 209.86154,23.6928784 M210.31708,16.530675 C210.842358,16.3717582 211.370491,16.2351384 211.899847,16.1078427 C211.941037,16.8326981 211.988753,17.557148 212.035245,18.2820034 C211.406379,18.4636226 210.793827,18.6484851 210.207783,18.8240233 C209.724919,18.9691565 209.283245,19.2687472 209.28977,19.6656339 C209.197602,18.6347015 209.139283,17.5989043 209.132758,16.5545936 C209.557303,16.6267548 209.985519,16.6308088 210.31708,16.530675 M220.38382,14.4355674 C220.386674,14.5511064 220.39687,14.6796182 220.42501,14.8352919 C220.153399,15.3910954 220.203153,16.3883796 220.176237,17.0970189 C218.801869,16.9555343 217.339818,17.0844515 215.879806,17.3475562 C215.838616,16.6770245 215.794571,16.0073035 215.758682,15.3367718 C217.306376,15.0663699 218.85407,14.8056977 220.38382,14.4355674 M219.763926,21.160344 C218.571856,21.3602063 217.384678,21.6095273 216.204027,21.8920912 C216.140406,21.2098028 216.082903,20.5279199 216.035187,19.8472531 C216.027846,19.7394167 216.022545,19.6319857 216.015204,19.5249601 C216.277027,19.4718527 216.53885,19.417529 216.802713,19.3713134 C217.847559,19.188478 218.950317,19.1487488 219.996794,18.9351029 C219.9189,19.6765797 219.841413,20.4184619 219.763926,21.160344 M224.44983,26.4268965 C221.903374,26.8497288 219.376493,27.3548573 216.870004,27.9410659 C216.719517,26.6555422 216.566175,25.3704239 216.426291,24.0861164 C217.611837,23.7844988 218.800645,23.4946377 219.993124,23.2068037 C220.947841,23.8230118 223.403352,23.6750408 223.519174,22.5674877 C223.788746,19.989954 224.075855,17.4144472 224.32789,14.8352919 C224.483679,13.2420695 224.070553,12.5107278 222.355243,12.3339733 C220.255355,12.1178951 217.864688,12.6915362 215.804359,13.0592341 C215.753381,13.0681529 215.703218,13.0790987 215.652648,13.0884229 C215.609826,12.1507325 215.569452,11.2130421 215.535602,10.2745409 C217.700335,9.8942756 219.842637,9.4414437 221.848725,8.75226356 C223.918434,8.0420026 221.571812,7.099042 220.50943,7.17444642 C218.838165,7.29201244 217.147732,7.5579549 215.457708,7.88592357 C215.409992,6.20108081 215.372472,4.51542725 215.352489,2.82977369 C215.336176,1.4781698 211.433296,1.4810076 211.450017,2.82977369 C211.472855,4.79069391 211.521386,6.75120873 211.582152,8.71091275 C210.212677,9.01698981 208.851767,9.32266148 207.51084,9.58252293 C204.947663,10.0803542 206.709465,11.809791 208.548346,11.4534443 C209.564236,11.2560145 210.604189,11.0829087 211.653929,10.9134514 C211.691857,11.9139788 211.73998,12.9145062 211.788919,13.9150337 C210.634776,14.1992191 209.487157,14.5113772 208.347288,14.8555619 C207.718831,15.0456945 207.457007,15.277178 207.4358,15.5090668 C206.381166,15.4421758 205.225392,15.7733877 205.22947,16.5099996 C205.245783,19.6036077 205.631177,22.6315409 206.391362,25.6315016 C206.755957,27.0710773 210.268957,26.7978376 210.27589,25.6315016 L210.294242,25.6315016 C210.288125,25.6079884 210.282415,25.5840698 210.277113,25.5605566 C210.676374,25.6169072 211.074003,25.60961 211.386396,25.5086653 C211.74936,25.3915047 212.113547,25.2881277 212.477734,25.1778589 C212.561746,26.4455449 212.656769,27.7156634 212.772591,28.9833495 C209.855831,29.7787445 206.968026,30.6815705 204.116517,31.7096651 C201.725442,32.5719511 204.718058,33.8781501 206.086309,33.3847782 C208.368495,32.5618161 210.671888,31.8150691 212.995671,31.1416996 C213.216712,33.0555934 213.501374,34.9508388 213.910014,36.7937876 C214.184888,38.031474 217.693402,38.1153918 217.64691,36.7937876 C217.567792,34.5462495 217.356539,32.2934412 217.108581,30.0394167 C219.874039,29.3522636 222.666005,28.766055 225.487335,28.2970071 C228.070903,27.8684993 226.287079,26.1220357 224.44983,26.4268965" id="Fill-41" fill="#FFFFFF"></path>
                    <path d="M238.097023,12.2640823 C235.003675,12.1408407 231.584474,13.2410966 228.63468,14.0855449 C227.965848,14.2772992 227.383474,14.7808061 227.934445,15.4128248 C228.481338,16.0395734 229.905461,15.9605203 230.604472,15.7606581 C232.039606,15.349177 233.485344,14.9725603 234.949434,14.6741859 C236.280165,14.4025678 237.693685,14.3279742 238.96936,13.8654127 C240.695273,13.239475 239.218948,12.3086764 238.097023,12.2640823" id="Fill-43" fill="#FFFFFF"></path>
                    <path d="M241.314187,26.2420746 C240.702858,25.0927654 236.877057,25.4904629 237.550783,26.7573382 C237.991641,27.5851651 238.336253,28.4211001 238.605417,29.2712241 C236.818738,29.7045968 235.073249,30.2891837 233.352638,30.943094 C232.449715,31.2852517 231.554132,31.6444362 230.668745,32.0291609 C231.065558,30.59445 232.045968,28.8427162 232.418312,28.1158338 C233.348152,26.2984253 234.50148,24.6261499 235.853825,23.0937376 C236.416215,22.4560432 235.866876,21.9946979 235.047556,21.7851061 C237.061802,21.3156528 239.05484,20.7780923 240.902692,20.0131023 C242.600466,19.3097332 239.880277,18.4973114 239.220824,18.5767698 C235.226591,19.0583851 231.202995,20.444448 227.303785,21.4210568 C226.559914,21.6075408 226.141893,22.102129 226.603551,22.7483367 C227.079482,23.414409 228.627176,23.25833 229.27317,23.09617 C230.238898,22.8545515 231.228688,22.6336085 232.227042,22.4146924 C230.597784,24.3034514 229.196091,26.3373437 228.161032,28.6160976 C227.573765,29.9097292 225.696549,33.3398194 227.114555,34.5539926 C228.614125,35.8387055 230.867356,34.5677762 232.276389,33.9162983 C234.508005,32.8833389 236.79957,32.1349703 239.109896,31.3780883 C239.257936,32.2736171 239.334607,33.1910375 239.344395,34.1400791 C239.358669,35.4738454 243.168565,35.4920884 243.220767,34.1400791 C243.327617,31.3845747 242.60536,28.6687996 241.314187,26.2420746" id="Fill-45" fill="#FFFFFF"></path>
                    <path d="M311.402249,26.6636907 C310.875748,25.6270827 310.349246,24.5908801 309.823153,23.5538667 C309.255461,22.4361786 305.551599,22.8038765 306.185766,24.0525088 C306.71186,25.0891168 307.238361,26.1257248 307.764863,27.1619274 C308.274643,28.1665089 308.680836,29.2618999 309.48629,30.0637813 C310.01116,30.5867474 312.751333,30.7959338 312.678332,29.6340572 C312.61308,28.5913681 311.869616,27.5843543 311.402249,26.6636907" id="Fill-47" fill="#FFFFFF"></path>
                    <path d="M236.046726,77.2207302 C236.044687,77.2211356 236.043056,77.2219464 236.041425,77.2227572 C236.008391,77.201271 235.977804,77.1777578 235.942323,77.158704 C235.656031,76.2262838 235.459459,75.2812961 235.347715,74.3225249 C236.001866,74.6918444 237.109517,74.8775177 237.807713,74.6115752 C237.81383,74.6095482 237.819947,74.6079266 237.825657,74.6054942 C237.8644,75.2650801 237.904367,75.9246661 237.944742,76.584252 C237.304457,76.7950601 236.669882,77.0095167 236.046726,77.2207302 M235.274307,71.3124293 C235.305709,70.8263546 234.799191,70.5097371 234.136477,70.3666309 C234.677252,70.3816307 235.23434,70.2948751 235.568348,70.2142005 C236.231471,70.0540674 236.895409,69.8983938 237.560163,69.7459634 C237.601761,70.5648715 237.646214,71.3837797 237.690667,72.2022825 C237.034477,72.4114689 236.383182,72.6368714 235.740042,72.881733 C235.543879,72.9563267 235.386051,73.0341635 235.25677,73.1128111 C235.232301,72.5180892 235.235564,71.9189078 235.274307,71.3124293 M244.570666,68.3331441 C245.097167,68.1442276 245.167313,68.209497 244.781511,68.5289523 C244.508269,68.7044905 244.438123,68.9485414 244.571889,69.2598887 C244.484207,69.7123152 244.5568,70.2506865 244.622867,70.7704094 C244.542934,70.7756796 244.467486,70.7813552 244.402642,70.788247 C243.498495,70.8790566 242.59965,71.015271 241.706922,71.1843229 C241.664509,70.3836577 241.621279,69.5821817 241.58172,68.7811112 C242.68774,68.4726017 243.976058,68.1523356 244.570666,68.3331441 M244.688935,74.8811663 C243.773369,75.0035971 242.856987,75.1912973 241.945092,75.4134566 C241.904717,74.7396816 241.862711,74.0659067 241.824376,73.3921317 C242.777462,73.1663239 243.738704,72.9721373 244.719114,72.8233554 C244.721969,73.5096978 244.708918,74.1952293 244.688935,74.8811663 M250.014307,80.2020424 C247.474376,80.4019046 244.896925,80.8802767 242.334972,81.4924309 C242.25096,80.2790684 242.168987,79.0661114 242.091501,77.8527489 C243.221175,77.576266 244.350848,77.302621 245.451974,76.9714091 C246.621615,77.3788362 248.658291,77.1051911 248.70519,76.0880423 C248.81775,73.6605066 248.862203,71.1924309 248.599972,68.7713816 C248.433171,67.227618 248.086521,66.345062 246.397719,66.1196596 C244.839014,65.9120947 243.093933,66.3462782 241.486289,66.7216787 C241.43735,65.6506117 241.390858,64.5795447 241.346813,63.508883 C242.96139,63.2603728 244.574336,63.0086193 246.170969,62.6611914 C248.191331,62.220927 247.434409,60.8599989 245.665267,60.8612151 C244.206886,60.8620259 242.73097,60.9974295 241.255461,61.2082375 C241.195103,59.5805562 241.138823,57.9528748 241.091107,56.3247881 C241.049509,54.9107526 236.981052,54.9569682 237.02265,56.3568147 C237.077299,58.2216551 237.143366,60.0856847 237.215144,61.9497143 C235.859535,62.2436294 234.517385,62.5647062 233.206229,62.8792967 C232.426469,63.0665915 232.007225,63.6065844 232.487642,64.2686028 C232.995384,64.9667017 234.594871,64.7721097 235.273899,64.6091389 C235.947625,64.4469788 236.625022,64.3095482 237.303641,64.180631 C237.350949,65.3141296 237.402743,66.4472229 237.456168,67.5803161 C236.134817,67.8681502 234.815504,68.16693 233.500678,68.4843583 C232.721326,68.6724639 232.300859,69.2112406 232.782092,69.8736644 C232.940327,70.0913642 233.210307,70.2154167 233.520254,70.2871725 C232.440742,70.2308219 231.255197,70.5693309 231.20585,71.3444559 C231.032932,74.0460421 231.491735,76.6353324 232.522307,79.136651 C232.973769,80.2316366 235.86239,80.1460972 236.430081,79.077868 C237.027544,79.156921 237.686589,79.0892192 238.094413,78.9554371 C238.172715,80.1513674 238.252241,81.3472976 238.337069,82.5424171 C236.368092,83.0970044 234.423993,83.6864561 232.531687,84.2446921 C231.770687,84.4692837 231.315147,84.948872 231.813101,85.6339982 C232.304121,86.3098001 233.939497,86.1691263 234.599357,85.9745342 C235.898278,85.5910258 237.201685,85.2237333 238.508763,84.8702244 C238.65354,86.813307 238.804028,88.7559842 238.96675,90.6978507 C239.094399,92.218101 243.281533,91.9002673 243.035614,90.665824 C242.84516,88.3943674 242.670196,86.1216945 242.504219,83.8486162 C242.675098,83.8072654 242.844753,83.7634822 243.015631,83.7229422 C245.803927,83.0605184 248.711308,82.6948475 251.45148,81.869453 C253.689621,81.195678 251.111763,80.1160976 250.014307,80.2020424" id="Fill-49" fill="#FFFFFF"></path>
                    <path d="M265.016212,65.3330618 C264.612466,64.6775299 263.210773,64.6540167 262.586394,64.7610423 C259.553811,65.2787382 256.548144,66.139808 253.595495,66.9891212 C252.870383,67.1974968 252.249674,67.7553273 252.849176,68.4315347 C253.449494,69.1085528 254.984138,69.0031488 255.742691,68.7854489 C258.538736,67.9811352 261.380864,67.3783052 264.185473,66.6157477 C264.826573,66.4414256 265.417919,65.9853505 265.016212,65.3330618" id="Fill-51" fill="#FFFFFF"></path>
                    <path d="M267.893291,80.1666104 C267.186531,78.9402752 263.058124,79.4291877 263.823611,80.756873 C264.180457,81.3747027 264.503862,82.0055052 264.79668,82.649686 C263.159265,83.1535983 261.535308,83.7061586 259.907272,84.2372327 C258.805738,84.5964172 257.582673,85.1234373 256.364501,85.5401886 C256.603078,84.1772335 257.544337,82.3529331 257.844904,81.6309155 C258.497015,80.0656658 259.282893,78.5729827 260.146257,77.1143532 C260.473333,76.5621983 259.900747,76.1608522 259.085506,75.9788275 C261.461491,75.3042418 263.84441,74.6584395 266.214686,73.9396651 C268.543771,73.2326474 265.978147,71.8696923 264.644969,72.1186079 C259.957027,72.9938667 255.341269,74.514117 250.838072,76.0546374 C248.23452,76.9461121 251.504049,78.3577152 252.98486,77.8509651 C253.946918,77.5221857 254.913054,77.2157032 255.882045,76.9193557 C254.66999,79.0095986 253.639418,81.1841647 252.878825,83.4795399 C252.386989,84.9633043 251.27893,87.1480053 253.198967,87.9936699 C255.040703,88.8052809 257.561058,87.4978656 259.26087,86.9440891 C261.381966,86.2524765 263.521413,85.595323 265.639245,84.8846566 C265.648625,84.9162779 265.66086,84.9466829 265.67024,84.9787095 C266.07317,86.3635562 266.066645,87.8570501 266.604974,89.186357 C267.076827,90.3510714 270.076783,90.0676968 270.372048,88.9029823 C271.048221,86.2358551 269.19629,82.4259051 267.893291,80.1666104" id="Fill-53" fill="#FFFFFF"></path>
                    <path d="M282.415676,83.4256217 C282.288435,82.742928 282.208909,81.7780758 282.170573,81.5518625 C282.018863,80.6616039 281.880202,79.7685076 281.752961,78.8746004 C281.666502,78.2656894 281.591871,77.6555623 281.517647,77.0450298 C282.179138,77.155704 282.934021,77.0973264 283.421371,76.8119247 C284.243953,76.3294986 285.090189,75.9484225 285.946212,75.5896435 C285.946212,75.6638317 285.947436,75.7384253 285.94662,75.8130189 C285.927453,78.1039348 285.702741,80.3628241 285.479661,82.623335 C284.463363,82.769279 283.436053,83.0668427 282.415676,83.4256217 M282.733371,71.8336117 C283.444617,71.469157 284.156679,71.1042969 284.868332,70.7398422 C285.172977,70.5837632 285.47803,70.4272787 285.783083,70.2711997 L285.783491,70.2711997 C285.84548,71.2202413 285.890748,72.1704991 285.918073,73.1215677 C284.317769,73.4722388 282.738265,74.2165534 281.293751,75.0261373 C281.257047,74.6645205 281.215041,74.3029036 281.182415,73.9408813 C281.126543,73.3246732 281.084537,72.7080596 281.041308,72.0918515 C281.6351,72.1530669 282.263965,72.0740139 282.733371,71.8336117 M289.115416,64.4816811 C288.923739,63.0704834 285.020859,63.1616984 285.190514,64.4123577 C285.354051,65.6159905 285.490265,66.8220558 285.602824,68.0297426 C284.894841,68.0467694 284.181148,68.2660909 283.499266,68.6139242 C282.638348,69.0525671 281.777023,69.4912099 280.915698,69.9298528 C280.814965,67.8108266 280.77459,65.6897733 280.799468,63.5666931 C280.807216,62.9139989 279.901846,62.5617063 278.958956,62.5203555 C280.66407,61.9515791 282.375709,61.4046944 284.10203,60.9015929 C285.915626,60.373762 287.919675,60.0826847 289.601543,59.2171555 C291.190835,58.4002744 288.670888,57.7609584 288.007357,57.8067686 C284.05146,58.0771705 279.835778,59.8313367 276.104184,61.0986174 C274.108291,61.7764463 275.788528,62.8240001 277.215914,62.9075125 C277.008739,63.059943 276.87742,63.2549404 276.874565,63.4977751 C276.828073,67.5647487 276.998951,71.6248306 277.441033,75.6691019 C277.65351,77.6146169 277.923489,79.5536455 278.253012,81.4829445 C278.410024,82.4023919 278.415326,83.842373 278.984241,84.7135778 C278.835385,84.7679014 278.685306,84.8238466 278.538081,84.874927 C277.921042,85.0881675 277.206942,85.5438372 277.810522,86.1969367 C278.359454,86.7912533 279.784392,86.8370635 280.489113,86.5938234 C281.766012,86.1535589 283.042502,85.7136998 284.319401,85.2730299 C284.624046,85.1680313 284.940517,85.0719515 285.259436,84.9734393 C285.194592,85.7145106 285.135457,86.4572036 285.093859,87.2019235 C285.020043,88.5251494 288.544054,88.5073118 288.851962,87.2684092 C290.643127,80.050666 290.105206,71.7768556 289.115416,64.4816811" id="Fill-55" fill="#FFFFFF"></path>
                    <path d="M296.775951,84.3718255 C296.638922,83.7008884 296.512904,83.0283296 296.408909,82.3521223 C297.098948,82.4968501 297.903993,82.4230673 298.47454,82.1461791 C299.095656,81.8445614 299.724522,81.5697001 300.372555,81.3386221 C300.289358,82.1287469 300.191888,82.9160338 300.11848,83.7053478 C299.000633,83.767374 297.859132,84.1042615 296.775951,84.3718255 M297.719249,78.1258264 C298.568747,77.6900213 299.591979,77.3993494 300.431689,76.9424635 C300.441885,77.0089492 300.452488,77.0754348 300.462684,77.141515 C300.319945,77.5971847 300.516925,78.354472 300.521034,78.8279793 C300.521411,78.8960866 300.51774,78.9637884 300.517332,79.0318956 C299.01246,79.22892 297.489643,79.8755332 296.16503,80.5059303 C296.092437,79.8402634 296.031671,79.1733802 295.989665,78.5024431 C295.98314,78.3905527 295.943581,78.2912296 295.890972,78.1975822 C296.569591,78.3329858 297.311016,78.3354182 297.719249,78.1258264 M303.828051,75.5953191 C301.678816,73.2046747 297.119747,75.5932921 294.96888,76.6971965 C294.432999,76.9728686 294.317585,77.2477298 294.452982,77.4897537 C293.331873,77.3490798 292.017455,77.6677243 292.064762,78.4335251 C292.248691,81.3909187 292.747053,84.2745295 293.522735,87.1338163 C293.811067,88.1979916 296.120169,87.9121845 296.795118,87.6223234 C297.463951,87.3353002 297.872183,86.9100355 297.687031,86.2934219 C297.888496,86.2727465 298.082212,86.2427469 298.257169,86.2038285 L300.241643,85.75951 C300.258772,85.755456 300.277939,85.7522128 300.295476,85.7485642 C301.088694,86.4134204 303.362316,86.327881 303.655542,85.5114052 C304.253005,83.8476432 304.364341,82.004289 304.427146,80.2468797 C304.473638,78.9423022 304.802344,76.6781427 303.828051,75.5953191" id="Fill-57" fill="#FFFFFF"></path>
                    <path d="M302.571503,70.0834589 C303.118804,68.0734853 302.72403,65.5985178 302.155523,63.82246 C301.995247,63.3201693 301.216711,63.0639564 300.403101,63.0404432 C300.904725,62.992606 301.40798,62.9532822 301.915722,62.933823 C302.35087,62.9172016 303.260319,62.860851 303.677523,62.4688291 C303.813737,64.9150132 304.268869,67.3028197 305.011925,69.5844114 C304.197907,69.7449499 303.384298,69.9115693 302.571503,70.0834589 M319.079423,82.8523455 C319.010092,82.9200473 318.943209,82.9881545 318.87551,83.0558563 C317.367783,81.9847893 315.992191,80.7612918 314.756075,79.4177959 C316.091293,77.4580919 317.298861,75.4112269 318.430982,73.5484135 C319.158541,72.3520778 315.347421,71.8250577 314.655751,72.9634212 C313.932678,74.1524596 313.183504,75.3244713 312.409453,76.4794561 C311.230841,74.7731271 310.245944,72.9366647 309.481274,71.0081765 C310.853195,70.7231803 312.222262,70.428049 313.584803,70.1081883 C315.802145,69.5876546 313.390679,68.2117267 312.167206,68.3755084 C311.024481,68.5287496 309.882573,68.7103688 308.741072,68.9033393 C307.990675,66.4462094 307.583258,63.8755674 307.557158,61.2716826 C307.542884,59.9034574 303.618389,59.8552147 303.632255,61.2027646 C303.633478,61.2935743 303.637557,61.3839785 303.639596,61.4751935 C303.208117,61.097766 302.34149,60.9684434 301.950387,60.9834432 C300.876585,61.0239832 299.813387,61.109928 298.758752,61.2339804 C298.736322,60.7081765 298.586651,60.1608864 298.564628,59.6330555 C298.527516,58.7196891 298.61112,57.8201063 298.777105,56.9221451 C299.003855,55.7010801 295.114841,55.4387862 294.85261,56.8532271 C294.59201,58.2603708 294.28084,60.4993955 295.081807,61.8514048 C293.75026,62.1497792 292.432579,62.5263959 291.127133,62.9913898 C288.719745,63.8496218 291.69564,65.2036581 293.078573,64.7106916 C295.089556,63.9939442 297.140097,63.4693565 299.236723,63.1774685 C298.613975,63.3627363 298.187798,63.7288126 298.362347,64.2744811 C298.759976,65.5190594 298.932078,66.8041776 298.842356,68.1087551 C298.773434,69.1149581 298.382738,70.0623781 298.226134,71.0361491 C297.960232,71.0953376 297.694738,71.1549314 297.429652,71.2145252 C297.359099,71.1379046 297.274271,71.0702027 297.179656,71.0158791 C297.160896,70.9797985 297.132348,70.9347991 297.087488,70.8731783 C297.000621,70.6664243 296.935777,70.4527784 296.891732,70.2326462 C296.766938,69.7935979 296.662127,69.3476578 296.547528,68.9057717 C296.300794,67.9579463 296.054876,67.0097155 295.808142,66.0618901 C295.499419,64.8728516 291.620193,64.9973094 292.014151,66.5135058 C292.342858,67.7779486 292.671564,69.0415807 292.999455,70.3056182 C293.209893,71.1156076 293.472532,71.6418169 293.961105,71.9969473 C293.666248,72.0630276 293.370983,72.130324 293.076942,72.1955934 C292.322874,72.3638344 291.899145,72.8632873 292.348975,73.5180085 C292.818381,74.1998914 294.372192,74.0612446 295.027566,73.9148952 C298.603779,73.1174732 302.213841,72.4477522 305.814524,71.7447885 C306.956024,74.4739419 308.522478,77.0145842 310.442516,79.2799599 C309.10893,81.0414233 307.431548,82.7165364 306.386294,84.6288087 C305.684428,85.9131161 309.035521,85.8344685 309.608107,85.3629882 C310.810781,84.373812 311.915578,83.1823411 312.945335,81.8891149 C314.424106,83.2508538 316.051734,84.473135 317.811904,85.5223104 C318.615318,86.0010879 320.155671,85.9808179 320.897912,85.3792042 C321.575716,84.8302925 322.036966,84.4054332 322.32489,83.5922006 C322.804899,82.2357319 319.700131,82.2450561 319.079423,82.8523455" id="Fill-59" fill="#FFFFFF"></path>
                    <path d="M316.093454,60.9663353 C315.743541,60.0635093 315.392812,59.1610887 315.042898,58.2586681 C314.580018,57.0667919 310.70283,57.3031401 311.248907,58.7110946 C311.598821,59.6131098 311.94955,60.5159358 312.299463,61.417951 C312.651008,62.3236148 312.890401,63.2390082 313.560048,63.9585933 C314.163629,64.6068281 316.758208,64.7466911 316.889528,63.5698147 C316.985774,62.7091503 316.401769,61.7609195 316.093454,60.9663353" id="Fill-61" fill="#FFFFFF"></path>
                    <path d="M337.545266,84.150923 C337.338907,84.221868 337.182302,84.3065967 337.061994,84.3986225 C336.017556,84.0126816 335.641134,82.5564845 335.766744,81.5608219 C335.885013,80.6211045 336.796908,78.8134255 337.998767,78.8872083 C339.12477,78.9561263 339.806653,80.7885347 339.750373,81.6856851 C339.662283,83.0830992 338.748348,83.7398473 337.545266,84.150923 M343.543956,81.7525761 C343.691181,78.9074783 340.789102,77.1070965 338.239383,77.0158815 C335.614625,76.9222341 332.761485,78.1939742 332.08939,80.9206951 C331.382631,83.7884954 333.651358,85.920089 336.347894,86.2845437 C336.951066,86.3656237 338.227149,86.3887315 338.627632,85.7611722 C340.961204,85.7550912 343.412229,84.2924077 343.543956,81.7525761" id="Fill-63" fill="#FFFFFF"></path>
                    <path d="M256.701201,18.0928843 C257.775003,17.7847802 258.848397,17.4766761 259.921791,17.1693829 C259.982557,17.9104542 260.032719,18.6523364 260.078395,19.3942185 C258.938934,19.1854375 257.751757,19.5150278 256.648592,19.8166454 C255.95896,20.0051565 255.281972,20.2374507 254.614771,20.496096 C254.572765,19.9767785 254.537284,19.4578663 254.514854,18.9381434 C254.501396,18.631661 254.493647,18.3255839 254.48753,18.0195068 C255.162479,18.3085571 256.072743,18.2728819 256.701201,18.0928843 M260.275375,26.9979026 C260.088183,26.9723624 259.909148,26.9614166 259.755806,26.9715516 C258.539674,27.0534424 257.301111,27.2715476 256.064995,27.5626249 C255.922256,27.3242496 255.607416,27.138171 255.29543,27.0619558 C255.635963,27.1454682 254.947963,23.4036254 254.915338,23.1802499 C254.892499,23.0233601 254.874147,22.8660649 254.85294,22.7095804 C255.275039,22.6791754 255.689388,22.5810686 256.036855,22.4249896 C256.92999,22.0224273 257.840255,21.6964856 258.788447,21.4463538 C259.23216,21.3295985 259.71951,21.2687885 260.168117,21.1366281 C260.25743,23.0886295 260.288017,25.0430633 260.275375,26.9979026 M263.940493,5.55304877 C259.135505,6.1404735 254.391691,7.06316409 249.71476,8.30490456 C248.97619,8.5011182 248.54879,8.9798957 249.014525,9.63218444 C249.408484,10.1831232 250.553247,10.173799 251.295487,10.0570437 C251.202504,10.169745 251.132766,10.295419 251.110335,10.4421738 C250.596476,13.8236159 250.436201,17.2281659 250.720863,20.6392022 C250.862378,22.338234 251.110335,24.0299685 251.460249,25.6981899 C251.660898,26.6549341 251.722072,27.6692451 252.475324,28.3523443 C252.537313,28.4078841 252.609906,28.4581537 252.686577,28.5059909 C251.766933,28.7905817 250.861154,29.0832806 249.981885,29.3605743 C249.323248,29.5681391 248.722523,30.0457004 249.282058,30.6870434 C249.818755,31.3028461 251.264493,31.2517657 251.951677,31.035282 C254.652699,30.1843472 257.551515,29.7355694 260.244788,28.8757158 C260.202374,30.7093404 260.124887,32.5437758 259.989082,34.3790219 C259.892427,35.675086 263.788375,35.7687334 263.891554,34.3790219 C264.464955,26.6383127 264.22597,18.8967926 263.175822,11.206353 C262.98496,9.80974968 259.102064,9.95001811 259.27335,11.206353 C259.460949,12.5790377 259.613068,13.9545602 259.748873,15.3308935 C259.203204,15.2506242 258.615121,15.3037317 258.170185,15.4318381 C257.02379,15.7606176 255.877395,16.089397 254.731409,16.4177711 C254.652291,16.4408789 254.569095,16.4716893 254.487122,16.5085807 C254.523418,14.4783371 254.706939,12.4562014 255.012808,10.4421738 C255.092741,9.9175861 254.434105,9.58677963 253.6364,9.48583501 C257.375335,8.57571182 261.14975,7.89139647 264.977999,7.42397017 C267.585628,7.1049203 265.767547,5.33007872 263.940493,5.55304877" id="Fill-65" fill="#FFFFFF"></path>
                    <path d="M271.816603,32.0403905 C271.63349,31.4091825 271.334555,30.7747314 271.208129,30.1439289 C271.143693,29.8236628 271.091899,29.5025859 271.051932,29.1811037 L271.055603,29.1823199 C271.949146,29.4490731 272.947093,29.3375881 273.72563,28.8344866 C274.076359,28.6074625 274.465423,28.4234109 274.870393,28.2904397 C274.692174,29.2682647 274.444216,30.2890621 274.452373,31.2381037 C274.041694,31.3710749 273.637947,31.5316134 273.223598,31.6601252 C272.759086,31.8036368 272.288864,31.926473 271.816603,32.0403905 M278.686814,22.1737632 C278.014312,21.296072 276.468657,21.3118826 275.499258,21.531204 C273.632646,21.9536309 271.771335,22.8394301 269.969158,23.4876648 C267.57686,24.3479238 270.570292,25.6545283 271.938543,25.1623726 C272.912428,24.8125123 273.885497,24.4622466 274.858974,24.111981 C274.990701,24.0645492 275.122021,24.0175227 275.254156,23.9700909 C275.293715,24.6738655 275.216228,25.4919629 275.137518,26.1904672 C273.648143,26.3299248 272.251344,26.7665407 270.947937,27.5003149 C270.943859,27.0827528 270.949976,26.6647853 270.975261,26.2456016 C271.055603,24.9398079 267.157617,24.8607549 267.072789,26.2456016 C266.987554,27.6385563 267.060962,29.0165112 267.357043,30.3831149 C267.625391,31.6208014 267.868862,33.0307829 268.936547,33.7977998 C269.397796,34.1290117 270.836601,34.422116 271.528271,34.0077971 C272.045801,34.0552289 272.591878,33.9859055 273.016831,33.8946905 C273.847569,33.7175306 274.668112,33.5046956 275.47642,33.2419963 C275.84958,33.1203763 276.241907,33.0088913 276.610988,32.8588932 C277.110981,32.7713268 277.560403,32.5682214 277.766355,32.2783603 C278.801413,30.8213524 278.824659,28.6253001 278.950677,26.885323 C279.041622,25.6370961 279.50491,23.2407762 278.686814,22.1737632" id="Fill-67" fill="#FFFFFF"></path>
                    <path d="M293.159282,7.84862676 C292.923967,6.96363837 292.688652,6.07905538 292.453745,5.19447239 C292.081402,3.79705829 288.250706,4.06664935 288.550457,5.19447239 C288.804124,6.1471626 289.057383,7.0998528 289.310642,8.05294841 C289.548404,8.9440178 289.658924,9.99035542 290.205001,10.7371024 C290.805727,11.5592538 293.464334,11.7911426 293.686191,10.5031865 C293.830153,9.67049475 293.374205,8.65739993 293.159282,7.84862676" id="Fill-69" fill="#FFFFFF"></path>
                    <path d="M293.949849,28.7314744 C292.190087,27.6648668 290.266787,27.0656855 288.73092,25.6224611 C290.07307,24.1030216 291.341404,22.5126371 292.577112,20.8594155 C293.641534,19.435245 290.633013,18.6362015 289.802274,19.7474031 C288.891602,20.9664412 287.965025,22.1575066 287.003375,23.3128969 C286.548243,22.4453407 286.209749,21.5125151 285.921009,20.5448251 C285.640018,19.6014591 285.404703,18.6475527 285.195897,17.6879706 C286.6294,17.4495954 288.055154,17.1852745 289.450322,16.8256847 C291.258208,16.3594746 289.689307,15.1319231 288.555555,15.1838143 C287.303126,15.2417865 286.041725,15.3557039 284.777061,15.5089452 C284.295421,12.5438489 284.123319,9.5288885 284.19999,6.52811706 C284.234247,5.19799937 280.332182,5.15908097 280.297109,6.52811706 C280.21636,9.69591334 280.400697,12.9293844 280.94555,16.0898835 C279.716775,16.3116374 278.487592,16.560553 277.262487,16.8329819 C278.187433,15.2535431 278.061823,12.6464152 277.844045,11.0021124 C277.783279,10.5460373 277.325292,10.2561763 276.744958,10.11307 C276.961513,10.076584 277.176844,10.0405034 277.393807,10.0040174 C279.451689,9.65699493 278.700884,8.04917818 276.893814,8.16674421 C275.712754,8.24377023 274.535773,8.38849806 273.364501,8.5794415 C273.119399,6.76284371 272.955045,4.97421853 273.03294,3.11586453 C273.088812,1.79709805 269.188379,1.73953123 269.130875,3.11586453 C269.043601,5.19232377 269.127205,7.32432283 269.595795,9.35821507 C268.523217,9.62334672 267.458795,9.91685638 266.407016,10.2355009 C265.744301,10.4361739 265.151324,10.9250864 265.707189,11.5623753 C266.247964,12.1826375 267.68473,12.1198005 268.376808,11.910614 C270.260549,11.3398107 272.147553,10.9344106 274.05454,10.5825233 C273.963187,10.7041434 273.920774,10.8444118 273.941165,11.0021124 C274.076563,12.0204774 274.118569,13.0384371 274.008864,14.0612615 C273.903645,15.0488161 273.398758,16.0728567 273.495005,17.0413575 C273.521514,17.3089216 273.651202,17.505946 273.842471,17.6466198 C273.456669,17.7435105 273.072091,17.8412119 272.687513,17.9401295 C272.575361,17.7889153 272.434661,17.65189 272.277649,17.471487 C271.911015,17.0498709 271.626353,16.5560936 271.406944,16.0440733 C270.973834,15.0338163 270.910621,13.9599115 271.085578,12.8847904 C271.284596,11.6637254 267.413119,11.4752143 267.182698,12.8847904 C266.845019,14.9571957 267.57788,17.5914854 269.382911,18.8137667 C268.373545,19.0861955 267.371928,19.3594352 266.382546,19.6278101 C265.646015,19.8276723 265.214945,20.3003688 265.682312,20.9546845 C266.152533,21.6126489 267.71287,21.4764345 268.352338,21.3029232 C271.971781,20.3206388 275.617324,19.4315964 279.293861,18.6864711 C279.987978,18.5462026 280.687397,18.4225556 281.388856,18.3041788 C281.685344,19.5852431 282.046676,20.8480643 282.480602,22.0833184 C282.978555,23.5010025 283.759539,24.771121 284.735463,25.8754308 C283.583359,27.0900095 282.363964,28.2462105 281.038942,29.3213315 C279.511232,30.561045 282.199203,31.7821101 283.310932,30.8796895 C284.535629,29.8856485 285.675499,28.8316082 286.761535,27.732974 C288.257435,28.8385 289.989058,29.6505164 291.802246,30.1151049 C292.597096,30.3186158 295.70064,29.792001 293.949849,28.7314744" id="Fill-71" fill="#FFFFFF"></path>
                    <path d="M0,63.5467879 C6.71075174,62.7785548 13.4206878,61.9892408 20.1306239,61.3016823 C26.8401522,60.5743945 33.5517196,59.9046736 40.263287,59.233331 C53.6856061,57.8946999 67.1120035,56.6221491 80.5400322,55.3836518 C107.397313,52.9086843 134.263974,50.5679042 161.138383,48.3199607 C188.012793,46.070801 214.897398,43.9444775 241.793422,41.9499091 L251.879329,41.2043783 L261.968907,40.4920904 L272.058076,39.7810186 L282.151732,39.1149463 L292.246203,38.456982 L302.345161,37.8525304 L307.394436,37.5505074 L312.448604,37.2869973 L322.556534,36.7705176 L322.68296,39.3431865 L312.598684,39.9298005 L307.55675,40.2281749 L302.514816,40.5658732 L292.432579,41.2412698 L282.351566,41.9697737 L272.270961,42.7067911 L262.192802,43.4884024 L252.115052,44.2716354 L242.03934,45.0885166 C215.171048,47.2720014 188.312136,49.5872413 161.464643,52.0261283 C134.61715,54.4633936 107.777813,56.9930901 80.9547897,59.6561633 C67.5434818,60.9887134 54.1358443,62.3553171 40.7392181,63.7875956 C34.0407011,64.5051537 27.342592,65.2214957 20.6542706,65.9945937 C13.9582005,66.7291786 7.2849686,67.5618704 0.607658468,68.3738868 L0,63.5467879 Z" id="Fill-73" fill="#FFFFFF"></path>
                    <g id="Group-77" transform="translate(28.547713, 91.634203)">
                        <mask id="mask-2" fill="white">
                            <use xlink:href="#path-1"></use>
                        </mask>
                        <g id="Clip-76"></g>
                        <path d="M0.283560358,23.9395643 C27.1534837,21.567163 54.0270775,19.3557055 80.9063809,17.1977609 C107.786092,15.0442756 134.669881,12.9584922 161.558565,10.9371673 C188.448064,8.91624789 215.342864,6.97032747 242.246229,5.12656788 C269.15041,3.29375409 296.0603,1.53553391 323.000369,0.125552407 L323.142292,2.69700516 C296.242598,4.2963085 269.35473,6.24425592 242.474611,8.26598615 C215.594492,10.299473 188.721306,12.4351206 161.85383,14.6453619 C134.986353,16.8568194 108.124586,19.1323301 81.2689369,21.4751372 C54.4145108,23.8224037 27.5633473,26.2235884 0.737061174,28.7832845 L0.283560358,23.9395643 Z" id="Fill-75" fill="#FFFFFF" mask="url(#mask-2)"></path>
                    </g>
                </g>
            </g>
        </g>
    </g>
</svg>