<?xml version="1.0" encoding="UTF-8"?>
<svg width="54px" height="54px" viewBox="0 0 54 54" version="1.1" xmlns="http://www.w3.org/2000/svg" xmlns:xlink="http://www.w3.org/1999/xlink">
    <title>Group 5 Copy</title>
    <defs>
        <polygon id="path-1" points="0 0.652161511 3.391318 0.652161511 3.391318 4.01304791 0 4.01304791"></polygon>
        <polygon id="path-3" points="0.642778642 0.652161511 4.03432511 0.652161511 4.03432511 4.01304791 0.642778642 4.01304791"></polygon>
    </defs>
    <g id="LP" stroke="none" stroke-width="1" fill="none" fill-rule="evenodd">
        <g id="lp" transform="translate(-693.000000, -2231.000000)">
            <g id="Group-5-Copy" transform="translate(693.000000, 2231.000000)">
                <circle id="Oval" fill="#00A6A6" cx="27" cy="27" r="27"></circle>
                <g id="Group-17" transform="translate(14.264151, 6.113208)">
                    <path d="M12.4738824,28.8163272 C13.2452177,28.8163272 14.0178592,28.8432322 14.786582,28.7979531 C14.9831713,28.7861411 15.3182221,28.5564641 15.3312845,28.4055335 C15.4658273,26.8365114 16.4337518,25.8994292 17.6204717,25.0371561 C20.7175689,22.7869777 22.0133599,19.7198053 21.3804862,15.928166 C20.5366546,10.8818341 15.5860015,7.61188973 10.5347678,8.68743435 C5.6716328,9.72294954 2.51379536,14.7974989 3.70443396,19.6745261 C4.28113933,22.0388869 5.607627,23.879584 7.61923803,25.2208977 C8.75174891,25.9768632 9.52504354,26.9454439 9.66677068,28.3615667 C9.68309869,28.5282466 9.98157475,28.7841724 10.1611829,28.7953282 C10.9299057,28.8438885 11.7025472,28.8163272 12.4738824,28.8163272 M16.6989187,30.8250167 L8.29978955,30.8250167 C7.92816401,30.8250167 7.62772859,30.5238117 7.62315675,30.1497663 C7.61923803,29.8629981 7.61923803,29.5827922 7.63491292,29.3032425 C7.695,28.246072 7.26785922,27.4992936 6.38418723,26.9073832 C3.76909289,25.1559319 2.16829463,22.7049502 1.55044267,19.6023419 C0.330413643,13.4745594 4.78208273,7.32446537 10.9246807,6.4930346 C16.8844049,5.6865402 22.4156821,9.67635791 23.4260595,15.4911235 C24.2091509,19.9954177 22.7683672,23.7621206 19.1311393,26.4985581 C17.8294702,27.4776384 17.1704717,28.4928107 17.372939,30.0848005 C17.372939,30.0867692 17.3735922,30.0887378 17.3735922,30.0907065 C17.4219231,30.4850947 17.0940566,30.8250167 16.6989187,30.8250167" id="Fill-1" fill="#FFFFFF"></path>
                    <path d="M12.5414804,36.1135594 C13.2834253,36.1129032 14.0260232,36.1076535 14.7686212,36.1148719 C15.266299,36.1201217 15.5530189,36.5066352 15.5543262,37.1477622 C15.5549782,37.7947951 15.2656459,38.2069013 14.7790711,38.2095262 C13.265791,38.2174008 11.7525109,38.2167446 10.2392308,38.2101824 C9.7487373,38.2075575 9.45875181,37.8079195 9.45287373,37.1648239 C9.44699565,36.5210721 9.73567489,36.1207779 10.2287808,36.1155281 C10.999463,36.1069972 11.7701451,36.1135594 12.5414804,36.1135594" id="Fill-3" fill="#FFFFFF"></path>
                    <path d="M12.5032075,34.6691536 C11.2812192,34.6691536 10.0598839,34.6750595 8.8378955,34.6665287 C8.09791001,34.6619351 7.66554427,34.2727967 7.66684756,33.641513 C7.66750363,33.0082607 8.09072569,32.6263406 8.83920174,32.624372 C11.2825254,32.6178098 13.7265022,32.6178098 16.1698258,32.624372 C16.9156894,32.6263406 17.3467489,33.0154791 17.3415709,33.6421692 C17.3356459,34.2780464 16.9085051,34.6619351 16.1685196,34.6665287 C14.9465312,34.6750595 13.7251959,34.6691536 12.5032075,34.6691536" id="Fill-5" fill="#FFFFFF"></path>
                    <path d="M9.57278665,24.48685 C9.51139332,24.48685 9.44934688,24.4789754 9.38664731,24.4625699 C8.99934688,24.3601996 8.76748911,23.9605616 8.87002903,23.5707669 L10.0534833,19.07041 C10.1377358,18.7501746 10.425762,18.5270598 10.7555878,18.5270598 L14.383672,18.5270598 C14.7226415,18.5270598 15.0158926,18.7619866 15.0916546,19.0940339 L16.1170537,23.5943908 C16.2071843,23.9868104 15.9622642,24.3785737 15.5716981,24.4684759 C15.1759071,24.5616591 14.7912192,24.3122955 14.7010885,23.9205321 L13.8050073,19.9871493 L11.3146589,19.9871493 L10.2748911,23.9434998 C10.1886792,24.2709536 9.89477504,24.48685 9.57278665,24.48685" id="Fill-7" fill="#FFFFFF"></path>
                    <path d="M12.4907983,3.90562469 C12.0897823,3.90562469 11.7645283,3.5781709 11.7645283,3.17590803 L11.7645283,0.729519795 C11.7645283,0.327256924 12.0897823,-0.000196866006 12.4907983,-0.000196866006 C12.8918142,-0.000196866006 13.2170682,0.327256924 13.2170682,0.729519795 L13.2170682,3.17590803 C13.2170682,3.5781709 12.8918142,3.90562469 12.4907983,3.90562469" id="Fill-9" fill="#FFFFFF"></path>
                    <g id="Group-13" transform="translate(0.000000, 4.091991)">
                        <mask id="mask-2" fill="white">
                            <use xlink:href="#path-1"></use>
                        </mask>
                        <g id="Clip-12"></g>
                        <path d="M2.66499274,4.01304791 C2.48211901,4.01304791 2.29859216,3.94480102 2.15751814,3.80568238 L0.219056604,1.90395676 C-0.0683164006,1.62178216 -0.0735413643,1.16045948 0.206647315,0.872378894 C0.487489115,0.583642085 0.947285922,0.578392325 1.23400581,0.859254493 L3.17246734,2.76163633 C3.45918723,3.0424985 3.46506531,3.50513361 3.18487663,3.7932142 C3.04249637,3.93955126 2.85374456,4.01304791 2.66499274,4.01304791" id="Fill-11" fill="#FFFFFF" mask="url(#mask-2)"></path>
                    </g>
                    <g id="Group-16" transform="translate(20.899855, 4.091991)">
                        <mask id="mask-4" fill="white">
                            <use xlink:href="#path-3"></use>
                        </mask>
                        <g id="Clip-15"></g>
                        <path d="M1.36959361,4.01304791 C1.1808418,4.01304791 0.992089985,3.93955126 0.849709724,3.7932142 C0.568867925,3.50513361 0.574746009,3.0424985 0.862119013,2.76163633 L2.80058055,0.859254493 C3.08730044,0.578392325 3.54709724,0.583642085 3.82793904,0.872378894 C4.10812772,1.16045948 4.10290276,1.62178216 3.81552975,1.90395676 L1.87706821,3.80568238 C1.73534107,3.94480102 1.55246734,4.01304791 1.36959361,4.01304791" id="Fill-14" fill="#FFFFFF" mask="url(#mask-4)"></path>
                    </g>
                </g>
            </g>
        </g>
    </g>
</svg>