<?xml version="1.0" encoding="UTF-8"?>
<svg width="64px" height="64px" viewBox="0 0 64 64" version="1.1" xmlns="http://www.w3.org/2000/svg" xmlns:xlink="http://www.w3.org/1999/xlink">
    <title>Group 52</title>
    <defs>
        <polygon id="path-1" points="0 44.583509 50.6449615 44.583509 50.6449615 -4.87443778e-05 0 -4.87443778e-05"></polygon>
    </defs>
    <g id="LP" stroke="none" stroke-width="1" fill="none" fill-rule="evenodd">
        <g id="lp" transform="translate(-352.000000, -9339.000000)">
            <g id="Group-52" transform="translate(352.000000, 9339.000000)">
                <g id="Group-45" transform="translate(7.000000, 11.517241)">
                    <g id="Group-6" transform="translate(0.000000, -0.454816)">
                        <path d="M25.3223337,9.74429359 C27.8914587,9.74429359 29.9814779,11.821779 29.9814779,14.3754969 C29.9814779,16.9287274 27.8914587,19.0062128 25.3223337,19.0062128 C22.753699,19.0062128 20.6636798,16.9287274 20.6636798,14.3754969 C20.6636798,11.821779 22.753699,9.74429359 25.3223337,9.74429359 M25.3223337,20.4197998 C28.6755837,20.4197998 31.4035933,17.7086375 31.4035933,14.3754969 C31.4035933,11.0423564 28.6755837,8.33070663 25.3223337,8.33070663 C21.9690837,8.33070663 19.2415644,11.0423564 19.2415644,14.3754969 C19.2415644,17.7086375 21.9690837,20.4197998 25.3223337,20.4197998" id="Fill-1" fill="#273043"></path>
                        <mask id="mask-2" fill="white">
                            <use xlink:href="#path-1"></use>
                        </mask>
                        <g id="Clip-4"></g>
                        <path d="M1.42211538,31.9392174 L49.2228462,31.9392174 L49.2228462,1.41402566 L1.42211538,1.41402566 L1.42211538,31.9392174 Z M29.2362404,40.270119 L38.1509423,40.270119 L38.1509423,43.169922 L12.4945096,43.169922 L12.4945096,40.270119 L21.4087212,40.270119 C21.8015192,40.270119 22.1197788,39.9532805 22.1197788,39.5633255 L22.1197788,33.3528043 L28.5251827,33.3528043 L28.5251827,39.5633255 C28.5251827,39.9532805 28.8434423,40.270119 29.2362404,40.270119 L29.2362404,40.270119 Z M49.9339038,-4.87443778e-05 L0.711057692,-4.87443778e-05 C0.318259615,-4.87443778e-05 0,0.316789711 0,0.707232178 L0,32.6460109 C0,33.0364533 0.318259615,33.3528043 0.711057692,33.3528043 L20.6976635,33.3528043 L20.6976635,38.8560446 L11.7829615,38.8560446 C11.3906538,38.8560446 11.0719038,39.172883 11.0719038,39.5633255 L11.0719038,43.8767155 C11.0719038,44.267158 11.3906538,44.583509 11.7829615,44.583509 L38.862,44.583509 C39.2547981,44.583509 39.5730577,44.267158 39.5730577,43.8767155 L39.5730577,39.5633255 C39.5730577,39.172883 39.2547981,38.8560446 38.862,38.8560446 L29.9472981,38.8560446 L29.9472981,33.3528043 L49.9339038,33.3528043 C50.3267019,33.3528043 50.6449615,33.0364533 50.6449615,32.6460109 L50.6449615,0.707232178 C50.6449615,0.316789711 50.3267019,-4.87443778e-05 49.9339038,-4.87443778e-05 L49.9339038,-4.87443778e-05 Z" id="Fill-3" fill="#273043" mask="url(#mask-2)"></path>
                        <path d="M5.52016154,5.60672457 L45.1250942,5.60672457 L45.1250942,27.746421 L33.5181808,27.746421 C33.4225558,24.2421876 29.7863538,21.4145263 25.3223827,21.4145263 C20.8579212,21.4145263 17.2227,24.2421876 17.127075,27.746421 L5.52016154,27.746421 L5.52016154,5.60672457 Z M18.5496808,27.746421 C18.6502096,25.0220977 21.6459692,22.8281132 25.3223827,22.8281132 C28.9992865,22.8281132 31.9945558,25.0220977 32.0950846,27.746421 L18.5496808,27.746421 Z M4.80910385,29.1600079 L45.8361519,29.1600079 C46.22895,29.1600079 46.5472096,28.8436569 46.5472096,28.4532144 L46.5472096,4.89993109 C46.5472096,4.50948862 46.22895,4.19313761 45.8361519,4.19313761 L4.80910385,4.19313761 C4.41630577,4.19313761 4.09804615,4.50948862 4.09804615,4.89993109 L4.09804615,28.4532144 C4.09804615,28.8436569 4.41630577,29.1600079 4.80910385,29.1600079 L4.80910385,29.1600079 Z" id="Fill-5" fill="#273043" mask="url(#mask-2)"></path>
                    </g>
                </g>
                <rect id="Rectangle-Copy-31" x="0" y="0" width="64" height="64"></rect>
            </g>
        </g>
    </g>
</svg>