<?xml version="1.0" encoding="UTF-8"?>
<svg width="64px" height="64px" viewBox="0 0 64 64" version="1.1" xmlns="http://www.w3.org/2000/svg" xmlns:xlink="http://www.w3.org/1999/xlink">
    <title>Group 64</title>
    <g id="LP" stroke="none" stroke-width="1" fill="none" fill-rule="evenodd">
        <g id="lp" transform="translate(-352.000000, -9810.000000)">
            <g id="Group-64" transform="translate(352.000000, 9810.000000)">
                <g id="Fill-29" transform="translate(3.000000, 9.862069)" fill="#273043">
                    <path d="M43.4340715,30.0972988 L31.6383511,18.7631562 C31.6348347,18.7601689 31.6298112,18.7591731 31.6262947,18.7561859 C31.5635007,18.6979344 31.4911621,18.6526277 31.4122929,18.61927 C31.4017435,18.615287 31.3916965,18.6098104 31.3806447,18.6058274 C31.3042873,18.5774485 31.2229063,18.5640058 31.1395159,18.5630101 C31.1284642,18.5630101 31.1179148,18.5620143 31.106863,18.5625122 C31.0485902,18.5640058 30.9898151,18.5709761 30.9310399,18.587406 L21.2793567,21.3207442 L20.1887511,17.5577988 L25.9808663,15.3158641 L25.9838804,15.3143705 L30.4261765,13.5942096 L38.5934105,14.2563844 C38.7807877,14.2728143 38.9706766,14.2130692 39.1163586,14.093579 L42.1726664,11.596234 L51.9886186,21.8106539 L43.4340715,30.0972988 Z M42.0199514,36.0145528 L37.2752396,31.3628991 C36.9894015,31.082595 36.5282426,31.0845866 36.2449163,31.3688736 C35.9625946,31.652165 35.9651064,32.109215 36.2509445,32.389519 L40.8846366,36.9326357 L38.0619224,39.2139027 L33.4814795,34.6140281 C33.1981532,34.3302389 32.7369943,34.3282474 32.4511562,34.6075557 C32.1643134,34.8873619 32.1618016,35.3444119 32.4441233,35.6282011 L36.9276122,40.1299942 L33.7924352,42.664182 L31.9322269,40.7423814 L32.6747027,39.9696782 C32.9439632,39.689872 32.9424562,39.248754 32.6711862,38.9699435 L19.491487,25.4471388 C19.2312688,25.1807753 18.8113028,25.1523963 18.5184317,25.3804235 L13.2934717,29.4341283 L6.51674718,21.9679827 C6.48409431,21.9326335 6.44239912,21.9137142 6.40572745,21.8868289 L15.5485284,12.3724223 L17.5709964,14.5332033 C17.6950773,14.6661362 17.8653745,14.7477878 18.0472258,14.7617283 L22.4985643,15.1137265 L19.0398728,16.4530124 C18.6892313,16.5884346 18.5008494,16.9663224 18.6048362,17.324793 L20.0807455,22.4120879 C20.1721735,22.7287369 20.4635375,22.9348575 20.7800191,22.9348575 C20.8463295,22.9348575 20.914147,22.9263936 20.9809598,22.9074743 L30.9270211,20.090493 L44.9963853,33.6088169 L42.0199514,36.0145528 Z M29.8725849,45.8321657 L28.3821074,44.4351262 L30.9265188,41.7884185 L32.6596322,43.5792777 L29.8725849,45.8321657 Z M24.4712994,46.4101996 L22.0107808,44.0542512 L28.7779605,37.0546153 L31.1375065,39.4752875 L24.4712994,46.4101996 Z M17.3484546,39.5907947 L14.2233247,36.5985611 L21.9213622,30.0191323 L24.3632938,32.5244434 L17.3484546,39.5907947 Z M18.3963603,40.5935165 L25.3755325,33.5630123 L27.7657219,36.0155485 L20.9633775,43.0520273 L18.3963603,40.5935165 Z M18.8997167,26.9183618 L20.9076164,28.9790698 L13.1708978,35.5908605 L10.731478,33.2553251 L18.8997167,26.9183618 Z M57.8143913,20.3115499 C57.5466379,20.014318 57.0859814,19.9884285 56.7860774,20.2547921 L54.4752596,22.3050446 L41.3789507,8.67718811 C44.2664683,5.90352201 48.5650918,1.8602726 49.2302054,1.46645284 C49.5758234,1.26182589 49.6883502,0.818716421 49.482386,0.476675743 C49.2759194,0.133639314 48.8283241,0.0236087617 48.4837108,0.22674209 C47.421237,0.856057106 41.1021549,6.92864829 39.8462756,8.13948224 C39.5599352,8.41530544 39.5513952,8.86837242 39.8266839,9.15514888 L41.1649488,10.5472096 L38.4175874,12.7931274 L30.3774484,12.141408 C30.2664286,12.1329441 30.1554089,12.1488761 30.0529292,12.1882083 L25.6046048,13.9108586 L18.4460931,13.3452717 L16.5557436,11.3248916 L18.1733161,9.64157355 C18.4491072,9.35529496 18.4400648,8.90222798 18.1537244,8.62640478 C16.8978451,7.41507295 10.578763,1.34297964 9.51628919,0.713664626 C9.17167593,0.508539795 8.72408056,0.620561851 8.51761401,0.962602528 C8.31114746,1.30514108 8.42367424,1.74874842 8.76878986,1.9528775 C9.43440587,2.34719514 13.7330294,6.39044454 16.6210493,9.16361277 L3.52474043,22.7914693 L1.2139226,20.7422125 C0.91401863,20.475351 0.453362118,20.5017385 0.185608661,20.7984724 C-0.0826471489,21.0957043 -0.057027212,21.5517585 0.242374403,21.8176242 L3.07915447,24.3338885 C3.21780354,24.4573617 3.39161723,24.5181026 3.56492857,24.5181026 C3.75732927,24.5181026 3.94922762,24.4429233 4.09239786,24.2940585 L5.42061576,22.9114574 C5.42614163,22.9184276 5.42764868,22.9273894 5.43317455,22.9333639 L12.1435886,30.3263217 L9.17469004,32.6294952 C9.00891397,32.758445 8.90743893,32.9516208 8.89588484,33.1602308 C8.88533546,33.3688407 8.96571173,33.5719741 9.11691959,33.7173538 L23.98653,47.9536145 C24.1226673,48.084058 24.3040163,48.15625 24.4929005,48.15625 C24.497924,48.15625 24.5024452,48.15625 24.5079711,48.1557521 C24.7018788,48.152267 24.8862419,48.072109 25.0203698,47.9322059 L27.3769016,45.4801676 L29.337078,47.3168314 C29.4767318,47.4477727 29.6565737,47.5139902 29.8374203,47.5139902 C30.0001822,47.5139902 30.1629442,47.4602196 30.2975744,47.3516827 L46.5516662,34.2152296 C46.7129211,34.0847861 46.8103773,33.8921082 46.8189173,33.6864855 C46.8284619,33.4803649 46.7480857,33.2807167 46.5983849,33.1368306 L44.4804701,31.103008 L52.9938244,22.856691 L53.9076021,23.8071359 C54.05027,23.9560008 54.2426707,24.03118 54.4345691,24.03118 C54.6078804,24.03118 54.7816941,23.9704392 54.9203432,23.846966 L57.7576256,21.3307017 C58.0570272,21.0643381 58.0826471,20.6082839 57.8143913,20.3115499 L57.8143913,20.3115499 Z" id="Fill-1"></path>
                </g>
                <rect id="Rectangle-Copy-49" x="0" y="0" width="64" height="64"></rect>
            </g>
        </g>
    </g>
</svg>