<?xml version="1.0" encoding="UTF-8"?>
<svg width="54px" height="54px" viewBox="0 0 54 54" version="1.1" xmlns="http://www.w3.org/2000/svg" xmlns:xlink="http://www.w3.org/1999/xlink">
    <title>Group 43</title>
    <defs>
        <polygon id="path-1" points="0 0.000197368421 31.6432258 0.000197368421 31.6432258 24.9518421 0 24.9518421"></polygon>
    </defs>
    <g id="LP" stroke="none" stroke-width="1" fill="none" fill-rule="evenodd">
        <g id="lp" transform="translate(-693.000000, -10143.000000)">
            <g id="Group-43" transform="translate(693.000000, 10143.000000)">
                <circle id="Oval" fill="#00A6A6" cx="27" cy="27" r="27"></circle>
                <g id="Group-3" transform="translate(11.000000, 15.000000)">
                    <mask id="mask-2" fill="white">
                        <use xlink:href="#path-1"></use>
                    </mask>
                    <g id="Clip-2"></g>
                    <path d="M26.7602286,2.15875 C27.3505959,2.15875 27.9664327,2.20611842 28.4738612,2.55348684 C28.5411265,2.59888158 28.6083918,2.65217105 28.673698,2.71072368 L29.0302694,3.02914474 L28.7252898,3.39888158 C28.5633306,3.59559211 28.3079837,3.78901316 28.0794122,3.96138158 C27.9533714,4.05677632 27.8325551,4.14756579 27.735249,4.23309211 C27.3029224,4.61532895 26.8692898,4.99559211 26.4363102,5.37651316 L18.4173714,12.4113816 C18.2750041,12.5357237 18.1261061,12.6791447 17.9719837,12.8284868 C17.4025143,13.3778289 16.7572898,13.9995395 16.0088816,14.0903289 C15.9514122,14.0969079 15.8945959,14.1001974 15.8384327,14.1001974 C15.1370449,14.1001974 14.5630041,13.5784868 14.0562286,13.1173026 C13.9772082,13.0449342 13.8994939,12.9738816 13.8230857,12.9067763 L5.11124898,5.25743421 C4.53394286,4.75151316 3.95598367,4.24493421 3.37933061,3.73440789 C3.33949388,3.69888158 3.28790204,3.65875 3.2245551,3.61072368 C3.16577959,3.56532895 3.0763102,3.49493421 3.01296327,3.43901316 L2.60022857,3.07190789 L3.00773878,2.69953947 L3.08741224,2.63243421 C3.40675918,2.37125 3.81100408,2.21730263 4.2570449,2.18572368 C4.91859592,2.14032895 5.62651429,2.11861842 6.48659592,2.11861842 C7.14814694,2.11861842 7.81100408,2.13177632 8.48496327,2.14493421 C9.14390204,2.15743421 9.80218776,2.17059211 10.455249,2.17059211 L26.0967184,2.16598684 L26.7602286,2.15875 Z M24.3034122,22.78375 L24.2204735,22.7817763 C23.8338612,22.7738816 23.4459429,22.7659868 23.0410449,22.7659868 C20.4999837,22.7686184 8.42422857,22.7686184 8.42422857,22.7686184 C8.02716735,22.7686184 7.62357551,22.7791447 7.19059592,22.7896711 C6.77786122,22.8008553 6.36382041,22.8113816 5.94977959,22.8113816 C5.03418776,22.8113816 4.3412898,22.75875 3.70324898,22.6403289 C2.76153469,22.4653289 2.27892245,21.8870395 2.22733061,20.87125 C2.17508571,19.8646711 2.19162766,18.8186184 2.20643265,17.8001974 C2.21426939,17.3080921 2.22210612,16.8173026 2.22210612,16.3284868 L2.22210612,5.31927632 L3.04039184,6.04559211 C3.96186122,6.86532895 4.88202449,7.69756579 5.79239184,8.52125 L5.92300408,8.37388158 L5.87010612,8.59098684 C7.95990204,10.4817763 10.1208816,12.4370395 12.3386776,14.2554605 L12.6508408,14.5146711 C13.4221061,15.1600658 14.1502694,15.7686184 15.1207184,15.97125 C15.351249,16.0192763 15.5824327,16.0436184 15.8083918,16.0436184 C17.1138612,16.0436184 18.199249,15.2311184 19.1781878,14.3528289 C20.0114939,13.6048026 20.855249,12.8686184 21.6996571,12.1324342 L22.9398204,11.0488816 L29.4286367,5.34888158 L29.4286367,20.6528289 C29.4286367,21.8613816 28.9068408,22.5008553 27.7868408,22.6659868 C27.1501061,22.7594079 26.4643918,22.8015132 25.5651265,22.8015132 C25.1445551,22.8015132 24.7233306,22.7923026 24.3034122,22.78375 L24.3034122,22.78375 Z M30.9809633,2.09559211 C30.2221061,0.83375 28.8519837,0.0488815789 27.4041469,0.04625 C23.7091265,0.0396710526 20.0128,0.0376973684 16.3177796,0.0376973684 L15.8488816,0.0376973684 C14.6002286,0.0376973684 13.3502694,0.0284868421 12.1003102,0.0186184211 L12.0121469,0.0179605263 C10.7902694,0.00875 9.56839184,0.000197368421 8.34651429,0.000197368421 C6.79288163,0.000197368421 5.50569796,0.0140131579 4.29426939,0.0449342105 C2.97182041,0.0778289474 1.81133061,0.639671053 1.02765714,1.62782895 C0.646269388,2.10677632 0.355657143,2.69296053 0.139493878,3.41796053 C-0.0420571429,4.02782895 -0.00679183673,4.76006579 0.0278204082,5.48177632 C0.038922449,5.72453947 0.0493714286,5.96269737 0.0493714286,6.19098684 L0.0493714286,20.5409868 C0.0493714286,21.3317763 0.256391837,22.0705921 0.681534694,22.8001974 C1.37182041,23.9857237 2.58586122,24.7620395 3.93051429,24.8778289 C4.51826939,24.9284868 5.15043265,24.9521711 5.91908571,24.9521711 C6.50357551,24.9521711 7.09002449,24.9383553 7.71435102,24.9238816 C8.28186122,24.9107237 8.84675918,24.8975658 9.42798367,24.8975658 L16.4843102,24.9001974 C19.8678204,24.9001974 23.2506776,24.8975658 26.6341878,24.8929605 C28.1081469,24.8909868 29.2973714,24.6857237 30.3096163,23.6923026 C31.4420245,22.5798026 31.5961469,21.1955921 31.5974531,19.9870395 C31.6026776,15.7396711 31.6026776,11.4923026 31.5994122,7.24427632 C31.5994122,6.92782895 31.6098612,6.60282895 31.6216163,6.23572368 C31.6653714,4.86730263 31.7150041,3.31664474 30.9809633,2.09559211 L30.9809633,2.09559211 Z" id="Fill-1" fill="#FFFFFF" mask="url(#mask-2)"></path>
                </g>
            </g>
        </g>
    </g>
</svg>