<?xml version="1.0" encoding="UTF-8"?>
<svg width="72px" height="72px" viewBox="0 0 72 72" version="1.1" xmlns="http://www.w3.org/2000/svg" xmlns:xlink="http://www.w3.org/1999/xlink">
    <title>Group 12</title>
    <defs>
        <polygon id="path-1" points="0 0 35.0603329 0 35.0603329 20.7786941 0 20.7786941"></polygon>
    </defs>
    <g id="LP" stroke="none" stroke-width="1" fill="none" fill-rule="evenodd">
        <g id="toB" transform="translate(-344.000000, -6292.000000)">
            <g id="Group-12" transform="translate(344.000000, 6292.000000)">
                <rect id="Rectangle-Copy-4" x="0" y="0" width="72" height="72"></rect>
                <g id="Group-26" transform="translate(9.000000, 10.000000)">
                    <path d="M0.717054977,21.0872197 L0.717054977,6.81269534 L16.3681279,6.81269534 L16.3681279,0.892425126 L52.1276135,0.892425126 L52.1276135,16.0449375 L43.9193761,16.0449375 L42.330685,20.4402249 L40.4568443,16.1058941 L34.3229101,16.1058941 L34.3229101,21.1193021 L18.2226728,21.1193021 L15.240393,25.8781898 L13.3837041,21.2412152 C13.3837041,21.2412152 0.42118538,21.0872197 0.717054977,21.0872197" id="Fill-1" fill="#FFFFFF"></path>
                    <path d="M19.4256614,35.0187833 C19.4256614,37.9479055 17.0447688,40.3230717 14.1085846,40.3230717 C11.1724005,40.3230717 8.7925798,37.9479055 8.7925798,35.0187833 C8.7925798,32.0896612 11.1724005,29.714495 14.1085846,29.714495 C17.0447688,29.714495 19.4256614,32.0896612 19.4256614,35.0187833" id="Fill-3" fill="#14BDA5"></path>
                    <path d="M14.1085846,30.4634049 C11.5904771,30.4634049 9.5429737,32.5070531 9.5429737,35.0191042 C9.5429737,37.5300858 11.5904771,39.5748034 14.1085846,39.5748034 C16.6266922,39.5748034 18.6752675,37.5300858 18.6752675,35.0191042 C18.6752675,32.5070531 16.6266922,30.4634049 14.1085846,30.4634049 M14.1085846,41.0719816 C10.7628998,41.0719816 8.0411139,38.356742 8.0411139,35.0191042 C8.0411139,31.6814663 10.7628998,28.9662267 14.1085846,28.9662267 C17.4542695,28.9662267 20.1760554,31.6814663 20.1760554,35.0191042 C20.1760554,38.356742 17.4542695,41.0719816 14.1085846,41.0719816" id="Fill-5" fill="#2E6666"></path>
                    <path d="M47.5858008,35.0187833 C47.5858008,37.9479055 45.2059801,40.3230717 42.2697959,40.3230717 C39.3325398,40.3230717 36.9527191,37.9479055 36.9527191,35.0187833 C36.9527191,32.0896612 39.3325398,29.714495 42.2697959,29.714495 C45.2059801,29.714495 47.5858008,32.0896612 47.5858008,35.0187833" id="Fill-7" fill="#14BDA5"></path>
                    <path d="M42.2693671,30.4634049 C39.7512596,30.4634049 37.7026842,32.5070531 37.7026842,35.0191042 C37.7026842,37.5300858 39.7512596,39.5748034 42.2693671,39.5748034 C44.7874747,39.5748034 46.8349781,37.5300858 46.8349781,35.0191042 C46.8349781,32.5070531 44.7874747,30.4634049 42.2693671,30.4634049 M42.2693671,41.0719816 C38.9236823,41.0719816 36.2018964,38.356742 36.2018964,35.0191042 C36.2018964,31.6814663 38.9236823,28.9662267 42.2693671,28.9662267 C45.615052,28.9662267 48.3368379,31.6814663 48.3368379,35.0191042 C48.3368379,38.356742 45.615052,41.0719816 42.2693671,41.0719816" id="Fill-9" fill="#2E6666"></path>
                    <g id="Group-13" transform="translate(0.000000, 5.848833)">
                        <mask id="mask-2" fill="white">
                            <use xlink:href="#path-1"></use>
                        </mask>
                        <g id="Clip-12"></g>
                        <path d="M15.2638696,20.7786941 C15.1277268,20.7786941 14.9905119,20.742334 14.8661609,20.6653363 C14.5145477,20.4450372 14.4084206,19.9830508 14.6281788,19.6333528 L17.5482831,14.9803369 C17.685498,14.7611073 17.925624,14.6285001 18.1839739,14.6285001 L33.5584731,14.6285001 L33.5584731,1.49824758 L1.50164541,1.49824758 L1.50164541,14.6285001 L12.27087,14.6285001 C12.6857306,14.6285001 13.0212639,14.9642957 13.0212639,15.3770891 C13.0212639,15.790952 12.6857306,16.1256782 12.27087,16.1256782 L0.750179508,16.1256782 C0.336390868,16.1256782 -0.000214398259,15.790952 -0.000214398259,15.3770891 L-0.000214398259,0.749658494 C-0.000214398259,0.335795674 0.336390868,0 0.750179508,0 L34.309939,0 C34.7237276,0 35.0603329,0.335795674 35.0603329,0.749658494 L35.0603329,15.3770891 C35.0603329,15.790952 34.7237276,16.1256782 34.309939,16.1256782 L18.5999066,16.1256782 L15.9006325,20.4268572 C15.7580576,20.6546422 15.5136436,20.7786941 15.2638696,20.7786941" id="Fill-11" fill="#2E6666" mask="url(#mask-2)"></path>
                    </g>
                    <path d="M52.2496061,16.6090529 L44.9504174,16.6090529 C44.5366287,16.6090529 44.2000235,16.2743266 44.2000235,15.8604638 C44.2000235,15.446601 44.5366287,15.1118747 44.9504174,15.1118747 L51.4992122,15.1118747 L51.4992122,1.49717816 L17.2716021,1.49717816 L17.2716021,6.33413304 C17.2716021,6.74692645 16.9360689,7.08272212 16.5212082,7.08272212 C16.1063476,7.08272212 15.7708143,6.74692645 15.7708143,6.33413304 L15.7708143,0.748589081 C15.7708143,0.334726261 16.1063476,0 16.5212082,0 L52.2496061,0 C52.6644667,0 53,0.334726261 53,0.748589081 L53,15.8604638 C53,16.2743266 52.6644667,16.6090529 52.2496061,16.6090529" id="Fill-14" fill="#2E6666"></path>
                    <path d="M42.289199,21.1446472 C41.9954734,21.1446472 41.7167556,20.9724717 41.5966926,20.6847996 L39.9104503,16.6723621 L34.6201733,16.6723621 C34.2053126,16.6723621 33.8697794,16.3376359 33.8697794,15.9237731 C33.8697794,15.5099102 34.2053126,15.175184 34.6201733,15.175184 L40.4099982,15.175184 C40.7122998,15.175184 40.9845856,15.3569842 41.1014326,15.6350315 L42.9806334,20.1062472 C43.1403601,20.4880276 42.9602655,20.9264869 42.5786366,21.0858295 C42.4843014,21.1253978 42.3856782,21.1446472 42.289199,21.1446472" id="Fill-16" fill="#2E6666"></path>
                    <path d="M19.851242,52.2516248 L8.36699925,52.2516248 L8.36699925,48.7396726 C8.36699925,45.576349 10.9376344,43.0108273 14.1085846,43.0108273 C17.2806069,43.0108273 19.851242,45.576349 19.851242,48.7396726 L19.851242,52.2516248 Z" id="Fill-18" fill="#14BDA5"></path>
                    <path d="M9.11717876,51.5028218 L19.1006337,51.5028218 L19.1006337,48.7394587 C19.1006337,45.9942756 16.8612439,43.7602719 14.1083702,43.7602719 C11.3565686,43.7602719 9.11717876,45.9942756 9.11717876,48.7394587 L9.11717876,51.5028218 Z M19.8510276,53 L8.36678486,53 C7.95192422,53 7.61639095,52.6652737 7.61639095,52.2514109 L7.61639095,48.7394587 C7.61639095,45.1676194 10.5289913,42.2620243 14.1083702,42.2620243 C17.6888212,42.2620243 20.6014215,45.1676194 20.6014215,48.7394587 L20.6014215,52.2514109 C20.6014215,52.6652737 20.2658882,53 19.8510276,53 L19.8510276,53 Z" id="Fill-20" fill="#2E6666"></path>
                    <path d="M48.0113813,52.2516248 L36.5271386,52.2516248 L36.5271386,48.7396726 C36.5271386,45.576349 39.0977737,43.0108273 42.2697959,43.0108273 C45.4407462,43.0108273 48.0113813,45.576349 48.0113813,48.7396726 L48.0113813,52.2516248 Z" id="Fill-22" fill="#14BDA5"></path>
                    <path d="M37.2773181,51.5028218 L47.260773,51.5028218 L47.260773,48.7394587 C47.260773,45.9942756 45.0213832,43.7602719 42.2695815,43.7602719 C39.5167079,43.7602719 37.2773181,45.9942756 37.2773181,48.7394587 L37.2773181,51.5028218 Z M48.0111669,53 L36.5269242,53 C36.1120635,53 35.7765303,52.6652737 35.7765303,52.2514109 L35.7765303,48.7394587 C35.7765303,45.1676194 38.6891306,42.2620243 42.2695815,42.2620243 C45.8489605,42.2620243 48.7615608,45.1676194 48.7615608,48.7394587 L48.7615608,52.2514109 C48.7615608,52.6652737 48.4260275,53 48.0111669,53 L48.0111669,53 Z" id="Fill-24" fill="#2E6666"></path>
                </g>
            </g>
        </g>
    </g>
</svg>