<?xml version="1.0" encoding="UTF-8"?>
<svg width="72px" height="72px" viewBox="0 0 72 72" version="1.1" xmlns="http://www.w3.org/2000/svg" xmlns:xlink="http://www.w3.org/1999/xlink">
    <title>Group 7</title>
    <defs>
        <polygon id="path-1" points="0 0 39.0999957 0 39.0999957 49.6464329 0 49.6464329"></polygon>
        <polygon id="path-3" points="0 53 50 53 50 0 0 0"></polygon>
    </defs>
    <g id="LP" stroke="none" stroke-width="1" fill="none" fill-rule="evenodd">
        <g id="toB" transform="translate(-344.000000, -6150.000000)">
            <g id="Group-7" transform="translate(344.000000, 6150.000000)">
                <rect id="Rectangle-Copy-3" x="0" y="0" width="72" height="72"></rect>
                <g id="Group-17" transform="translate(14.000000, 12.000000)">
                    <polygon id="Fill-1" fill="#FFFFFF" points="0.758251754 0.758070709 0.758251754 48.8890117 31.8755956 48.8890117 38.3416356 32.9427892 38.3416356 0.758070709"></polygon>
                    <g id="Group-16">
                        <g id="Group-4" transform="translate(0.000000, 0.000325)">
                            <mask id="mask-2" fill="white">
                                <use xlink:href="#path-1"></use>
                            </mask>
                            <g id="Clip-3"></g>
                            <path d="M31.8759205,49.6464329 L0.758576627,49.6464329 C0.339491467,49.6464329 -0.000541453695,49.3076122 -0.000541453695,48.8886869 L-0.000541453695,0.757745961 C-0.000541453695,0.338820694 0.339491467,0 0.758576627,0 L38.3419605,0 C38.7599627,0 39.0999957,0.338820694 39.0999957,0.757745961 L39.0999957,32.9424644 C39.0999957,33.3613897 38.7599627,33.7012929 38.3419605,33.7012929 C37.9228753,33.7012929 37.5839253,33.3613897 37.5839253,32.9424644 L37.5839253,1.51549192 L1.5166118,1.51549192 L1.5166118,48.130941 L31.8759205,48.130941 C32.2950056,48.130941 32.6339556,48.4697616 32.6339556,48.8886869 C32.6339556,49.3076122 32.2950056,49.6464329 31.8759205,49.6464329" id="Fill-2" fill="#2E6666" mask="url(#mask-2)"></path>
                        </g>
                        <path d="M49.24164,43.0408366 C49.24164,48.1220645 45.1200944,52.2420375 40.0369271,52.2420375 C34.9537599,52.2420375 30.8322143,48.1220645 30.8322143,43.0408366 C30.8322143,37.9596087 34.9537599,33.8396356 40.0369271,33.8396356 C45.1200944,33.8396356 49.24164,37.9596087 49.24164,43.0408366" id="Fill-5" fill="#14BDA5"></path>
                        <path d="M40.0369271,34.5975981 C35.3793425,34.5975981 31.5902495,38.3852454 31.5902495,43.0410531 C31.5902495,47.6968608 35.3793425,51.4845081 40.0369271,51.4845081 C44.6945118,51.4845081 48.4836048,47.6968608 48.4836048,43.0410531 C48.4836048,38.3852454 44.6945118,34.5975981 40.0369271,34.5975981 M40.0369271,53 C34.543338,53 30.0741792,48.5325463 30.0741792,43.0410531 C30.0741792,37.5495599 34.543338,33.0821062 40.0369271,33.0821062 C45.5305163,33.0821062 49.9996751,37.5495599 49.9996751,43.0410531 C49.9996751,48.5325463 45.5305163,53 40.0369271,53" id="Fill-7" fill="#2E6666"></path>
                        <mask id="mask-4" fill="white">
                            <use xlink:href="#path-3"></use>
                        </mask>
                        <g id="Clip-10"></g>
                        <polygon id="Fill-9" fill="#14BDA5" mask="url(#mask-4)" points="6.18123538 15.5511121 32.1710127 15.5511121 32.1710127 6.89115827 6.18123538 6.89115827"></polygon>
                        <path d="M6.93927055,14.7933661 L31.4129776,14.7933661 L31.4129776,7.64890423 L6.93927055,7.64890423 L6.93927055,14.7933661 Z M32.1710127,16.3088581 L6.18123538,16.3088581 C5.76215022,16.3088581 5.4221173,15.9700374 5.4221173,15.5511121 L5.4221173,6.89115827 C5.4221173,6.4733155 5.76215022,6.13341231 6.18123538,6.13341231 L32.1710127,6.13341231 C32.589015,6.13341231 32.9290479,6.4733155 32.9290479,6.89115827 L32.9290479,15.5511121 C32.9290479,15.9700374 32.589015,16.3088581 32.1710127,16.3088581 L32.1710127,16.3088581 Z" id="Fill-11" fill="#2E6666" mask="url(#mask-4)"></path>
                        <path d="M31.5867842,24.4618799 L6.76438101,24.4618799 C6.34529585,24.4618799 6.00634584,24.1230592 6.00634584,23.7041339 C6.00634584,23.2852086 6.34529585,22.9463879 6.76438101,22.9463879 L31.5867842,22.9463879 C32.0058694,22.9463879 32.3448194,23.2852086 32.3448194,23.7041339 C32.3448194,24.1230592 32.0058694,24.4618799 31.5867842,24.4618799" id="Fill-12" fill="#2E6666" mask="url(#mask-4)"></path>
                        <path d="M31.5867842,32.2814934 L6.76438101,32.2814934 C6.34529585,32.2814934 6.00634584,31.9426727 6.00634584,31.5237475 C6.00634584,31.1048222 6.34529585,30.7660015 6.76438101,30.7660015 L31.5867842,30.7660015 C32.0058694,30.7660015 32.3448194,31.1048222 32.3448194,31.5237475 C32.3448194,31.9426727 32.0058694,32.2814934 31.5867842,32.2814934" id="Fill-13" fill="#2E6666" mask="url(#mask-4)"></path>
                        <path d="M27.3180716,40.1009988 L6.7644893,40.1009988 C6.34540414,40.1009988 6.00645413,39.7621781 6.00645413,39.3432528 C6.00645413,38.9243275 6.34540414,38.5855068 6.7644893,38.5855068 L27.3180716,38.5855068 C27.7371567,38.5855068 28.0761067,38.9243275 28.0761067,39.3432528 C28.0761067,39.7621781 27.7371567,40.1009988 27.3180716,40.1009988" id="Fill-14" fill="#2E6666" mask="url(#mask-4)"></path>
                        <path d="M39.0851598,48.6150324 C38.8209304,48.6150324 38.568613,48.502453 38.3942649,48.303274 L34.4210777,43.7914381 C34.0853764,43.4093176 34.1221953,42.8280182 34.5044616,42.4935275 C34.8867279,42.1557893 35.4682492,42.1936766 35.8039504,42.5757971 L39.0635017,46.2779273 L44.3708308,39.859819 C44.6967859,39.4690386 45.2772243,39.4149139 45.667071,39.7374972 C46.0590834,40.0622455 46.1143117,40.6413799 45.7905224,41.0332428 L39.7944642,48.2816241 C39.6233648,48.489463 39.3688816,48.6107024 39.0992376,48.6150324 L39.0851598,48.6150324 Z" id="Fill-15" fill="#FFFFFF" mask="url(#mask-4)"></path>
                    </g>
                </g>
            </g>
        </g>
    </g>
</svg>