<?xml version="1.0" encoding="UTF-8"?>
<svg width="72px" height="72px" viewBox="0 0 72 72" version="1.1" xmlns="http://www.w3.org/2000/svg" xmlns:xlink="http://www.w3.org/1999/xlink">
    <title>Group 9</title>
    <defs>
        <polygon id="path-1" points="0 0 24.7875311 0 24.7875311 23.8518123 0 23.8518123"></polygon>
        <polygon id="path-3" points="0 0 18.9842801 0 18.9842801 24.8691726 0 24.8691726"></polygon>
    </defs>
    <g id="LP" stroke="none" stroke-width="1" fill="none" fill-rule="evenodd">
        <g id="toB" transform="translate(-344.000000, -6434.000000)">
            <g id="Group-9" transform="translate(344.000000, 6434.000000)">
                <rect id="Rectangle-Copy-6" x="0" y="0" width="72" height="72"></rect>
                <g id="Group-35" transform="translate(7.000000, 14.000000)">
                    <polygon id="Fill-1" fill="#14BDA5" points="0.737037783 22.0200546 3.67298716 24.6408022 18.2474652 9.37830743 9.44593316 1.24202016"></polygon>
                    <polygon id="Fill-2" fill="#14BDA5" points="41.7527454 8.87064259 56.3272234 24.1341873 59.2631728 21.5123898 50.5542774 0.734355313"></polygon>
                    <polygon id="Fill-3" fill="#FFFFFF" points="40.0274935 14.1559219 31.7449371 13.4051869 26.0972611 15.2835993 18.44316 14.4058169 16.0598723 11.6538219 5.76983821 22.7930491 13.6755319 31.6790214 10.2869263 34.8079588 25.4709112 49.3270685 28.4826542 46.5729735 31.1175346 48.5763335 47.5563246 34.8079588 45.1719842 32.4297564 54.7082931 22.7930491 43.7919091 11.1529819"></polygon>
                    <g id="Group-34">
                        <path d="M21.4918524,23.7269005 C21.171835,23.7269005 20.8770821,23.5169047 20.7844454,23.1945611 L19.2569938,17.8942671 C19.1517249,17.5299244 19.3422616,17.1445821 19.6970178,17.0070349 L31.0955334,12.5645737 C31.1997496,12.5246745 31.3113346,12.5068249 31.4239723,12.5173247 L39.7538997,13.1966611 L43.1351365,10.4152667 C43.4488377,10.1569719 43.9130736,10.202121 44.172035,10.5150147 C44.4309965,10.8279084 44.3867836,11.2909492 44.0720296,11.549244 L40.4602539,14.5196346 C40.3118248,14.6424822 40.1223408,14.7096808 39.9318041,14.6855313 L31.4734487,13.9956951 L20.8591864,18.1326123 L21.9971431,22.0836833 L32.0040039,19.2319404 C32.3956042,19.1206426 32.8029948,19.3453381 32.9145798,19.7359303 C33.0272175,20.1265225 32.7998367,20.5328643 32.4092891,20.6441621 L21.6950214,23.698551 C21.6265966,23.7174507 21.5592245,23.7269005 21.4918524,23.7269005" id="Fill-4" fill="#2E6666"></path>
                        <g id="Group-8" transform="translate(9.207325, 26.148188)">
                            <mask id="mask-2" fill="white">
                                <use xlink:href="#path-1"></use>
                            </mask>
                            <g id="Clip-7"></g>
                            <path d="M1.85785436,8.3441475 L16.1059988,22.0736729 L23.0295338,14.8246179 L10.3393689,1.72297992 L1.85785436,8.3441475 Z M16.1270526,23.8523373 C15.9365159,23.8523373 15.7522953,23.7777888 15.6154458,23.6454915 L0.225133858,8.81453809 C0.071441277,8.66649105 -0.00961576936,8.45964519 0.000911119777,8.24754943 C0.0124906978,8.03545367 0.114601522,7.83805762 0.28197906,7.70786023 L9.95408479,0.157461234 C10.2509431,-0.0766840832 10.6751767,-0.0462346922 10.9383489,0.225709869 L24.5801446,14.3111782 C24.8548964,14.5936225 24.8570017,15.0430135 24.5843553,15.3275578 L16.6607659,23.6234419 C16.524969,23.7662391 16.3386431,23.8481374 16.1428429,23.8523373 L16.1270526,23.8523373 Z" id="Fill-6" fill="#2E6666" mask="url(#mask-2)"></path>
                        </g>
                        <path d="M30.866363,49.3304284 C30.6842478,49.3304284 30.5010799,49.2632297 30.3600196,49.1298824 L27.8577781,46.7695296 C27.5619725,46.4902352 27.5482875,46.0250945 27.8283028,45.7300504 C28.1072653,45.4329063 28.5746592,45.4213566 28.8704648,45.700651 L30.9021544,47.6179126 L46.5840611,34.8648677 L31.6937765,20.4665057 C31.4011289,20.1830113 31.3937601,19.7178706 31.6779861,19.4270265 C31.9611594,19.1340823 32.4264479,19.1267325 32.7190955,19.4102268 L48.2041494,34.3839773 C48.3557366,34.5299244 48.4367936,34.7336203 48.4273194,34.9436161 C48.4188979,35.1525619 48.3199452,35.348908 48.1567784,35.4822554 L31.3316515,49.1655817 C31.1958546,49.2747795 31.0305824,49.3304284 30.866363,49.3304284" id="Fill-9" fill="#2E6666"></path>
                        <path d="M45.0483986,32.8866023 C44.8568092,32.8866023 44.6662725,32.8131037 44.5220541,32.6650567 C44.2367754,32.3752625 44.2420388,31.9090718 44.5336337,31.6255775 L53.9215134,22.4729105 C54.2131082,22.1904662 54.6794494,22.1946661 54.9636754,22.4855103 C55.2479014,22.7753045 55.242638,23.2404452 54.9520958,23.5249895 L45.5631634,32.6776564 C45.4199977,32.8173037 45.2336718,32.8866023 45.0483986,32.8866023" id="Fill-11" fill="#2E6666"></path>
                        <path d="M26.5996043,15.8418732 C26.5796032,15.8418732 26.5596021,15.8408232 26.539601,15.8397732 L18.6644352,15.2129357 C18.4802147,15.198236 18.3086264,15.1152877 18.1823037,14.9798404 L15.5884782,12.1889962 C15.3116211,11.8918522 15.3295168,11.4277614 15.6274277,11.150567 C15.9263914,10.8754725 16.3937853,10.8912222 16.6685371,11.1904662 L19.0676151,13.7702646 L26.6575022,14.3740025 C27.0627874,14.4065519 27.3659618,14.7603948 27.3333284,15.1646367 C27.3017478,15.549979 26.979625,15.8418732 26.5996043,15.8418732" id="Fill-13" fill="#2E6666"></path>
                        <path d="M13.543209,32.151407 C13.3421454,32.151407 13.1410818,32.0695086 12.994758,31.9078118 L5.6196195,23.7295254 C5.34802576,23.4281814 5.37223761,22.9640907 5.67435932,22.6921462 C5.97753373,22.4212516 6.44387492,22.4443511 6.71546866,22.747795 L14.0916599,30.9250315 C14.3632536,31.2263755 14.3379891,31.6915162 14.0358674,31.9624108 C13.894807,32.0884082 13.719008,32.151407 13.543209,32.151407" id="Fill-15" fill="#2E6666"></path>
                        <path d="M13.5874219,38.6799664 C13.3800422,38.6799664 13.1747678,38.5938681 13.0284441,38.4248215 C12.7631665,38.1171777 12.7979052,37.6530869 13.1052904,37.3884922 L22.2394721,29.5325493 C22.5479099,29.2658547 23.0121457,29.301554 23.278476,29.6091978 C23.5437536,29.9168417 23.5100676,30.3809324 23.2016297,30.6465771 L14.0685007,38.50147 C13.9284931,38.6211676 13.7579575,38.6799664 13.5874219,38.6799664" id="Fill-17" fill="#2E6666"></path>
                        <path d="M17.9534492,42.8870223 C17.7671232,42.8870223 17.5807973,42.8166737 17.4365789,42.6759765 C17.1460368,42.3903822 17.1428787,41.9252415 17.4281574,41.6364973 L25.7275568,33.2219656 C26.0138882,32.9342713 26.4791767,32.9300714 26.7697188,33.2135657 C27.0602609,33.49916 27.063419,33.9643007 26.7781403,34.2530449 L18.4787409,42.6675766 C18.3345225,42.8135237 18.1439858,42.8870223 17.9534492,42.8870223" id="Fill-19" fill="#2E6666"></path>
                        <path d="M21.7020744,46.49937 C21.5189065,46.49937 21.3346859,46.4321714 21.1925729,46.2956741 C20.89782,46.0142797 20.8883458,45.549139 21.1704665,45.2551449 L29.2361689,36.8584628 C29.5182896,36.5655187 29.9856834,36.5560689 30.2783309,36.8364133 C30.5720312,37.1167577 30.582558,37.5829483 30.3004374,37.8758925 L22.2336823,46.2725745 C22.0894639,46.4237715 21.8957691,46.49937 21.7020744,46.49937" id="Fill-21" fill="#2E6666"></path>
                        <path d="M43.3244099,39.0111298 C43.1370313,39.0111298 42.9496527,38.9407812 42.806487,38.799034 L37.5167252,33.5806384 C37.2272357,33.2950441 37.2251304,32.8288534 37.5114617,32.5411592 C37.7977931,32.252415 38.2641343,32.250315 38.5536238,32.5348593 L43.8423329,37.7532549 C44.1318223,38.0388492 44.1349804,38.5050399 43.848649,38.7927341 C43.7044306,38.9386812 43.5138939,39.0111298 43.3244099,39.0111298" id="Fill-23" fill="#2E6666"></path>
                        <path d="M39.1552355,42.2800294 C38.9646988,42.2800294 38.7752148,42.2075808 38.6309964,42.0605838 L33.5780896,36.9534859 C33.2917582,36.6647417 33.2949163,36.199601 33.5844057,35.9150567 C33.8728425,35.6294624 34.3402364,35.6315624 34.6265678,35.9213566 L39.6794746,41.0295044 C39.9658059,41.3171987 39.9626479,41.7823394 39.6731584,42.0679336 C39.52894,42.2096808 39.3426141,42.2800294 39.1552355,42.2800294" id="Fill-25" fill="#2E6666"></path>
                        <path d="M34.8982668,46.052289 C34.704572,46.052289 34.5108773,45.9766905 34.3666589,45.8254935 L31.5180827,42.8635027 C31.2359621,42.5705586 31.2454363,42.1054179 31.5401891,41.8250735 C31.8338894,41.5436791 32.3002305,41.5541789 32.5812985,41.8460731 L35.4298747,44.8080638 C35.7119953,45.102058 35.7025211,45.5661487 35.4077682,45.847543 C35.2656552,45.9850903 35.0814347,46.052289 34.8982668,46.052289" id="Fill-27" fill="#2E6666"></path>
                        <g id="Group-31" transform="translate(41.015720, 0.000000)">
                            <mask id="mask-4" fill="white">
                                <use xlink:href="#path-3"></use>
                            </mask>
                            <g id="Clip-30"></g>
                            <path d="M15.3115035,24.8691726 C15.1167561,24.8691726 14.9220086,24.7925241 14.7777902,24.6402772 L0.203312225,9.37673247 C-0.0756503374,9.08588828 -0.0661761372,8.62389752 0.223313314,8.34355313 C1.01914613,7.56971861 8.03847581,0.772154557 9.1595895,0.103317934 C9.51013491,-0.103527929 9.96173845,0.0088198236 10.1701709,0.356362873 C10.3796559,0.704955901 10.2659655,1.15644687 9.91647283,1.36434271 C9.22485621,1.77698446 4.7635606,6.00104998 1.77392408,8.89059219 L15.3525584,23.1104578 L17.7558472,20.9643007 C18.0590216,20.6934061 18.5253628,20.7196556 18.7969565,21.0220496 C19.0674975,21.3244435 19.042233,21.7885342 18.7390586,22.0594288 L15.8031092,24.6812264 C15.6620489,24.8061739 15.4873026,24.8691726 15.3115035,24.8691726" id="Fill-29" fill="#2E6666" mask="url(#mask-4)"></path>
                        </g>
                        <path d="M3.67277662,25.3757875 C3.49697758,25.3757875 3.32223122,25.3127887 3.1811709,25.1878412 L0.245221523,22.5670937 C-0.0579528839,22.2961991 -0.0832174178,21.8321084 0.187323633,21.5297144 C0.459970061,21.2273205 0.92631125,21.201071 1.22843297,21.4719656 L3.63172176,23.6170727 L17.210356,9.39825703 C14.2207195,6.50766485 9.75942392,2.28464931 9.0678073,1.87200756 C8.71831459,1.66411172 8.60462418,1.21262075 8.81410928,0.864027719 C9.02254168,0.515434691 9.47519791,0.402036959 9.82469063,0.61098278 C10.9458043,1.2798194 17.965134,8.07738345 18.7609668,8.85121798 C19.0504563,9.13156237 19.0599305,9.59355313 18.7809679,9.88439731 L4.2064899,25.1468921 C4.06227152,25.299139 3.86752407,25.3757875 3.67277662,25.3757875" id="Fill-32" fill="#2E6666"></path>
                    </g>
                </g>
            </g>
        </g>
    </g>
</svg>