<?xml version="1.0" encoding="utf-8"?>
<!-- Generator: Adobe Illustrator 25.1.0, SVG Export Plug-In . SVG Version: 6.00 Build 0)  -->
<svg version="1.1" id="レイヤー_1" xmlns="http://www.w3.org/2000/svg" xmlns:xlink="http://www.w3.org/1999/xlink" x="0px"
	 y="0px" viewBox="0 0 1489 280" style="enable-background:new 0 0 1489 280;" xml:space="preserve">
<style type="text/css">
	.st0{filter:url(#Adobe_OpacityMaskFilter);}
	.st1{fill-rule:evenodd;clip-rule:evenodd;fill:#FFFFFF;}
	.st2{mask:url(#mask-2_1_);}
	.st3{fill-rule:evenodd;clip-rule:evenodd;fill:#00325C;}
	.st4{fill-rule:evenodd;clip-rule:evenodd;fill:#44C6C5;}
</style>
<g id="wexpats_jobs">
	<g id="Mask">
	</g>
	<defs>
		<filter id="Adobe_OpacityMaskFilter" filterUnits="userSpaceOnUse" x="8" y="8" width="1472.3" height="264">
			<feColorMatrix  type="matrix" values="1 0 0 0 0  0 1 0 0 0  0 0 1 0 0  0 0 0 1 0"/>
		</filter>
	</defs>
	<mask maskUnits="userSpaceOnUse" x="8" y="8" width="1472.3" height="264" id="mask-2_1_">
		<g class="st0">
			<rect id="path-1_1_" class="st1" width="1489" height="280"/>
		</g>
	</mask>
	<g id="Group-33" class="st2">
		<g transform="translate(8.000000, 8.000000)">
			<path id="Fill-1" class="st3" d="M203,116.7c0-25.8-7.8-50.5-22.6-71.5c-14.4-20.5-34.4-36.1-57.8-45c-1.9-0.7-4.1,0.2-4.9,2
				L115,8c-0.5,1-0.5,2.1-0.1,3.2c0.4,1,1.2,1.8,2.3,2.2c1.1,0.4,2.2,0.9,3.5,1.4l-2.5,6.6c-0.6,1.5,0.1,3.3,1.6,4l4.3,2
				c1.4,0.7,3.1,0.2,3.9-1.1l3.9-6c14.7,8.1,27.1,19.2,36.8,33c13.2,18.7,20.1,40.6,20.1,63.5c0,29.3-11.5,56.7-32.4,77.2
				c-20.8,20.4-48.5,31.6-78,31.6c-14.3,0-28.3-2.7-41.6-8.2l2.5-6.7c0.6-1.5-0.1-3.3-1.6-4l-4.3-2c-1.4-0.6-3.1-0.2-3.9,1.1l-4,6.1
				c-1.1-0.6-2-1.1-2.9-1.7c-1-0.6-2.1-0.7-3.1-0.4c-1,0.3-1.9,1.1-2.4,2.1l-2.8,5.8c-0.9,1.8-0.2,4.1,1.6,5.1
				c16,9.3,36.6,15.3,56.7,16.6l-0.1,8.7L50.2,247c-2.6,0-5.1,1.2-6.7,3.2l-5.1,6.5c-0.8,1.1-1,2.5-0.4,3.7c0.6,1.2,1.8,2,3.2,2
				h76.6c1.4,0,2.6-0.8,3.2-2c0.6-1.2,0.4-2.7-0.4-3.7l-5.1-6.5c-1.6-2.1-4.1-3.2-6.8-3.2h0l-22.3,1.2v-8.9
				C151.9,234.2,203,180.6,203,116.7"/>
			<path id="Fill-3" class="st4" d="M35.8,188.6c14.7,10.4,31.9,15.7,49.1,15.7c14.6,0,29.3-3.8,42.5-11.4
				c40.6-23.4,54.6-75.5,31.1-116.1C135.2,36.2,83.1,22.2,42.5,45.6C1.9,69.1-12.1,121.1,11.4,161.7c0.7,1.1,1.3,2.3,2.1,3.4
				c0.1,0.1,0.1,0.3,0,0.5L2.3,184c-0.2,0.3,0,0.8,0.4,0.8l32.9,3.6C35.6,188.5,35.7,188.5,35.8,188.6"/>
			<path id="Fill-5" class="st3" d="M400.7,81.7l-45.9,123.9c-1.6,4.1-5.4,6.8-9.3,6.8h-0.2c-4.2,0-7.9-2.9-9.3-6.8l-21.6-57.7
				l-22,57.7c-1.6,4.1-5.4,6.8-9.3,6.8h-0.2c-4.2,0-7.9-2.9-9.3-6.8L228.9,82.5c-2-5.3,0.6-11.3,5.8-13.1c5.2-2.1,10.7,0.6,12.7,6
				l35.5,98.2l22-57.7c1.6-4.1,5.4-6.8,9.3-6.6c4.2-0.2,7.9,2.5,9.3,6.6l21.8,57.7l36.7-99c2-5.3,7.5-8,12.7-6
				C400.1,70.4,402.6,76.4,400.7,81.7"/>
			<path id="Fill-7" class="st3" d="M422.9,150.6h57.4c-4.2-14.4-16.9-21-28.8-21C438.2,129.6,427.1,138.4,422.9,150.6 M501.3,160.8
				c0,5.6-4.4,10.1-9.9,10.1h-68.5c4.2,12.3,15.3,21.2,28.6,21.2c4.6,0,12.7-0.4,22.2-6.8c4.6-3.1,10.7-0.2,13.1,4.7
				c2.4,5.1-0.2,10.5-4.8,13.6c-13.1,9-23.2,8.8-30.6,8.8c-27.6,0-49.8-23.2-49.8-51.6c0-28.6,22.2-51.6,49.8-51.6
				C475.5,109.3,501.3,127.3,501.3,160.8"/>
			<path id="Fill-9" class="st4" d="M623,195.4c3.4,4.5,2.6,10.9-1.8,14.2c-1.8,1.4-3.8,2.3-6,2.3c-3,0-5.8-1.4-7.7-3.9L569,157.1
				l-40.3,51.4c-2,2.5-4.8,3.9-7.7,3.9c-2.2,0-4.2-0.8-6-2.3c-4.4-3.3-5.2-9.7-1.8-14.2l43.3-55.5l-42.9-55.1
				c-3.4-4.5-2.6-10.9,1.8-14.4c4.2-3.5,10.3-2.7,13.7,1.9l39.9,51l39.1-51c3.4-4.5,9.5-5.3,13.7-1.9c4.4,3.5,5.2,9.9,1.8,14.4
				l-42.1,55.1L623,195.4z"/>
			<path id="Fill-11" class="st4" d="M662,161.7v0.2c0,17.1,13.5,31,30.2,31s30.2-14,30.2-31.2c0-17.1-13.5-31.2-30.2-31.2
				S662,144.4,662,161.7 M662,202.8v51.2c0,5.5-4.4,10.1-9.7,10.1c-5.6,0-9.9-4.5-9.9-10.1v-92.1v-0.2c0-28.4,22.4-51.6,49.8-51.6
				c27.6,0,49.8,23.2,49.8,51.6c0,28.6-22.2,51.6-49.8,51.6C680.9,213.2,670.4,209.3,662,202.8"/>
			<path id="Fill-13" class="st4" d="M838.6,161.7c0-17.3-12.7-31.9-29.4-31.9s-30.8,14.6-30.8,31.9c0,17.3,14.1,30.4,30.8,30.4
				S838.6,178.9,838.6,161.7 M858,161.7v40.3c0,6-4.2,10.3-9.9,10.3c-4,0-9.5-4.3-9.5-10.3c-8.5,7.4-18.1,10.3-29.4,10.3
				c-28,0-50.2-21.6-50.2-50.5c0-29,22.2-52,50.2-52C837.2,109.7,858,132.7,858,161.7"/>
			<path id="Fill-15" class="st4" d="M941.5,107.9h-23.9V65.5c0-5.4-4.5-9.8-10.1-9.8c-5.5,0-9.9,4.4-9.9,9.8v42.4h-23.2
				c-5.5,0-9.9,4.4-9.9,9.8c0,5.4,4.5,10,9.9,10h23.2v74.5c0,5.4,4.5,10,9.9,10c5.6,0,10.1-4.5,10.1-10v-74.5h23.9
				c5.6,0,10.1-4.5,10.1-10C951.6,112.3,947.1,107.9,941.5,107.9"/>
			<path id="Fill-17" class="st4" d="M1001.6,151.1L1001.6,151.1c-14.6-5-18.1-8.6-18.2-14.3c-0.1-4.8,4.5-9.6,15.3-9.9
				c6.8-0.2,16.2,2.8,16.6,3c2.5,0.8,5.2,0.7,7.6-0.3c2.4-1,4.2-2.9,5-5.3c1.7-4.7-1.2-10-6.4-11.7c-0.1,0-12.9-3.7-22.8-3.8
				c-20.4-0.2-35,12.1-34.6,28.9c0.3,13.7,10,24.4,28.7,30.2c15,5.1,16.3,10,16.5,14.9c0.2,7.8-5.9,11.8-16.3,11.9
				c-7.5,0-14.7-2.7-19-4.1c-1.2-0.4-2.5-0.6-3.7-0.6c-0.8,0-1.6,0.1-2.3,0.4c-2.5,0.7-4.5,2.4-5.6,4.6c-1.1,2.1-1.1,4.6-0.2,6.9
				c0.9,2.3,2.8,4.2,5.2,5.4l0.4,0.2c6.5,3.6,15.3,5.9,24.7,5.6c11.7-0.3,21.4-3.7,28-9.8c6.1-5.6,9.4-12.5,9.2-21
				C1029.3,172.1,1025.8,159.7,1001.6,151.1"/>
			<path id="Fill-19" class="st1" d="M51.6,114.7H45c-2,0-3.6,1.6-3.6,3.6v6.8c0,2,1.6,3.6,3.6,3.6h6.5c2,0,3.6-1.6,3.6-3.6v-6.8
				C55.2,116.3,53.6,114.7,51.6,114.7"/>
			<path id="Fill-21" class="st1" d="M87.3,114.7h-6.5c-2,0-3.6,1.6-3.6,3.6v6.8c0,2,1.6,3.6,3.6,3.6h6.5c2,0,3.6-1.6,3.6-3.6v-6.8
				C90.9,116.3,89.3,114.7,87.3,114.7"/>
			<path id="Fill-23" class="st1" d="M124.1,114.7h-6.5c-2,0-3.6,1.6-3.6,3.6v6.8c0,2,1.6,3.6,3.6,3.6h6.5c2,0,3.6-1.6,3.6-3.6v-6.8
				C127.7,116.3,126.1,114.7,124.1,114.7"/>
			<path id="Fill-25" class="st3" d="M1160.6,82.1V171v0.2c-0.2,22.1-17.9,40.1-39.6,40.1s-38.8-18.3-39.4-38.7
				c0-5.6,4.3-9.6,9.6-9.6c5.3,0,9.8,4,9.8,9.6c0,9.6,9,18.9,20.1,18.9s20.3-9.4,20.3-20.7V82.1c0-5.4,4.3-9.8,9.6-9.8
				C1156.3,72.4,1160.6,76.7,1160.6,82.1"/>
			<path id="Fill-27" class="st3" d="M1199.4,162.3c0,16.5,13.3,30.3,29.6,30.3c16.4,0,29.6-13.8,29.6-30.3
				c0-16.7-13.3-30.3-29.6-30.3C1212.7,132,1199.4,145.5,1199.4,162.3 M1180.1,162.3c0-27.7,22-50,49-50c27.1,0,49,22.3,49,50
				c0,27.5-21.8,50-49,50C1202.2,212.3,1180.1,189.8,1180.1,162.3"/>
			<path id="Fill-29" class="st3" d="M1371.7,161.9c0-16.7-13.3-30.3-29.6-30.3s-29.6,13.6-29.6,30.1v0.2
				c0,16.7,13.3,30.3,29.6,30.3S1371.7,178.4,1371.7,161.9 M1391,161.9c0,27.5-21.8,50-49,50c-26.9,0-49-22.5-49-50v-0.2V72.4
				c0-5.4,4.3-9.8,9.8-9.8c5.3,0,9.6,4.4,9.6,9.8V122c8.2-6.4,18.5-10.2,29.6-10.2C1369.1,111.8,1391,134.1,1391,161.9"/>
			<path id="Fill-31" class="st3" d="M1444.3,152.1L1444.3,152.1c-14.6-5-18.1-8.6-18.2-14.3c-0.1-4.8,4.5-9.6,15.3-9.9
				c6.8-0.2,16.2,2.8,16.6,3c2.5,0.8,5.2,0.7,7.6-0.3c2.4-1,4.2-2.9,5-5.3c1.7-4.7-1.2-10-6.4-11.7c-0.1,0-12.9-3.7-22.8-3.8
				c-20.4-0.2-35,12.1-34.6,28.9c0.3,13.7,10,24.4,28.7,30.2c15,5.1,16.3,10,16.5,14.9c0.2,7.8-5.9,11.8-16.3,11.9
				c-7.5,0-14.7-2.7-19-4.1c-1.2-0.4-2.5-0.6-3.7-0.6c-0.8,0-1.6,0.1-2.3,0.4c-2.5,0.7-4.5,2.4-5.6,4.6c-1.1,2.1-1.1,4.6-0.2,6.9
				c0.9,2.3,2.8,4.2,5.2,5.4l0.4,0.2c6.5,3.6,15.3,5.9,24.6,5.6c11.7-0.3,21.4-3.7,28-9.8c6.1-5.6,9.4-12.5,9.2-21
				C1472.1,173.1,1468.6,160.6,1444.3,152.1"/>
		</g>
	</g>
</g>
</svg>
