<svg id="main" xmlns="http://www.w3.org/2000/svg" viewBox="0 0 608 150"><defs><style>.cls-1{fill:#fff;}.cls-2{fill:#a1e5d8;}.cls-3{fill:#2e6666;}</style></defs><path class="cls-1" d="M245.33,129h2.27v12.49h6.09v1.91h-8.36Z"/><path class="cls-1" d="M256,138c0-3.5,2.39-5.67,4.92-5.67,2.85,0,4.38,2,4.38,5.11a5.61,5.61,0,0,1-.1,1.13h-7a3.24,3.24,0,0,0,3.32,3.29,4.67,4.67,0,0,0,2.57-.8l.78,1.42a6.5,6.5,0,0,1-3.64,1.14C258.34,143.66,256,141.59,256,138Zm7.36-1c0-1.86-.84-2.94-2.4-2.94-1.35,0-2.55,1-2.76,2.94Z"/><path class="cls-1" d="M267.16,132.64h2.31l1.84,5.79c.3,1.06.63,2.16.94,3.21h.08c.31-1,.65-2.15.94-3.21l1.84-5.79h2.19l-3.72,10.76H271Z"/><path class="cls-1" d="M279.13,138c0-3.5,2.39-5.67,4.91-5.67,2.86,0,4.39,2,4.39,5.11a5.61,5.61,0,0,1-.1,1.13h-7a3.25,3.25,0,0,0,3.33,3.29,4.62,4.62,0,0,0,2.56-.8l.79,1.42a6.5,6.5,0,0,1-3.64,1.14C281.46,143.66,279.13,141.59,279.13,138Zm7.36-1c0-1.86-.84-2.94-2.41-2.94-1.35,0-2.54,1-2.76,2.94Z"/><path class="cls-1" d="M291.87,132.64h1.84l.17,1.94h.06a3.72,3.72,0,0,1,3.05-2.21,2.82,2.82,0,0,1,1.22.23l-.41,2a3.18,3.18,0,0,0-1.08-.18c-.88,0-1.94.61-2.62,2.31v6.71h-2.23Z"/><path class="cls-1" d="M300.28,140.55c0-2.31,2-3.5,6.44-4,0-1.26-.47-2.35-2.06-2.35a6,6,0,0,0-3.11,1.09l-.84-1.52a8.17,8.17,0,0,1,4.34-1.41c2.68,0,3.92,1.7,3.92,4.56v6.47h-1.84l-.2-1.23h-.06a5.33,5.33,0,0,1-3.42,1.49A3,3,0,0,1,300.28,140.55Zm6.44.08V138c-3.19.4-4.27,1.2-4.27,2.41s.72,1.49,1.68,1.49A3.81,3.81,0,0,0,306.72,140.63Z"/><path class="cls-1" d="M312.12,145.4a2.85,2.85,0,0,1,1.57-2.35V143a2,2,0,0,1-1-1.78,2.66,2.66,0,0,1,1.19-2v-.08a3.69,3.69,0,0,1-1.4-2.86,3.88,3.88,0,0,1,4.16-3.87,4.66,4.66,0,0,1,1.57.27H322v1.69H320a2.9,2.9,0,0,1,.7,2c0,2.35-1.78,3.7-4,3.7a3.79,3.79,0,0,1-1.5-.33,1.39,1.39,0,0,0-.59,1.13c0,.65.43,1.06,1.8,1.06h2c2.54,0,3.87.78,3.87,2.62,0,2.08-2.19,3.76-5.64,3.76C314,148.24,312.12,147.28,312.12,145.4Zm7.93-.57c0-.9-.71-1.17-2-1.17h-1.62a6.71,6.71,0,0,1-1.45-.16,2,2,0,0,0-.92,1.57c0,1.05,1.1,1.68,2.88,1.68S320.05,145.83,320.05,144.83Zm-1.35-8.59a2,2,0,1,0-4.07,0,2.05,2.05,0,1,0,4.07,0Z"/><path class="cls-1" d="M324.15,138c0-3.5,2.39-5.67,4.91-5.67,2.86,0,4.38,2,4.38,5.11a5.72,5.72,0,0,1-.09,1.13h-7a3.25,3.25,0,0,0,3.33,3.29,4.62,4.62,0,0,0,2.56-.8l.78,1.42a6.47,6.47,0,0,1-3.64,1.14C326.48,143.66,324.15,141.59,324.15,138Zm7.36-1c0-1.86-.84-2.94-2.41-2.94-1.35,0-2.54,1-2.76,2.94Z"/><path class="cls-1" d="M335.77,142.17l1.06-1.45a4.73,4.73,0,0,0,3.05,1.24c1.29,0,1.9-.63,1.9-1.45,0-1-1.22-1.41-2.39-1.86-1.43-.55-3.07-1.31-3.07-3.13s1.45-3.15,3.81-3.15a5.71,5.71,0,0,1,3.51,1.27L342.58,135a4,4,0,0,0-2.41-.94c-1.17,0-1.72.59-1.72,1.33,0,.92,1.12,1.27,2.29,1.7,1.51.57,3.17,1.24,3.17,3.27,0,1.8-1.43,3.27-4.09,3.27A6.63,6.63,0,0,1,335.77,142.17Z"/><circle class="cls-1" cx="77.97" cy="57.84" r="57.84"/><path class="cls-2" d="M56.5,41.52c10.88,1.55,21.39-4,27.33-9.69C87.94,38.32,94.34,42,99.46,41.52c.18-11.15-6.21-18.1-11-20.75S76.88,16.84,71,18.94,55.4,29.36,56.5,41.52Z"/><polygon class="cls-2" points="48.91 94.17 107.32 94.17 105.04 77.44 89.68 72.78 77.8 79.55 65.82 72.87 50.92 77.35 48.91 94.17"/><path class="cls-1" d="M65.82,72.87l12,6.68,11.88-6.77-6.41-2.11v-8c7.33-.75,12-9,13-10.44,6.86-1.51,7.62-3.76,7.62-6.59s-2.32-4.78-4.41-4.13-9.52-.84-15.63-9.69C71.7,42.08,61.33,42.28,56.5,41.52s-5.31,4.79-4.09,6.58,5.27,3.57,7.25,4.14c2.82,6.58,11.19,10.06,13.07,10.44v7.71Z"/><path class="cls-3" d="M98,42.63c-4.64,0-10-3.71-14.12-9.75-6.93,6.47-13.94,9.31-23.26,9.47a.94.94,0,1,1,0-1.88c9.08-.16,15.85-3,22.61-9.54a1.17,1.17,0,0,1,.94-.32,1.15,1.15,0,0,1,.85.53c4.9,7.64,10.45,9.93,13.71,9.57a.94.94,0,0,1,.21,1.87A9.08,9.08,0,0,1,98,42.63Z"/><path class="cls-3" d="M99,95.09H48.73a.94.94,0,0,1-.7-.32A1,1,0,0,1,47.8,94L50,77.12a.93.93,0,0,1,.67-.78L71.91,70V63.27c-5.24-1.44-9.31-4.74-12.74-10.34-2.66-.72-7.51-2.23-8-6.54a5.57,5.57,0,0,1,1.6-4.61,4.3,4.3,0,0,1,2.88-1.16v-.09C55.62,27.1,65.27,17,78.07,17s22.44,10.13,22.44,23.56v.09a4.28,4.28,0,0,1,2.88,1.16,5.55,5.55,0,0,1,1.6,4.61c-.51,4.31-5.37,5.81-8,6.54-3.42,5.6-7.49,8.9-12.74,10.34V70l21.26,6.3a.94.94,0,0,1,.66.78l2,15.36a.94.94,0,1,1-1.86.25L104.36,78,83,71.64a.93.93,0,0,1-.67-.9V62.53a.94.94,0,0,1,.72-.91c5.18-1.22,9.14-4.39,12.49-10a.89.89,0,0,1,.56-.42c2.31-.63,6.62-1.8,7-5.06a3.7,3.7,0,0,0-1-3,2.63,2.63,0,0,0-2.42-.59,1,1,0,0,1-.79-.22.91.91,0,0,1-.32-.75l0-.4c0-.22,0-.44,0-.67,0-12.36-8.84-21.68-20.56-21.68S57.5,28.17,57.5,40.53c0,.23,0,.45,0,.67l0,.4a.91.91,0,0,1-.32.75,1,1,0,0,1-.79.22,2.61,2.61,0,0,0-2.41.59,3.67,3.67,0,0,0-1,3c.39,3.26,4.7,4.43,7,5.06a.94.94,0,0,1,.56.42c3.34,5.59,7.31,8.76,12.48,10a.94.94,0,0,1,.72.91v8.21a.93.93,0,0,1-.67.9L51.78,78l-2,15.23H99a.95.95,0,0,1,0,1.89Z"/><path class="cls-3" d="M77.87,80.56a.89.89,0,0,1-.45-.12L65,73.72a.94.94,0,1,1,.89-1.66l12,6.49,11.95-6.48a.94.94,0,1,1,.9,1.65l-12.4,6.72A.92.92,0,0,1,77.87,80.56Z"/><circle class="cls-1" cx="294.33" cy="57.84" r="57.84"/><path class="cls-2" d="M272.71,41.59c4.56,1.52,8.75-2.38,13.6-8.94,6.28,7.61,11.41,8.65,13.79,9.41s9.42,2.76,15.6,0c.38-7.7-2.09-14.26-8.66-19.87S289,16.48,282.7,21.14,272,33.22,272.71,41.59Z"/><path class="cls-2" d="M282.41,59.85c-.86,2.57-2.15,8.75-1.39,13.12l-9.66,3.1A23.68,23.68,0,0,1,278,55.76,18.46,18.46,0,0,0,282.41,59.85Z"/><polygon class="cls-2" points="304.86 72.69 298.01 93.99 323.69 93.99 321.31 77.44 304.86 72.69"/><polygon class="cls-2" points="283.84 72.21 291.64 93.99 264.91 93.99 267.1 77.16 283.84 72.21"/><path class="cls-1" d="M291.64,94H298l6.85-21.3-5.4-1.78V62.5c6.77-1.74,15.45-9,16.24-20.44-5.36,2-13.37,1.57-17.06-.38s-9.79-6.06-12.33-9c-4.8,6.05-6.6,9.87-13.6,8.94-3.72.19-4.54,2.34-4.43,4.29s2.46,5.24,7.49,6.26c2.66,6.57,11.59,10.36,13.13,10.46v8.21l-5.06,1.4Z"/><path class="cls-3" d="M294.79,76.37a.94.94,0,0,1-.63-.24l-5.22-4.66a.95.95,0,0,1,1.26-1.41l4.59,4.11,4.58-4.11a.95.95,0,0,1,1.26,1.41l-5.22,4.66A.93.93,0,0,1,294.79,76.37Z"/><path class="cls-3" d="M301.21,83.24a.91.91,0,0,1-.68-.3l-5.74-6.14-5.74,6.14a.94.94,0,0,1-1.38-1.29l6.43-6.87a1,1,0,0,1,1.37,0l6.43,6.87a.94.94,0,0,1,0,1.33A1,1,0,0,1,301.21,83.24Z"/><path class="cls-3" d="M291.6,95.11a.92.92,0,0,1-.89-.63l-7.35-21.67a.93.93,0,0,1,.58-1.19,1,1,0,0,1,1.2.59l7.35,21.66a.94.94,0,0,1-.59,1.19A.79.79,0,0,1,291.6,95.11Z"/><path class="cls-3" d="M297.8,95.11a.79.79,0,0,1-.3,0,.94.94,0,0,1-.59-1.19l7.35-21.66a.94.94,0,0,1,1.78.6l-7.35,21.67A.92.92,0,0,1,297.8,95.11Z"/><path class="cls-3" d="M323.37,93.57a.93.93,0,0,1-.93-.82L320.53,78l-21.34-6.33a1,1,0,0,1-.68-.9V62.56a.94.94,0,1,1,1.88,0v7.5l21.26,6.31a.91.91,0,0,1,.66.78l2,15.36a.94.94,0,0,1-.81,1.06Z"/><path class="cls-3" d="M308.46,58.44a.93.93,0,0,1-.66-.27.94.94,0,0,1,0-1.33,26.33,26.33,0,0,0,3.93-5.17.94.94,0,1,1,1.61,1,28.62,28.62,0,0,1-4.2,5.53A1,1,0,0,1,308.46,58.44Z"/><path class="cls-3" d="M315.2,95.11H264.91a.93.93,0,0,1-.71-.32,1,1,0,0,1-.23-.74l2.19-16.9a.93.93,0,0,1,.67-.78l21.25-6.31V63.29c-5.24-1.43-9.31-4.74-12.74-10.33-2.66-.73-7.51-2.24-8-6.55a5.59,5.59,0,0,1,1.6-4.6,4.28,4.28,0,0,1,2.88-1.16v-.09c0-13.44,9.65-23.57,22.45-23.57s22.45,10.13,22.45,23.57c0,.27,0,.53,0,.79l0,.36a.94.94,0,1,1-1.88-.09l0-.4c0-.22,0-.44,0-.66,0-12.36-8.85-21.69-20.57-21.69s-20.57,9.33-20.57,21.69c0,.23,0,.44,0,.67l0,.39a1,1,0,0,1-.33.76.91.91,0,0,1-.79.21,2.64,2.64,0,0,0-2.41.6,3.67,3.67,0,0,0-1,3c.39,3.25,4.7,4.43,7,5.06a.94.94,0,0,1,.56.42c3.34,5.58,7.31,8.75,12.48,10a.93.93,0,0,1,.72.91v8.21a.94.94,0,0,1-.67.9L268,78l-2,15.23H315.2a.94.94,0,0,1,0,1.88Z"/><path class="cls-3" d="M308,44.42A27.58,27.58,0,0,1,286.56,33.6c-2.42,3.9-6.08,7.43-9.37,9a.94.94,0,0,1-1.25-.45.93.93,0,0,1,.44-1.25c3.23-1.53,6.89-5.21,9.11-9.16a1.15,1.15,0,0,1,.94-.6,1.21,1.21,0,0,1,1,.49c6.5,9.14,18.22,13.2,27.86,9.64A.94.94,0,1,1,316,43,22.88,22.88,0,0,1,308,44.42ZM287.13,32.64h0Z"/><path class="cls-3" d="M280.46,70.49a.94.94,0,0,1-.94-.92,21.16,21.16,0,0,1,2.12-9.88.94.94,0,1,1,1.67.86,19.25,19.25,0,0,0-1.91,9,.94.94,0,0,1-.92,1Z"/><path class="cls-3" d="M271.5,73h0a.93.93,0,0,1-.9-1c.25-6.86,2.09-11.41,6.77-16.79a.94.94,0,1,1,1.42,1.24c-4.37,5-6.08,9.24-6.31,15.62A1,1,0,0,1,271.5,73Z"/><path class="cls-2" d="M316.17,37a41,41,0,0,1-3.62,17.42h9.65l1.56-15.6Z"/><path class="cls-3" d="M322.2,55.37h-9.65a.93.93,0,0,1-.78-.43.91.91,0,0,1-.08-.89,40,40,0,0,0,3.53-17,1,1,0,0,1,.36-.74.94.94,0,0,1,.81-.17L324,37.91a1,1,0,0,1,.72,1l-1.56,15.6A1,1,0,0,1,322.2,55.37ZM314,53.48h7.38l1.39-13.94-5.65-1.36A40.94,40.94,0,0,1,314,53.48Z"/><rect class="cls-3" x="302.38" y="59.44" width="5.54" height="3.93" rx="0.89"/><path class="cls-3" d="M315.11,62.34h-7.19a.94.94,0,1,1,0-1.88h6.45L315.68,55a1,1,0,0,1,1.14-.69.93.93,0,0,1,.69,1.13L316,61.62A.94.94,0,0,1,315.11,62.34Z"/><circle class="cls-1" cx="510.7" cy="57.84" r="57.84"/><rect class="cls-2" x="472.35" y="24.03" width="49.57" height="33.04"/><path class="cls-3" d="M521.92,58H472.35a1,1,0,0,1-.94-1V24a.94.94,0,0,1,.94-.94h49.57a.94.94,0,0,1,.94.94v33A1,1,0,0,1,521.92,58Zm-48.63-1.89H521V25H473.29Z"/><path class="cls-1" d="M497,29.6,499.42,37a.32.32,0,0,0,.31.22h7.73a.33.33,0,0,1,.2.59l-6.26,4.54a.33.33,0,0,0-.12.37L503.67,50a.33.33,0,0,1-.5.37l-6.26-4.55a.33.33,0,0,0-.38,0l-6.26,4.55a.32.32,0,0,1-.49-.37l2.39-7.35a.35.35,0,0,0-.12-.37l-6.26-4.54a.33.33,0,0,1,.19-.59h7.74A.31.31,0,0,0,494,37l2.39-7.36A.33.33,0,0,1,497,29.6Z"/><path class="cls-3" d="M503.36,51.4a1.26,1.26,0,0,1-.74-.24l-5.9-4.29-5.89,4.29a1.27,1.27,0,0,1-1.95-1.42l2.25-6.93-5.89-4.28a1.27,1.27,0,0,1,.74-2.29h7.29l2.25-6.93a1.27,1.27,0,0,1,2.41,0h0l2.25,6.93h7.28a1.27,1.27,0,0,1,.75,2.29l-5.9,4.28,2.25,6.93a1.28,1.28,0,0,1-.45,1.42A1.31,1.31,0,0,1,503.36,51.4ZM487.88,38.12l4.72,3.43a1.26,1.26,0,0,1,.46,1.42l-1.8,5.55L496,45.09a1.26,1.26,0,0,1,1.49,0l4.72,3.43L500.39,43a1.28,1.28,0,0,1,.45-1.42l4.73-3.43h-5.84a1.26,1.26,0,0,1-1.2-.87l-1.81-5.55-1.8,5.55a1.26,1.26,0,0,1-1.2.87Zm8.48,8.49Zm.73,0h0Zm-4-9.94Zm7.19,0h0Z"/><polygon class="cls-1" points="530.75 50.83 530.75 40.26 510.83 40.26 510.83 63.08 495.73 63.08 495.73 96.22 510.83 96.22 514.45 96.22 527.13 96.22 530.75 96.22 545.85 96.22 545.85 50.83 530.75 50.83"/><path class="cls-3" d="M545.85,97.16H495.73a.94.94,0,0,1-.94-.94V63.08a.94.94,0,0,1,.94-.94h14.15V40.26a1,1,0,0,1,.95-.94h19.92a.94.94,0,0,1,.94.94v9.63h14.16a.94.94,0,0,1,.94.94V96.22A.94.94,0,0,1,545.85,97.16Zm-49.18-1.88h48.24V51.77H530.75a.94.94,0,0,1-.94-.94V41.2h-18V63.08a.94.94,0,0,1-.94.94H496.67Z"/><rect class="cls-2" x="502.6" y="83.47" width="4.14" height="5.28"/><path class="cls-3" d="M506.74,89.69H502.6a.94.94,0,0,1-.94-.94V83.47a.94.94,0,0,1,.94-.94h4.14a.94.94,0,0,1,.94.94v5.28A.94.94,0,0,1,506.74,89.69Zm-3.2-1.88h2.26v-3.4h-2.26Z"/><rect class="cls-2" x="502.6" y="71.38" width="4.14" height="5.28"/><path class="cls-3" d="M506.74,77.59H502.6a.94.94,0,0,1-.94-.94V71.38a1,1,0,0,1,.94-.95h4.14a1,1,0,0,1,.94.95v5.27A.94.94,0,0,1,506.74,77.59Zm-3.2-1.88h2.26V72.32h-2.26Z"/><rect class="cls-2" x="518.72" y="83.72" width="4.14" height="5.28"/><path class="cls-3" d="M522.86,89.94h-4.14a.94.94,0,0,1-.94-.94V83.72a.94.94,0,0,1,.94-.94h4.14a.94.94,0,0,1,.94.94V89A.94.94,0,0,1,522.86,89.94Zm-3.2-1.88h2.26v-3.4h-2.26Z"/><rect class="cls-2" x="518.72" y="71.63" width="4.14" height="5.28"/><path class="cls-3" d="M522.86,77.84h-4.14a.94.94,0,0,1-.94-.94V71.63a.94.94,0,0,1,.94-.94h4.14a.94.94,0,0,1,.94.94V76.9A.94.94,0,0,1,522.86,77.84ZM519.66,76h2.26V72.57h-2.26Z"/><rect class="cls-2" x="518.72" y="59.53" width="4.14" height="5.28"/><path class="cls-3" d="M522.86,65.75h-4.14a.94.94,0,0,1-.94-.94V59.53a.94.94,0,0,1,.94-.94h4.14a.94.94,0,0,1,.94.94v5.28A.94.94,0,0,1,522.86,65.75Zm-3.2-1.88h2.26v-3.4h-2.26Z"/><rect class="cls-2" x="518.72" y="47.44" width="4.14" height="5.28"/><path class="cls-3" d="M522.86,53.65h-4.14a.94.94,0,0,1-.94-.94V47.44a.94.94,0,0,1,.94-.94h4.14a.94.94,0,0,1,.94.94v5.27A.94.94,0,0,1,522.86,53.65Zm-3.2-1.88h2.26V48.38h-2.26Z"/><rect class="cls-2" x="534.84" y="83.47" width="4.14" height="5.28"/><path class="cls-3" d="M539,89.69h-4.14a1,1,0,0,1-1-.94V83.47a1,1,0,0,1,1-.94H539a.94.94,0,0,1,.94.94v5.28A.94.94,0,0,1,539,89.69Zm-3.2-1.88H538v-3.4h-2.26Z"/><rect class="cls-2" x="534.84" y="71.38" width="4.14" height="5.28"/><path class="cls-3" d="M539,77.59h-4.14a1,1,0,0,1-1-.94V71.38a1,1,0,0,1,1-.94H539a.94.94,0,0,1,.94.94v5.27A.94.94,0,0,1,539,77.59Zm-3.2-1.88H538V72.32h-2.26Z"/><rect class="cls-2" x="534.84" y="59.28" width="4.14" height="5.28"/><path class="cls-3" d="M539,65.5h-4.14a1,1,0,0,1-1-.94V59.28a1,1,0,0,1,1-.94H539a.94.94,0,0,1,.94.94v5.28A.94.94,0,0,1,539,65.5Zm-3.2-1.88H538v-3.4h-2.26Z"/><path class="cls-1" d="M431.9,63.28H366.75a.71.71,0,0,1,0-1.42H431.9a.71.71,0,0,1,0,1.42Z"/><polygon class="cls-1" points="430.46 67.5 438.99 62.57 430.46 57.65 430.46 67.5"/><path class="cls-1" d="M221.91,63.28H156.77a.71.71,0,0,1,0-1.42h65.14a.71.71,0,1,1,0,1.42Z"/><polygon class="cls-1" points="158.21 67.5 149.68 62.57 158.21 57.65 158.21 67.5"/><path class="cls-1" d="M428.07,137.36c.89-.91,2.49-2.94,3.76-4.44,1.09-1.28,2-1.41,3.46-.18a46.34,46.34,0,0,1,4,4c1.29,1.39,3.3,3.53,4.69,5.17l-1.6,1.74c-1.3-1.66-3.05-3.71-4.25-5.1s-2.9-3.2-3.69-3.88-1-.61-1.64.14c-.87,1.06-2.39,3.09-3.22,4.15-.41.56-.85,1.18-1.16,1.62l-1.8-1.81C427.12,138.28,427.51,137.9,428.07,137.36ZM441,133.82l-1.39.62a21.69,21.69,0,0,0-1.77-3.11l1.35-.58C439.71,131.51,440.58,132.93,441,133.82Zm2.59-1.06-1.37.66a20.26,20.26,0,0,0-1.85-3l1.35-.62A25.7,25.7,0,0,1,443.61,132.76Z"/><path class="cls-1" d="M458.8,139.25a50.82,50.82,0,0,0-7.3-3v6a21.73,21.73,0,0,0,.16,2.47h-2.38a19.47,19.47,0,0,0,.16-2.47V131a13.58,13.58,0,0,0-.18-2.16h2.38c-.06.64-.14,1.49-.14,2.16v3a67.2,67.2,0,0,1,8.17,3.08Z"/><path class="cls-1" d="M477.2,133.34c.75,0,1.5,0,1.85-.08v2.07c-.35,0-1.2-.06-1.87-.06h-4.77c-.08,4.07-1.41,7.22-5.42,9.6l-1.9-1.41c3.73-1.72,5.14-4.56,5.24-8.19H465c-.77,0-1.51,0-2,.06v-2.09c.46,0,1.22.1,1.95.1h5.39V131a9.71,9.71,0,0,0-.22-2.09h2.44a13.92,13.92,0,0,0-.14,2.09v2.37Z"/><path class="cls-1" d="M494.64,144.73c-.25-.68-.6-1.52-1-2.41-3.07.36-9.25,1-11.76,1.27l-1.7.23-.35-2.24c.6,0,1.36,0,1.94,0l.79,0c1.08-2.76,2.91-8.52,3.45-10.49a12.43,12.43,0,0,0,.43-2l2.41.5c-.21.52-.46,1.1-.73,1.95-.58,1.83-2.34,7.29-3.3,9.84,2.62-.23,5.88-.59,7.95-.87a26.62,26.62,0,0,0-2.2-3.76l1.87-.81a57.18,57.18,0,0,1,4.25,7.93Z"/><path class="cls-1" d="M515.88,128.61V145.5H514v-.94H501.73v.94h-1.82V128.61ZM514,142.9V130.27H501.73V142.9Zm-.91-3v1.49H502.77v-1.49H507v-2.85h-3.42v-1.53H507v-2.33H503v-1.59h9.63v1.59h-4v2.33h3.61v1.53h-3.61v2.85h2.66a12.74,12.74,0,0,0-1.72-2.1l1.14-.62a13.76,13.76,0,0,1,1.8,2l-1.18.71Z"/><path class="cls-1" d="M535.6,143.3c0,1.06-.25,1.6-1,1.89a10.63,10.63,0,0,1-3.61.33,7.32,7.32,0,0,0-.62-1.81c1.26.06,2.57.06,2.94,0s.48-.12.48-.47V132.76h-5.1a15,15,0,0,1-.31,2.38,57.3,57.3,0,0,1,5.12,5.09l-1.47,1.18a45.9,45.9,0,0,0-4.21-4.54,10.22,10.22,0,0,1-4.48,4.85,6.16,6.16,0,0,0-1.27-1.35,8.19,8.19,0,0,0,4.77-7.61h-5v12.78h-1.8V131h6.84v-3.24h1.85V131h6.85Z"/><path class="cls-1" d="M546.12,142.18a9.13,9.13,0,0,0,1.53-.24,4.94,4.94,0,0,0,4.17-4.88,4.55,4.55,0,0,0-4.14-4.8,40.07,40.07,0,0,1-1,4.83c-1,3.51-2.47,5.48-4.19,5.48s-3.27-1.93-3.27-4.8a7.48,7.48,0,0,1,7.7-7.14,6.37,6.37,0,0,1,6.76,6.5c0,3.59-2.31,6.1-6.52,6.69Zm-1.22-5.45a24.84,24.84,0,0,0,.94-4.43,5.75,5.75,0,0,0-4.9,5.31c0,2,.88,2.89,1.58,2.89S544.1,139.39,544.9,136.73Z"/><path class="cls-1" d="M566,127.7a22.37,22.37,0,0,0,8.36,7.26,8.69,8.69,0,0,0-1.2,1.6,26.58,26.58,0,0,1-8-7.06,24.85,24.85,0,0,1-7.8,7.14,8.33,8.33,0,0,0-1.14-1.45,21.87,21.87,0,0,0,7.93-7.49Zm.32,15.64h7.11V145H557.09v-1.62h2.27v-6.93h1.76v6.93h3.26V133h1.89v4.33h5.35V139h-5.35Z"/><path class="cls-1" d="M587.67,141a17.64,17.64,0,0,0,6.54,2.63,8.42,8.42,0,0,0-1.19,1.6,17.12,17.12,0,0,1-6.91-3.63v3.88h-1.76v-3.74a19.21,19.21,0,0,1-6.85,3.47,8.61,8.61,0,0,0-1.18-1.52,18.67,18.67,0,0,0,6.5-2.69h-6v-1.5h7.49v-1.18h-5.7V137h5.7v-1.16h-6.64V134.4h4a9.89,9.89,0,0,0-.82-1.75l.47-.08h-4.38v-1.51h2.85a14.55,14.55,0,0,0-1.41-2.6l1.57-.52a13.12,13.12,0,0,1,1.54,2.76l-1,.36h2.12v-3.3h1.68v3.3h1.91v-3.3h1.7v3.3H590l-.73-.23a17,17,0,0,0,1.35-2.86l1.86.47a30.43,30.43,0,0,1-1.61,2.62h2.78v1.51h-3.72c-.37.65-.76,1.29-1.08,1.83h4.09v1.43h-6.83V137H592v1.35h-5.92v1.18h7.6V141Zm-5-8.45a8.61,8.61,0,0,1,.83,1.72l-.56.11h4.07a17.31,17.31,0,0,0,.85-1.83Z"/><path class="cls-1" d="M68.59,128.3c0,.27,0,.6-.06.95.18,2.57,1.18,11.23,8.4,14.55a6,6,0,0,0-1.37,1.51c-4.67-2.26-6.81-6.68-7.82-10.41a16,16,0,0,1-7.43,10.43,6.33,6.33,0,0,0-1.49-1.41c7.73-4.11,7.61-13.07,7.75-15.62Z"/><path class="cls-1" d="M85.68,138.9c-.41-.68-1.22-1.81-2-2.76v9.36H81.91V137a17.79,17.79,0,0,1-2.74,5.11,9.71,9.71,0,0,0-1-1.73,19.51,19.51,0,0,0,3.46-6.88H78.82v-1.71h3.09v-4h1.82v4h2.52v1.71H83.73V134c.75.73,2.6,2.8,3,3.32Zm10.48-5.37H94.25v9.66c0,1.14-.27,1.64-1,1.93a9.92,9.92,0,0,1-3.49.34,8.87,8.87,0,0,0-.64-1.83c1.16,0,2.38,0,2.72,0s.49-.12.49-.46V136a23.17,23.17,0,0,1-5.51,6.51,7.71,7.71,0,0,0-1.29-1.45,20.45,20.45,0,0,0,6.24-7.57H86.89v-1.71h5.47v-4h1.89v4h1.91Z"/></svg>