<?xml version="1.0" encoding="UTF-8"?>
<svg width="72px" height="72px" viewBox="0 0 72 72" version="1.1" xmlns="http://www.w3.org/2000/svg" xmlns:xlink="http://www.w3.org/1999/xlink">
    <title>Group 2</title>
    <defs>
        <polygon id="path-1" points="0 0 27 0 27 28 0 28"></polygon>
    </defs>
    <g id="LP" stroke="none" stroke-width="1" fill="none" fill-rule="evenodd">
        <g id="toB" transform="translate(-344.000000, -5866.000000)">
            <g id="Group-2" transform="translate(344.000000, 5866.000000)">
                <rect id="Rectangle" x="0" y="0" width="72" height="72"></rect>
                <g id="Group-22" transform="translate(13.000000, 10.000000)">
                    <path d="M29.4013622,48 L3.05427649,48 C1.91936571,48 1,47.0815083 1,45.9490311 L1,3.05096895 C1,1.91849171 1.91936571,1 3.05427649,1 L29.9446238,1 C31.0795346,1 32,1.91849171 32,3.05096895 L32,32.6435209" id="Fill-1" fill="#14BDA5"></path>
                    <path d="M28.6874176,48 L2.7772483,48 C1.2458684,48 0,46.7498078 0,45.212028 L0,2.78797196 C0,1.25019218 1.2458684,0 2.7772483,0 L29.2216702,0 C30.7541316,0 32,1.25019218 32,2.78797196 L32,32.0535383 C32,32.4724395 31.6614958,32.8132037 31.2429619,32.8132037 C30.824428,32.8132037 30.4859238,32.4724395 30.4859238,32.0535383 L30.4859238,2.78797196 C30.4859238,2.08799457 29.9192267,1.51933077 29.2216702,1.51933077 L2.7772483,1.51933077 C2.08077326,1.51933077 1.51407618,2.08799457 1.51407618,2.78797196 L1.51407618,45.212028 C1.51407618,45.9109202 2.08077326,46.4806692 2.7772483,46.4806692 L28.6874176,46.4806692 C29.1059515,46.4806692 29.4444557,46.8203482 29.4444557,47.2403346 C29.4444557,47.660321 29.1059515,48 28.6874176,48" id="Fill-3" fill="#2E6666"></path>
                    <polyline id="Fill-5" fill="#FFFFFF" points="25.3990769 39 5 39 5 8 26 8 26 25.41425"></polyline>
                    <path d="M25.6156643,40 L4.7713985,40 C4.34553371,40 4,39.6593197 4,39.2380952 L4,8.76190476 C4,8.34068027 4.34553371,8 4.7713985,8 L26.2297019,8 C26.6544663,8 27,8.34068027 27,8.76190476 L27,25.8819048 C27,26.3031293 26.6544663,26.6438095 26.2297019,26.6438095 C25.8038371,26.6438095 25.4583034,26.3031293 25.4583034,25.8819048 L25.4583034,9.52380952 L5.54169657,9.52380952 L5.54169657,38.4761905 L25.6156643,38.4761905 C26.0415291,38.4761905 26.3859624,38.8168707 26.3859624,39.2380952 C26.3859624,39.6593197 26.0415291,40 25.6156643,40" id="Fill-7" fill="#2E6666"></path>
                    <polyline id="Fill-9" fill="#FFFFFF" points="26.5165636 36.5822723 26 45.1634463 38.5330001 55 52 47.0360818 44.5434212 28 31.1623316 31.947362"></polyline>
                    <g id="Group-13" transform="translate(25.000000, 28.000000)">
                        <mask id="mask-2" fill="white">
                            <use xlink:href="#path-1"></use>
                        </mask>
                        <g id="Clip-12"></g>
                        <path d="M13.0420126,28 C12.8757252,28 12.7105177,27.9450424 12.5744644,27.83836 L0.287556821,18.1884495 C0.093194983,18.0354302 -0.013704028,17.7972806 0.00141300382,17.5505101 L0.507833571,9.13014154 C0.532668695,8.71526543 0.894397672,8.43401176 1.30687668,8.42215816 C1.72367485,8.44694296 2.04113252,8.80578386 2.01629739,9.22065996 L1.53363216,17.2466268 L13.1024807,26.3329524 L25.3073243,19.1097977 L18.484144,1.67422522 L6.03202893,5.35099737 C5.63142759,5.4673782 5.21139006,5.24215974 5.09261338,4.84237003 C4.9738367,4.44365793 5.20275175,4.02339382 5.60227331,3.90593539 L18.7206176,0.0319623957 C19.0985434,-0.0811856334 19.4959054,0.114937617 19.6384374,0.480244111 L26.9486021,19.1572121 C27.0835756,19.5009666 26.9486021,19.8921355 26.6300646,20.0807156 L13.4274969,27.8943952 C13.3087202,27.9655168 13.1748265,28 13.0420126,28" id="Fill-11" fill="#2E6666" mask="url(#mask-2)"></path>
                    </g>
                    <path d="M41.2225172,33 C40.9381808,33 40.6649512,32.8583544 40.5283365,32.6122326 L39.0833299,30.0184099 C38.89007,29.6718302 39.0444558,29.249907 39.4276435,29.0751103 C39.811942,28.9013182 40.2784314,29.0389455 40.4716913,29.3865298 L41.9166979,31.9803524 C42.1099578,32.3269321 41.955572,32.7498599 41.5712736,32.9246566 C41.459094,32.9758901 41.3402502,33 41.2225172,33" id="Fill-14" fill="#2E6666"></path>
                    <path d="M37.2225172,35 C36.9381808,35 36.6649512,34.85837 36.5283365,34.6122753 L35.0833299,32.0187389 C34.89007,31.6721974 35.0444558,31.2503208 35.4276435,31.0755434 C35.811942,30.9007659 36.2784314,31.0393825 36.4716913,31.3869285 L37.9166979,33.9804649 C38.1099578,34.3270064 37.955572,34.7498875 37.5712736,34.9246649 C37.459094,34.9758928 37.3402502,35 37.2225172,35" id="Fill-16" fill="#2E6666"></path>
                    <polyline id="Fill-18" fill="#FFFFFF" points="28.9364501 41 19 23.556366 23.4196513 21 33 35.6209107"></polyline>
                    <path d="M29.3329707,42 C29.0719081,42 28.819405,41.8621316 28.6813842,41.6187078 L19.0980343,24.6178155 C18.8947479,24.2580652 19.0177897,23.8013763 19.3730059,23.5934966 L23.6356012,21.1032494 C23.9801182,20.8996781 24.4209288,21.0063107 24.6391942,21.3423648 L33.8780271,35.5912754 C34.1037821,35.9402547 34.0074885,36.4077146 33.6608316,36.634982 C33.3141748,36.8611722 32.8508957,36.7631565 32.6240709,36.4152543 L23.773622,22.7662865 L20.7671228,24.523031 L29.9834873,40.873357 C30.1878436,41.2363385 30.061592,41.6962588 29.702096,41.9009071 C29.5854738,41.9687642 29.4581523,42 29.3329707,42" id="Fill-20" fill="#2E6666"></path>
                </g>
            </g>
        </g>
    </g>
</svg>