<?xml version="1.0" encoding="UTF-8"?>
<svg width="56px" height="56px" viewBox="0 0 56 56" version="1.1" xmlns="http://www.w3.org/2000/svg" xmlns:xlink="http://www.w3.org/1999/xlink">
    <title>Group 14</title>
    <defs>
        <polygon id="path-1" points="0 0 39 0 39 29.7091301 0 29.7091301"></polygon>
    </defs>
    <g id="LP" stroke="none" stroke-width="1" fill="none" fill-rule="evenodd">
        <g id="toB" transform="translate(-168.000000, -8242.000000)">
            <g id="Group-14" transform="translate(168.000000, 8242.000000)">
                <rect id="Rectangle" x="0" y="0" width="56" height="56"></rect>
                <g id="Group-6" transform="translate(9.000000, 14.000000)">
                    <path d="M19.499921,18.756026 C18.9273904,18.756026 18.3548597,18.5459665 17.8984145,18.1274268 L0.383714008,2.05708298 L1.98522051,0.311851537 L19.499921,16.3814057 L37.0146216,0.311851537 L38.6161281,2.05708298 L21.1014275,18.1274268 C20.6449824,18.5459665 20.0724517,18.756026 19.499921,18.756026" id="Fill-1" fill="#FFFFFF"></path>
                    <g id="Group-5">
                        <mask id="mask-2" fill="white">
                            <use xlink:href="#path-1"></use>
                        </mask>
                        <g id="Clip-4"></g>
                        <path d="M2.36909246,2.36901349 L2.36909246,27.3400377 L36.6324869,27.3400377 L36.6309075,2.36901349 L2.36909246,2.36901349 Z M36.6309075,29.7091301 L2.36909246,29.7091301 C1.06293281,29.7091301 0,28.6461973 0,27.3400377 L0,2.36901349 C0,1.06285385 1.06293281,-7.89697485e-05 2.36909246,-7.89697485e-05 L36.6309075,-7.89697485e-05 C37.9370672,-7.89697485e-05 39,1.06285385 39,2.36901349 L39,27.3400377 C39,28.6461973 37.9370672,29.7091301 36.6309075,29.7091301 L36.6309075,29.7091301 Z" id="Fill-3" fill="#FFFFFF" mask="url(#mask-2)"></path>
                    </g>
                </g>
            </g>
        </g>
    </g>
</svg>