<?xml version="1.0" encoding="UTF-8"?>
<svg width="56px" height="56px" viewBox="0 0 56 56" version="1.1" xmlns="http://www.w3.org/2000/svg" xmlns:xlink="http://www.w3.org/1999/xlink">
    <title>Group 11</title>
    <defs>
        <polygon id="path-1" points="3.8064166e-16 0 29.99656 0 29.99656 42.8466697 3.8064166e-16 42.8466697"></polygon>
    </defs>
    <g id="LP" stroke="none" stroke-width="1" fill="none" fill-rule="evenodd">
        <g id="toB" transform="translate(-780.000000, -8242.000000)">
            <g id="Group-11" transform="translate(780.000000, 8242.000000)">
                <rect id="Rectangle-Copy-7" x="0" y="0" width="56" height="56"></rect>
                <g id="Group-3" transform="translate(13.000000, 4.000000)">
                    <mask id="mask-2" fill="white">
                        <use xlink:href="#path-1"></use>
                    </mask>
                    <g id="Clip-2"></g>
                    <path d="M15.0146142,11.0386192 L15.0051858,11.0386192 C13.9406318,11.0411906 12.9412196,11.4568981 12.1912319,12.2111714 C11.4412441,12.9654448 11.0298223,13.9674284 11.0323817,15.0328395 C11.0375365,17.2570888 12.7877935,18.9987746 15.0171856,18.9987746 L15.0188998,18.9987746 C17.2457205,18.9970603 18.9908348,17.2493746 18.9908348,15.0199826 C18.9908348,13.9545715 18.5742702,12.953445 17.8191397,12.2000288 C17.0682948,11.4508982 16.0723111,11.0386192 15.0146142,11.0386192 L15.0146142,11.0386192 Z M15.0180427,21.570161 C11.3495314,21.570161 8.46957852,18.702208 8.46098701,15.0396965 C8.45672159,13.2868681 9.13385336,11.6377523 10.368976,10.3974869 C11.6032415,9.15636433 13.2480717,8.47066127 15.000043,8.46723275 L15.0154713,8.46723275 C16.7580142,8.46723275 18.3985588,9.14607878 19.6353957,10.3794872 C20.8773753,11.6188954 21.5613641,13.2671541 21.5622212,15.0199826 C21.5622212,18.6910653 18.6882683,21.5675896 15.019757,21.570161 L15.0180427,21.570161 Z M13.7280638,2.57104361 L13.2472146,2.67732758 C12.83065,2.76818323 12.4140853,2.85818176 12.0018064,2.96275148 C8.60500488,3.82502307 5.81505057,5.96098809 4.14536363,8.9772244 C2.43539163,12.0663167 2.10796843,15.6799718 3.22395015,19.1522006 C4.23021938,22.2815779 6.09704595,24.896678 7.78987537,27.0420714 C11.007537,31.1202903 13.3792124,35.0476546 15.0077572,39.0033041 C16.676587,34.9807985 19.0662621,31.0320061 22.2822094,26.9777867 C24.3247474,24.4021146 25.6207262,22.2644354 26.4829978,20.046186 C27.8964032,16.4119598 27.7438343,12.594308 26.051862,9.30036197 C24.4224601,6.12641395 21.5682211,3.87473654 18.0154222,2.96189435 C17.6048575,2.8564675 17.1900071,2.76732611 16.7751568,2.67647045 L16.2943075,2.57104361 L13.7280638,2.57104361 Z M15.0094714,42.8466697 C14.5954782,42.8466697 14.1840564,42.7215289 13.8832041,42.4729615 C13.4383543,42.1078247 13.2557858,41.6089757 13.1349307,41.278124 C11.5903846,37.0876212 9.18528109,32.9622602 5.771337,28.6346167 C3.9362242,26.3092263 1.90740028,23.4575587 0.77599024,19.9390449 C-0.55941646,15.7845415 -0.161708688,11.4491839 1.89540048,7.73267336 C3.91308172,4.08816162 7.27731233,1.509061 11.3692453,0.47022087 C11.8106667,0.357936995 12.2555165,0.261938567 12.7003664,0.164225882 L13.3054993,0.0313709148 C13.3980692,0.0107998231 13.4932105,-0.000342851528 13.5883518,-0.000342851528 L16.4331624,-0.000342851528 C16.5283037,-0.000342851528 16.623445,0.0107998231 16.7160149,0.0313709148 L17.3194336,0.163368753 C17.7659977,0.261081438 18.2125618,0.357936995 18.6556974,0.471077999 C22.9301988,1.56991715 26.3698568,4.28872976 28.3395388,8.12609548 C30.3417917,12.0260316 30.5389314,16.7110977 28.87953,20.9787421 C27.9324026,23.4138451 26.4761408,25.8275199 24.2964622,28.5754749 C20.8730897,32.8911185 18.4414152,37.0593359 16.8600125,41.3192661 C16.7280147,41.6869744 16.5445891,42.1952518 16.0594542,42.5346748 C15.7620305,42.7438142 15.3848938,42.8466697 15.0094714,42.8466697 L15.0094714,42.8466697 Z" id="Fill-1" fill="#FFFFFF" mask="url(#mask-2)"></path>
                </g>
            </g>
        </g>
    </g>
</svg>