<?xml version="1.0" encoding="UTF-8"?>
<svg width="72px" height="72px" viewBox="0 0 72 72" version="1.1" xmlns="http://www.w3.org/2000/svg" xmlns:xlink="http://www.w3.org/1999/xlink">
    <title>Group 4</title>
    <defs>
        <polygon id="path-1" points="0 0 47.2601241 0 47.2601241 36.0016738 0 36.0016738"></polygon>
        <polygon id="path-3" points="0 0 49.0361398 0 49.0361398 39.9924963 0 39.9924963"></polygon>
    </defs>
    <g id="LP" stroke="none" stroke-width="1" fill="none" fill-rule="evenodd">
        <g id="toB" transform="translate(-344.000000, -6008.000000)">
            <g id="Group-4" transform="translate(344.000000, 6008.000000)">
                <rect id="Rectangle-Copy-2" x="0" y="0" width="72" height="72"></rect>
                <g id="Group-17" transform="translate(4.000000, 13.000000)">
                    <path d="M38.3702605,0.751251531 C52.9162543,0.751251531 61.2468386,7.48116843 61.2468386,17.4821105 C61.2468386,21.788012 60.3381845,24.4782612 57.732659,27.7299629 L60.8758496,35.2081255 C60.8866029,35.2360371 60.8586444,35.2628752 60.8306858,35.2521399 L52.3581579,31.6322197 C48.9386073,33.2564603 46.1018858,34.7497311 38.3702605,34.7497311 C23.8242667,34.7497311 15.4926071,28.1625928 15.4926071,17.4821105 C15.4926071,6.80162825 23.8242667,0.751251531 38.3702605,0.751251531" id="Fill-1" fill="#14BDA5"></path>
                    <g id="Group-5" transform="translate(14.739876, 0.000000)">
                        <mask id="mask-2" fill="white">
                            <use xlink:href="#path-1"></use>
                        </mask>
                        <g id="Clip-4"></g>
                        <path d="M23.6303847,1.50293247 C9.56936488,1.50293247 1.5054625,7.3267958 1.5054625,17.4823252 C1.5054625,22.5150019 3.47224173,26.6791984 7.19396011,29.5251084 C11.0232115,32.4515326 16.7074078,33.9984795 23.6303847,33.9984795 C30.9082206,33.9984795 33.6933262,32.6694578 36.9193173,31.1321726 L37.2956829,30.9539678 C37.491393,30.8605712 37.7172124,30.8552036 37.9150732,30.9410855 L44.7552496,33.8642891 L42.2991951,28.0200289 C42.1927374,27.7666774 42.2335999,27.4746791 42.4045774,27.2599745 C44.8778373,24.1735953 45.7542315,21.614316 45.7542315,17.4823252 C45.7542315,7.62523524 37.2774023,1.50293247 23.6303847,1.50293247 M46.0918852,36.0016738 C45.9918795,36.0016738 45.8929491,35.9834239 45.8026214,35.9458506 L37.6354873,32.4569002 L37.5688168,32.4880324 C34.3180931,34.0381999 31.2480249,35.501412 23.6303847,35.501412 C16.3729801,35.501412 10.3726367,33.8471128 6.27885398,30.7177927 C2.171092,27.5777373 0,23.0002344 0,17.4823252 C0,6.37136015 8.61339619,0 23.6303847,0 C38.2054124,0 47.2607693,6.69878473 47.2607693,17.4823252 C47.2607693,21.846197 46.3639438,24.6105192 43.8584241,27.8471916 L46.8306372,34.9174154 C46.9499989,35.201899 46.8758011,35.5658234 46.654283,35.7826751 C46.5091134,35.9233066 46.299424,36.0016738 46.0918852,36.0016738" id="Fill-3" fill="#2E6666" mask="url(#mask-2)"></path>
                    </g>
                    <path d="M24.5175322,9.75875524 C9.40698999,9.75875524 0.752731252,16.04316 0.752731252,27.1390957 C0.752731252,33.1518992 3.31416817,37.7379902 8.04884775,40.690179 L5.20459895,48.2048414 C5.19277031,48.2349 5.22287956,48.2628116 5.25083815,48.2499293 L16.1288801,43.7368378 C18.6505298,44.2456878 21.4431627,44.5194362 24.5175322,44.5194362 C39.6280744,44.5194362 48.2834085,38.2339579 48.2834085,27.1390957 C48.2834085,16.04316 39.6280744,9.75875524 24.5175322,9.75875524" id="Fill-6" fill="#FFFFFF"></path>
                    <g id="Group-10" transform="translate(0.000000, 9.007504)">
                        <mask id="mask-4" fill="white">
                            <use xlink:href="#path-3"></use>
                        </mask>
                        <g id="Clip-9"></g>
                        <path d="M24.5175322,1.50293247 C9.89303932,1.50293247 1.5054625,7.56404442 1.5054625,18.1318067 C1.5054625,23.8289943 3.84108005,28.1735427 8.44671998,31.0462908 C8.75103847,31.2352308 8.88007812,31.6141845 8.7521138,31.9480502 L6.49499538,37.9136186 L15.8396162,34.0360529 C15.9794092,33.9802296 16.1310307,33.9662738 16.2772757,33.9931119 C18.8032267,34.5019619 21.5754284,34.7596075 24.5175322,34.7596075 C39.1431005,34.7596075 47.5296019,28.6995691 47.5296019,18.1318067 C47.5296019,7.56404442 39.1431005,1.50293247 24.5175322,1.50293247 M5.24976282,39.9930331 C5.04652538,39.9930331 4.83898662,39.9178864 4.69489235,39.781549 C4.47552496,39.5732855 4.39272452,39.2168758 4.49918223,38.9334657 L7.12944029,31.98455 C2.46250653,28.8530829 0,24.0759047 0,18.1318067 C0,6.60860878 8.9359953,0 24.5175322,0 C40.0990691,0 49.0361398,6.60860878 49.0361398,18.1318067 C49.0361398,29.6550047 40.0990691,36.2636135 24.5175322,36.2636135 C21.5625244,36.2636135 18.7677408,36.0113355 16.2063039,35.5110737 L5.54010202,39.9372098 C5.44977427,39.9747832 5.34976854,39.9930331 5.24976282,39.9930331" id="Fill-8" fill="#2E6666" mask="url(#mask-4)"></path>
                    </g>
                    <path d="M15.2470016,27.9342544 C15.2470016,28.8778813 14.4813664,29.6422298 13.536151,29.6422298 C12.5909357,29.6422298 11.8242251,28.8778813 11.8242251,27.9342544 C11.8242251,26.9906275 12.5909357,26.2252054 13.536151,26.2252054 C14.4813664,26.2252054 15.2470016,26.9906275 15.2470016,27.9342544" id="Fill-11" fill="#2E6666"></path>
                    <path d="M36.0804521,27.9342544 C36.0804521,28.8778813 35.3148168,29.6422298 34.3696015,29.6422298 C33.4243861,29.6422298 32.6576755,28.8778813 32.6576755,27.9342544 C32.6576755,26.9906275 33.4243861,26.2252054 34.3696015,26.2252054 C35.3148168,26.2252054 36.0804521,26.9906275 36.0804521,27.9342544" id="Fill-13" fill="#2E6666"></path>
                    <path d="M25.6637269,27.9342544 C25.6637269,28.8778813 24.8980916,29.6422298 23.9528762,29.6422298 C23.0076609,29.6422298 22.2409503,28.8778813 22.2409503,27.9342544 C22.2409503,26.9906275 23.0076609,26.2252054 23.9528762,26.2252054 C24.8980916,26.2252054 25.6637269,26.9906275 25.6637269,27.9342544" id="Fill-15" fill="#2E6666"></path>
                </g>
            </g>
        </g>
    </g>
</svg>