<?xml version="1.0" encoding="UTF-8"?>
<svg width="12px" height="12px" viewBox="0 0 12 12" version="1.1" xmlns="http://www.w3.org/2000/svg" xmlns:xlink="http://www.w3.org/1999/xlink">
    <title>新しいウィンドウで開くボタン　1</title>
    <g id="オウンド" stroke="none" stroke-width="1" fill="none" fill-rule="evenodd">
        <g id="top" transform="translate(-1221.000000, -2060.000000)" fill="#FFFFFF" fill-rule="nonzero">
            <g id="Group-2" transform="translate(1077.000000, 2046.000000)">
                <g id="新しいウィンドウで開くボタン-1" transform="translate(144.000000, 14.000000)">
                    <path d="M2.18181818,0 L2.18181818,9.81818182 L12,9.81818182 L12,0 L2.18181818,0 Z M11.0559441,8.87412587 L3.12587413,8.87412587 L3.12587413,0.944055944 L11.0559441,0.944055944 L11.0559441,8.87412587 Z" id="Shape"></path>
                    <polygon id="Path" points="0.944055944 11.0559441 0.944055944 6.9020979 0.944055944 3.12587413 0.944055944 2.18181818 0 2.18181818 0 12 9.81818182 12 9.81818182 11.0559441 8.87412587 11.0559441"></polygon>
                    <polygon id="Path" points="5.39048921 7.27272727 8.15350063 4.51057594 8.15350063 6.49894973 9.09090909 6.49894973 9.09090909 2.90909091 5.50297822 2.90909091 5.50297822 3.84700308 7.49028415 3.84700308 4.72727273 6.60915441"></polygon>
                </g>
            </g>
        </g>
    </g>
</svg>